<svg width="622" height="240" viewBox="0 0 622 240" fill="none" xmlns="http://www.w3.org/2000/svg">
<g clip-path="url(#clip0_409_45)">
<path d="M272.438 31.2707V45.5274H268.115V0.634132H280.704C282.751 0.634132 284.495 1.0133 285.936 1.77163C287.377 2.52996 288.59 3.51579 289.5 4.80496C290.41 6.09412 291.093 7.53495 291.548 9.20328C292.003 10.8716 292.23 12.6916 292.23 14.5116C292.23 16.3316 292.23 18.3033 292.079 20.2749C291.927 22.2466 291.548 24.0666 290.865 25.6591C290.183 27.3274 289.121 28.6166 287.604 29.6782C286.088 30.7399 284.04 31.2707 281.234 31.2707H272.438ZM272.438 27.0999H281.31C282.903 27.0999 284.04 26.7966 284.95 26.1899C285.86 25.5832 286.467 24.6733 286.846 23.6116C287.225 22.5499 287.529 21.1849 287.604 19.5924C287.68 17.9999 287.756 16.3316 287.756 14.4358C287.756 11.4783 287.149 9.12745 285.86 7.38329C284.571 5.63912 282.979 4.80496 280.931 4.80496H272.438V27.0999Z" fill="#231F20"/>
<path d="M321.426 1.69585C322.26 2.15085 323.018 2.68169 323.625 3.28835C324.232 3.89502 324.838 4.57751 325.217 5.41168C325.672 6.24584 325.976 7.23168 326.203 8.44501C326.431 9.65834 326.582 11.0233 326.582 12.7675V34.3041C326.582 36.5033 326.203 38.3991 325.445 39.9158C324.687 41.4324 323.701 42.6458 322.487 43.5558C321.274 44.4658 319.909 45.1483 318.392 45.5274C316.876 45.9066 315.359 46.1341 313.918 46.1341C312.477 46.1341 310.961 45.9066 309.444 45.5274C307.927 45.1483 306.562 44.4658 305.349 43.5558C304.136 42.6458 303.15 41.4324 302.316 39.9158C301.482 38.3991 301.178 36.5033 301.178 34.3041V12.6917C301.178 11.0233 301.33 9.5825 301.557 8.36917C301.785 7.15584 302.164 6.17001 302.619 5.33585C303.074 4.50168 303.605 3.81918 304.287 3.21252C304.894 2.60585 305.652 2.07502 306.411 1.62002C307.472 1.08919 308.61 0.634189 309.823 0.330857C311.037 0.027524 312.326 -0.0483092 313.691 -0.0483092C315.056 -0.0483092 316.421 0.103357 317.71 0.330857C318.999 0.634189 320.212 1.01336 321.274 1.62002H321.426V1.69585ZM322.336 12.1608C322.336 9.355 321.502 7.30751 319.909 6.09418C318.317 4.80501 316.269 4.19835 313.842 4.19835C311.416 4.19835 309.444 4.80501 307.852 6.09418C306.259 7.38334 305.425 9.355 305.425 12.1608V34.7591C305.425 36.0483 305.652 37.1858 306.107 38.0958C306.562 39.0058 307.169 39.7641 307.927 40.3708C308.686 40.9774 309.596 41.3566 310.582 41.6599C311.567 41.9633 312.629 42.0391 313.767 42.0391C314.904 42.0391 315.966 41.8874 317.027 41.6599C318.089 41.4324 318.999 41.0533 319.757 40.4466C320.516 39.9158 321.122 39.1574 321.577 38.2474C322.032 37.3374 322.26 36.2 322.26 34.7591V12.1608H322.336Z" fill="#231F20"/>
<path d="M375.116 0.634132L364.727 45.6032H358.888L353.504 10.6441L348.195 45.6032H342.28L331.891 0.634132H336.365L344.859 39.3091L350.698 0.634132H356.234L362.073 39.4607L370.566 0.634132H375.04H375.116Z" fill="#231F20"/>
<path d="M401.127 45.5274H380.728V0.634132H401.203V4.72912H385.051V20.1233H395.06V24.5216H385.051V41.4324H401.127V45.5274Z" fill="#231F20"/>
<path d="M412.426 31.195V45.5274H408.027V0.710011H423.042C425.09 0.710011 426.834 1.08918 428.275 1.77168C429.716 2.45417 430.929 3.44001 431.839 4.72917C432.749 6.01833 433.431 7.45916 433.811 9.12749C434.266 10.7958 434.417 12.6158 434.417 14.4358C434.417 15.8008 434.417 17.2416 434.341 18.6825C434.341 20.1233 434.114 21.5641 433.735 23.005C433.431 24.37 432.901 25.735 432.294 26.8725C431.611 28.0858 430.701 29.0716 429.488 29.83C430.398 32.3324 431.232 34.9866 432.142 37.7166C433.052 40.4466 433.886 43.0249 434.721 45.6033H429.791L425.166 31.195C425.166 31.195 424.635 31.195 424.331 31.195C424.104 31.195 423.801 31.195 423.497 31.195H412.426ZM412.426 27.0241H423.573C425.09 27.0241 426.303 26.7208 427.137 26.19C427.972 25.5833 428.578 24.825 429.033 23.8391C429.488 22.8533 429.716 21.7158 429.791 20.4266C429.867 19.1375 429.943 17.7725 429.943 16.3316V14.5116C429.943 11.5542 429.336 9.20333 428.123 7.535C426.91 5.86667 425.241 5.0325 423.27 5.0325H412.502V26.9483L412.426 27.0241Z" fill="#231F20"/>
<path d="M462.779 45.5274H442.38V0.634132H462.855V4.72912H446.703V20.1233H456.713V24.5216H446.703V41.4324H462.779V45.5274Z" fill="#231F20"/>
<path d="M495.311 33.3182C495.311 35.6691 495.008 37.6407 494.326 39.2332C493.643 40.8257 492.733 42.0391 491.596 43.0249C490.458 43.9349 489.093 44.6174 487.501 44.9965C485.908 45.3757 484.316 45.6032 482.496 45.6032H469.907V0.634132H481.434C483.785 0.634132 485.756 0.937464 487.501 1.61996C489.245 2.30246 490.686 3.21246 491.823 4.50162C492.961 5.71496 493.87 7.15579 494.401 8.82412C495.008 10.4924 495.235 12.3124 495.235 14.3599V33.3182H495.311ZM490.989 13.8291C490.989 12.1608 490.686 10.7199 490.155 9.58245C489.624 8.44495 488.866 7.45912 487.956 6.77662C487.046 6.09412 486.06 5.56329 484.998 5.18412C483.936 4.88079 482.875 4.72912 481.889 4.72912H474.23V41.5082H481.661C482.647 41.5082 483.709 41.4324 484.846 41.2807C485.984 41.1291 486.97 40.7499 487.88 40.2949C488.79 39.7641 489.548 39.0057 490.155 38.0199C490.761 37.0341 491.065 35.6691 491.065 34.0007V13.8291H490.989Z" fill="#231F20"/>
<path d="M547.484 12.2366C547.484 13.0708 547.484 13.9808 547.484 14.8149C547.484 15.7249 547.332 16.5591 547.105 17.3933C546.877 18.2274 546.574 19.0616 546.119 19.8199C545.664 20.5783 544.982 21.2608 544.147 21.8674C545.664 22.6258 546.802 23.8391 547.636 25.5833C548.47 27.3274 548.849 29.6782 548.849 32.6357C548.849 34.0766 548.697 35.5174 548.394 37.0341C548.091 38.5507 547.56 39.9157 546.726 41.2049C545.892 42.4182 544.754 43.4799 543.237 44.2382C541.721 44.9966 539.749 45.4515 537.247 45.4515H523.369V0.634132H536.64C539.901 0.634132 542.479 1.61996 544.451 3.59163C546.422 5.56329 547.408 8.44495 547.408 12.2366H547.484ZM527.692 20.1233H536.564C537.55 20.1233 538.384 19.9716 539.218 19.7441C540.052 19.5166 540.735 19.0616 541.266 18.4549C541.797 17.8483 542.252 17.0141 542.555 16.0283C542.858 15.0424 543.01 13.7533 543.01 12.2366C543.01 10.7199 542.782 9.50662 542.403 8.59662C542.024 7.61079 541.493 6.92829 540.811 6.39745C540.204 5.86662 539.446 5.48746 538.612 5.33579C537.777 5.18412 536.943 5.03246 536.109 5.03246H527.616V20.1991L527.692 20.1233ZM544.375 32.4841C544.375 31.1191 544.223 29.9816 543.844 28.9199C543.465 27.8582 543.01 27.0241 542.403 26.3416C541.797 25.6591 541.114 25.1283 540.432 24.8249C539.673 24.5216 538.915 24.2941 538.157 24.2941H527.692V41.4324H537.095C538.232 41.4324 539.218 41.2807 540.128 40.9774C541.038 40.6741 541.797 40.1432 542.403 39.4607C543.01 38.7782 543.465 37.8682 543.844 36.7307C544.147 35.5932 544.375 34.1524 544.375 32.4082V32.4841Z" fill="#231F20"/>
<path d="M579.713 0.634132L579.865 36.8824C579.865 39.4607 579.258 41.4324 578.121 42.8732C576.907 44.3141 575.012 45.4515 572.433 46.2857C572.433 46.0582 572.433 45.8307 572.282 45.4515C572.13 45.0724 572.054 44.6932 571.902 44.2382C571.751 43.7832 571.599 43.2524 571.447 42.6457C574.253 41.5082 575.618 39.6124 575.618 36.8824C575.618 36.0482 575.618 35.2141 575.618 34.3041C575.618 33.3941 575.618 32.5599 575.618 31.7257V28.9199C574.557 29.7541 573.267 30.3607 571.675 30.6641C570.082 30.9674 568.717 31.1949 567.352 31.1949C565.532 31.1949 563.864 30.9674 562.272 30.5124C560.679 30.0574 559.314 29.2991 558.101 28.2374C556.887 27.1757 555.977 25.8866 555.295 24.2183C554.612 22.5499 554.309 20.5783 554.309 18.2274V0.634132H558.707V19.1374C558.707 20.5024 558.935 21.7158 559.39 22.7016C559.845 23.6874 560.527 24.4458 561.362 25.1283C562.196 25.7349 563.106 26.1899 564.092 26.4933C565.077 26.7966 566.139 26.9482 567.277 26.9482C568.414 26.9482 569.324 26.7966 570.31 26.5691C571.296 26.3416 572.206 25.8866 572.964 25.3558C573.722 24.8249 574.329 24.0666 574.784 23.2324C575.239 22.3224 575.467 21.3366 575.467 20.1233V0.634132H579.789H579.713Z" fill="#231F20"/>
<path d="M302.705 110.914C305.604 112.266 308.164 114.585 310.338 117.967C312.512 121.349 313.623 125.841 313.623 131.493C313.623 134.102 313.381 136.759 312.898 139.464C312.415 142.17 311.449 144.634 309.951 146.856C308.454 149.078 306.377 150.914 303.72 152.315C301.063 153.716 297.536 154.44 293.14 154.44H268.067V70.9137H292.125C297.778 70.9137 302.319 72.6046 305.749 75.9862C309.178 79.3678 310.918 84.4403 310.918 91.2036C310.918 93.136 310.821 95.02 310.628 96.8075C310.435 98.6432 310.048 100.382 309.468 102.073C308.889 103.764 308.019 105.358 306.956 106.856C305.893 108.353 304.444 109.658 302.657 110.865L302.705 110.914ZM272.222 109.223H291.932C294.154 109.223 296.183 108.933 298.067 108.402C299.903 107.87 301.497 106.856 302.802 105.455C304.106 104.054 305.121 102.17 305.797 99.8992C306.521 97.5804 306.86 94.6819 306.86 91.2036C306.86 87.7253 306.425 85.02 305.507 82.8944C304.637 80.7688 303.43 79.1263 301.98 77.8703C300.531 76.6625 298.889 75.793 297.005 75.3582C295.169 74.9234 293.236 74.6819 291.207 74.6819H272.174V109.175L272.222 109.223ZM309.517 131.059C309.517 128.112 309.082 125.503 308.261 123.281C307.391 121.059 306.28 119.223 304.879 117.725C303.478 116.228 301.932 115.165 300.193 114.44C298.502 113.716 296.763 113.378 294.976 113.378L272.27 113.281V151.01H292.995C295.507 151.01 297.826 150.721 299.903 150.044C301.98 149.368 303.72 148.353 305.121 146.807C306.521 145.262 307.633 143.233 308.406 140.672C309.178 138.112 309.565 134.923 309.565 131.059H309.517Z" fill="#231F20"/>
<path d="M320.628 78.9331C320.628 78.1118 320.869 77.4355 321.401 76.8558C321.932 76.2761 322.609 76.0345 323.43 76.0345C324.251 76.0345 324.927 76.3244 325.507 76.8558C326.087 77.3872 326.328 78.1118 326.328 78.9331C326.328 79.7543 326.039 80.4306 325.507 80.962C324.976 81.4934 324.251 81.735 323.43 81.735C322.609 81.735 321.932 81.4934 321.401 80.962C320.869 80.4306 320.628 79.7543 320.628 78.9331ZM321.401 154.392V98.7398H325.411V154.392H321.401Z" fill="#231F20"/>
<path d="M375.749 135.068C375.749 141.735 374.203 146.856 371.111 150.334C368.019 153.812 362.85 155.551 355.604 155.551C348.357 155.551 343.43 153.716 340.096 150.092C336.715 146.469 335.024 141.445 335.024 135.068V120.286C335.024 117.001 335.41 114.054 336.232 111.3C337.053 108.547 338.309 106.276 340 104.344C341.691 102.411 343.865 100.914 346.473 99.8509C349.082 98.7881 352.125 98.2567 355.604 98.2567C362.56 98.2567 367.681 100.237 370.918 104.15C374.154 108.063 375.749 113.474 375.749 120.286V135.068ZM371.739 119.175C371.739 115.89 371.256 113.136 370.29 110.914C369.323 108.692 368.067 106.904 366.57 105.503C365.072 104.15 363.333 103.136 361.401 102.556C359.468 101.977 357.536 101.687 355.604 101.687C353.671 101.687 351.594 101.977 349.662 102.556C347.729 103.136 345.942 104.15 344.396 105.503C342.85 106.856 341.546 108.692 340.531 110.914C339.517 113.136 339.034 115.89 339.034 119.175V136.228C339.034 139.126 339.42 141.59 340.241 143.571C341.063 145.6 342.222 147.242 343.671 148.547C345.169 149.851 346.908 150.769 348.937 151.349C350.966 151.928 353.188 152.17 355.555 152.17C357.922 152.17 360.096 151.928 362.077 151.397C364.058 150.865 365.749 149.996 367.198 148.788C368.647 147.58 369.758 145.938 370.531 143.909C371.304 141.88 371.691 139.32 371.691 136.276V119.223L371.739 119.175Z" fill="#231F20"/>
<path d="M384.975 138.595C385.217 140.817 385.942 142.749 387.198 144.344C388.454 145.938 390.048 147.291 391.98 148.353C393.913 149.416 396.135 150.237 398.647 150.769C401.159 151.3 403.864 151.542 406.666 151.542C409.323 151.542 411.98 151.252 414.637 150.576C417.246 149.948 419.613 148.981 421.642 147.629C423.671 146.276 425.314 144.537 426.618 142.411C427.874 140.237 428.502 137.677 428.502 134.634C428.502 132.315 428.116 130.237 427.294 128.305C426.473 126.373 425.12 124.585 423.285 122.894C421.449 121.204 419.033 119.609 416.087 118.063C413.14 116.518 409.517 114.923 405.217 113.378C396.666 110.334 390.628 106.904 387.053 103.136C383.478 99.3678 381.69 95.02 381.69 90.0925C381.69 87.6287 382.27 85.2133 383.381 82.8461C384.492 80.479 386.135 78.3533 388.26 76.5176C390.434 74.6818 393.091 73.136 396.328 72.0248C399.565 70.8654 403.285 70.2857 407.536 70.2857C411.256 70.2857 414.251 70.5756 416.473 71.107C418.744 71.6867 420.869 72.363 422.898 73.1843C422.898 73.2809 422.85 73.4741 422.753 73.8123C422.657 74.1504 422.512 74.5369 422.367 74.9717C422.125 75.5031 421.98 76.0828 421.787 76.7591C420.579 76.2277 419.275 75.793 417.874 75.4065C416.618 75.02 415.169 74.7302 413.478 74.4403C411.787 74.1988 409.903 74.0538 407.729 74.0538C404.686 74.0538 401.835 74.4403 399.178 75.2616C396.521 76.0828 394.202 77.1939 392.27 78.5949C390.338 79.9959 388.84 81.735 387.729 83.7157C386.618 85.6963 386.038 87.8703 386.038 90.1891C386.038 92.6529 386.473 94.7785 387.391 96.6142C388.26 98.45 389.613 100.044 391.401 101.493C393.188 102.943 395.362 104.295 397.971 105.503C400.579 106.711 403.574 108.015 407.004 109.32C410.628 110.817 414.058 112.315 417.198 113.812C420.338 115.31 423.091 117.049 425.459 118.933C427.826 120.817 429.613 122.991 430.966 125.406C432.318 127.822 432.946 130.624 432.946 133.812C432.946 136.614 432.463 139.368 431.497 141.977C430.531 144.585 428.985 146.952 426.86 148.933C424.734 150.914 422.029 152.556 418.744 153.764C415.459 154.972 411.449 155.6 406.763 155.6C402.367 155.6 398.599 155.117 395.459 154.199C392.318 153.281 389.71 152.025 387.681 150.479C385.652 148.933 384.058 147.097 382.946 145.068C381.835 143.039 381.159 140.865 380.917 138.547H384.927L384.975 138.595Z" fill="#231F20"/>
<path d="M456.667 98.2084C462.898 98.2084 467.729 99.7543 471.208 102.798C474.686 105.841 476.377 110.914 476.377 118.063V129.416L441.546 131.977V139.754C441.546 142.363 441.884 144.44 442.609 146.035C443.333 147.629 444.299 148.885 445.507 149.754C446.715 150.624 448.212 151.252 449.903 151.542C451.594 151.832 453.478 151.977 455.459 151.977C457.971 151.977 460.676 151.638 463.478 150.962C466.28 150.286 469.082 149.271 471.836 147.87C472.222 148.547 472.464 149.03 472.609 149.32L473.285 150.672C470.676 152.073 467.729 153.233 464.444 154.199C461.159 155.165 458.019 155.6 455.024 155.6C453.333 155.6 451.691 155.455 450.193 155.213C448.696 154.972 447.295 154.634 446.039 154.247C443.237 153.426 441.111 151.687 439.71 149.078C438.309 146.421 437.584 143.329 437.584 139.803V115.648C437.584 112.749 438.068 110.237 439.082 108.063C440.097 105.89 441.449 104.102 443.188 102.653C444.927 101.204 446.956 100.092 449.275 99.3678C451.594 98.6432 454.058 98.2567 456.715 98.2567L456.667 98.2084ZM472.367 115.6C472.367 112.653 471.836 110.237 470.821 108.402C469.758 106.566 468.502 105.165 466.908 104.15C465.362 103.136 463.72 102.46 461.932 102.073C460.193 101.687 458.599 101.493 457.198 101.493C455.507 101.493 453.72 101.687 451.836 102.121C450 102.508 448.309 103.233 446.763 104.295C445.217 105.358 443.961 106.759 442.995 108.595C441.981 110.431 441.498 112.749 441.498 115.551V128.353L472.319 126.228V115.551L472.367 115.6Z" fill="#231F20"/>
<path d="M490.193 98.7398V103.426C492.125 102.556 494.154 101.687 496.328 100.865C498.164 100.189 500.241 99.5611 502.56 99.0297C504.879 98.4983 507.198 98.2084 509.565 98.2084C516.376 98.2084 521.159 99.8026 523.816 102.943C526.473 106.083 527.826 111.059 527.826 117.822V154.44H523.816V115.696C523.816 112.508 523.333 109.996 522.367 108.112C521.401 106.276 520.145 104.875 518.647 103.957C517.149 103.039 515.41 102.46 513.526 102.218C511.642 101.977 509.758 101.88 507.922 101.88C506.087 101.88 504.251 102.17 502.173 102.701C500.144 103.281 498.212 103.861 496.425 104.537C494.347 105.358 492.318 106.228 490.289 107.097L490.386 154.392H486.28V98.7398H490.193Z" fill="#231F20"/>
<path d="M554.879 124.923C559.034 125.793 562.415 126.807 565.072 127.919C567.681 129.03 569.758 130.237 571.256 131.59C572.753 132.943 573.768 134.344 574.299 135.89C574.879 137.435 575.121 139.078 575.121 140.865C575.121 142.894 574.782 144.778 574.154 146.566C573.526 148.353 572.464 149.899 570.966 151.252C569.468 152.605 567.536 153.667 565.072 154.44C562.608 155.213 559.613 155.6 556.038 155.6C552.464 155.6 549.613 155.213 547.198 154.489C544.782 153.764 542.753 152.749 541.111 151.493C539.468 150.237 538.212 148.788 537.391 147.097C536.57 145.406 535.99 143.619 535.797 141.687H539.71C540 143.619 540.676 145.213 541.642 146.518C542.657 147.822 543.864 148.885 545.362 149.706C546.86 150.527 548.502 151.107 550.338 151.493C552.174 151.88 554.058 152.073 556.087 152.073C557.729 152.073 559.42 151.88 561.159 151.59C562.898 151.252 564.493 150.672 565.99 149.851C567.488 149.03 568.695 147.919 569.662 146.518C570.628 145.117 571.111 143.329 571.111 141.155C571.111 139.223 570.724 137.629 569.951 136.324C569.179 135.02 568.067 133.909 566.618 133.039C565.169 132.17 563.381 131.349 561.207 130.721C559.034 130.044 556.666 129.416 553.961 128.836C550.628 128.112 547.874 127.146 545.7 125.986C543.526 124.827 541.836 123.571 540.531 122.266C539.227 120.914 538.357 119.464 537.874 117.919C537.391 116.373 537.15 114.778 537.15 113.136C537.15 111.493 537.439 109.706 538.019 107.919C538.599 106.131 539.613 104.537 541.063 103.136C542.512 101.735 544.396 100.576 546.811 99.706C549.179 98.8364 552.174 98.3533 555.845 98.3533C559.517 98.3533 562.077 98.6432 563.816 99.2229C565.555 99.8026 566.763 100.286 567.439 100.672L566.087 103.909C564.976 103.522 563.864 103.184 562.753 102.894C561.691 102.653 560.628 102.46 559.468 102.218C558.309 101.977 557.101 101.88 555.845 101.88C553.768 101.88 551.836 102.121 550.048 102.605C548.261 103.088 546.715 103.764 545.362 104.682C544.009 105.551 542.947 106.711 542.174 108.063C541.401 109.416 541.014 111.01 541.014 112.798C541.014 114.73 541.304 116.373 541.884 117.677C542.464 119.03 543.333 120.141 544.493 121.059C545.652 121.977 547.101 122.749 548.84 123.329C550.579 123.909 552.56 124.489 554.782 125.02L554.879 124.923Z" fill="#231F20"/>
<path d="M601.497 98.2084C607.729 98.2084 612.56 99.7543 616.038 102.798C619.516 105.841 621.207 110.914 621.207 118.063V129.416L586.376 131.977V139.754C586.376 142.363 586.715 144.44 587.439 146.035C588.164 147.629 589.13 148.885 590.338 149.754C591.545 150.624 593.043 151.252 594.734 151.542C596.425 151.832 598.309 151.977 600.289 151.977C602.802 151.977 605.507 151.638 608.309 150.962C611.111 150.286 613.913 149.271 616.666 147.87C617.053 148.547 617.294 149.03 617.439 149.32L618.116 150.672C615.507 152.073 612.56 153.233 609.275 154.199C605.99 155.165 602.85 155.6 599.855 155.6C598.164 155.6 596.521 155.455 595.024 155.213C593.526 154.972 592.125 154.634 590.869 154.247C588.067 153.426 585.942 151.687 584.541 149.078C583.14 146.421 582.415 143.329 582.415 139.803V115.648C582.415 112.749 582.898 110.237 583.913 108.063C584.927 105.89 586.28 104.102 588.019 102.653C589.758 101.204 591.787 100.092 594.106 99.3678C596.425 98.6432 598.888 98.2567 601.545 98.2567L601.497 98.2084ZM617.198 115.6C617.198 112.653 616.666 110.237 615.652 108.402C614.589 106.566 613.333 105.165 611.739 104.15C610.193 103.136 608.55 102.46 606.763 102.073C605.024 101.687 603.43 101.493 602.029 101.493C600.338 101.493 598.55 101.687 596.666 102.121C594.831 102.508 593.14 103.233 591.594 104.295C590.048 105.358 588.792 106.759 587.826 108.595C586.811 110.431 586.328 112.749 586.328 115.551V128.353L617.149 126.228V115.551L617.198 115.6Z" fill="#231F20"/>
<path d="M276.146 238.953H272.698V171.835L268.116 171.632V168.833H276.146V238.913V238.953Z" fill="#231F20"/>
<path d="M287.907 192.234V196.168C289.529 195.438 291.232 194.708 293.057 194.018C294.598 193.45 296.342 192.923 298.289 192.477C300.235 192.031 302.182 191.788 304.169 191.788C309.887 191.788 313.902 193.126 316.133 195.762C318.363 198.398 319.499 202.575 319.499 208.253V238.994H316.133V206.469C316.133 203.792 315.727 201.683 314.916 200.101C314.105 198.56 313.051 197.384 311.794 196.614C310.536 195.843 309.076 195.357 307.495 195.154C305.913 194.951 304.331 194.87 302.79 194.87C301.249 194.87 299.708 195.113 297.964 195.559C296.261 196.046 294.639 196.533 293.138 197.1C291.394 197.79 289.691 198.52 287.988 199.25L288.069 238.953H284.622V192.234H287.907Z" fill="#231F20"/>
<path d="M342.21 214.215C345.698 214.945 348.537 215.796 350.767 216.729C352.957 217.662 354.701 218.676 355.958 219.811C357.216 220.947 358.067 222.123 358.513 223.421C359 224.718 359.203 226.097 359.203 227.598C359.203 229.301 358.919 230.883 358.392 232.383C357.865 233.884 356.972 235.182 355.715 236.317C354.458 237.453 352.836 238.345 350.767 238.994C348.699 239.643 346.185 239.967 343.184 239.967C340.182 239.967 337.79 239.643 335.762 239.034C333.734 238.426 332.031 237.574 330.652 236.52C329.273 235.466 328.219 234.249 327.529 232.829C326.84 231.41 326.353 229.91 326.191 228.287H329.476C329.719 229.91 330.287 231.248 331.098 232.343C331.95 233.438 332.964 234.33 334.221 235.019C335.478 235.709 336.857 236.196 338.398 236.52C339.939 236.844 341.521 237.007 343.224 237.007C344.603 237.007 346.022 236.844 347.482 236.601C348.942 236.317 350.281 235.831 351.538 235.141C352.795 234.452 353.809 233.519 354.62 232.343C355.431 231.167 355.837 229.666 355.837 227.841C355.837 226.219 355.512 224.881 354.863 223.786C354.215 222.691 353.282 221.758 352.065 221.028C350.848 220.298 349.348 219.609 347.523 219.081C345.698 218.514 343.711 217.986 341.44 217.5C338.641 216.891 336.33 216.08 334.505 215.107C332.68 214.134 331.26 213.079 330.165 211.984C329.07 210.849 328.34 209.632 327.935 208.334C327.529 207.036 327.326 205.698 327.326 204.319C327.326 202.94 327.57 201.44 328.056 199.939C328.543 198.439 329.395 197.1 330.611 195.924C331.828 194.748 333.41 193.775 335.437 193.045C337.425 192.315 339.939 191.909 343.021 191.909C346.104 191.909 348.253 192.153 349.713 192.639C351.173 193.126 352.187 193.532 352.755 193.856L351.619 196.573C350.686 196.249 349.753 195.965 348.821 195.721C347.929 195.519 347.036 195.357 346.063 195.154C345.09 194.951 344.076 194.87 343.021 194.87C341.277 194.87 339.655 195.073 338.155 195.478C336.654 195.884 335.356 196.452 334.221 197.222C333.085 197.952 332.193 198.925 331.544 200.061C330.895 201.196 330.571 202.535 330.571 204.035C330.571 205.658 330.814 207.036 331.301 208.131C331.788 209.267 332.518 210.2 333.491 210.97C334.464 211.741 335.681 212.39 337.141 212.876C338.601 213.363 340.264 213.85 342.129 214.296L342.21 214.215Z" fill="#231F20"/>
<path d="M368.206 195.438V227.111C368.206 229.463 368.652 231.572 369.544 233.438C370.437 235.303 372.018 236.642 374.249 237.493C374.127 237.818 374.005 238.102 373.884 238.345C373.762 238.588 373.681 238.872 373.6 239.197C373.519 239.521 373.438 239.805 373.316 240.048C370.396 239.237 368.247 237.656 366.908 235.344C365.57 232.992 364.88 230.193 364.799 226.868C364.799 218.473 364.799 211.335 364.84 205.455C364.84 199.615 364.921 194.627 364.921 190.612C364.921 186.556 365.002 183.231 365.043 180.594C365.124 177.958 365.124 175.647 365.124 173.578H368.125V192.274H380.291V195.438H368.125H368.206Z" fill="#231F20"/>
<path d="M386.212 175.606C386.212 174.917 386.415 174.349 386.861 173.862C387.307 173.376 387.875 173.173 388.565 173.173C389.254 173.173 389.822 173.416 390.308 173.862C390.795 174.308 390.998 174.917 390.998 175.606C390.998 176.296 390.755 176.863 390.308 177.309C389.862 177.756 389.254 177.958 388.565 177.958C387.875 177.958 387.307 177.756 386.861 177.309C386.415 176.863 386.212 176.296 386.212 175.606ZM386.861 238.953V192.234H390.227V238.953H386.861Z" fill="#231F20"/>
<path d="M401.948 195.438V227.111C401.948 229.463 402.394 231.572 403.286 233.438C404.178 235.303 405.76 236.642 407.99 237.493C407.869 237.818 407.747 238.102 407.625 238.345C407.504 238.588 407.423 238.872 407.341 239.197C407.26 239.521 407.179 239.805 407.058 240.048C404.138 239.237 401.988 237.656 400.65 235.344C399.312 232.992 398.622 230.193 398.541 226.868C398.541 218.473 398.541 211.335 398.582 205.455C398.582 199.615 398.663 194.627 398.663 190.612C398.663 186.556 398.744 183.231 398.784 180.594C398.865 177.958 398.865 175.647 398.865 173.578H401.867V192.274H414.033V195.438H401.867H401.948Z" fill="#231F20"/>
<path d="M452.115 238.953L451.547 234.573C449.722 236.885 447.654 238.345 445.302 238.953C442.949 239.562 440.435 239.886 437.84 239.886C426.322 239.886 420.563 234.168 420.563 222.691V192.234H423.848L424.051 223.907C424.051 226.26 424.375 228.287 425.065 229.95C425.754 231.613 426.687 232.951 427.903 234.006C429.12 235.06 430.58 235.831 432.283 236.277C433.987 236.763 435.852 236.966 437.84 236.966C441.814 236.966 445.058 235.952 447.573 233.965C450.047 231.978 451.344 228.612 451.385 223.867L451.669 192.193H454.832V238.913H452.115V238.953Z" fill="#231F20"/>
<path d="M465.011 195.438V227.111C465.011 229.463 465.457 231.572 466.349 233.438C467.241 235.303 468.823 236.642 471.053 237.493C470.932 237.818 470.81 238.102 470.688 238.345C470.567 238.588 470.486 238.872 470.404 239.197C470.323 239.521 470.242 239.805 470.121 240.048C467.201 239.237 465.051 237.656 463.713 235.344C462.375 232.992 461.685 230.193 461.604 226.868C461.604 218.473 461.604 211.335 461.645 205.455C461.645 199.615 461.726 194.627 461.726 190.612C461.726 186.556 461.807 183.231 461.847 180.594C461.928 177.958 461.928 175.647 461.928 173.578H464.93V192.274H477.096V195.438H464.93H465.011Z" fill="#231F20"/>
<path d="M497.739 191.788C502.971 191.788 507.026 193.085 509.946 195.64C512.866 198.195 514.286 202.454 514.286 208.456V217.986L485.045 220.136V226.665C485.045 228.855 485.329 230.599 485.937 231.937C486.546 233.276 487.357 234.33 488.371 235.06C489.385 235.79 490.642 236.317 492.061 236.561C493.481 236.804 495.062 236.926 496.725 236.926C498.834 236.926 501.105 236.642 503.457 236.074C505.81 235.506 508.162 234.654 510.473 233.478C510.798 234.046 511.001 234.452 511.122 234.695L511.69 235.831C509.5 237.007 507.026 237.98 504.268 238.791C501.511 239.602 498.875 239.967 496.36 239.967C494.941 239.967 493.562 239.846 492.305 239.643C491.047 239.44 489.871 239.156 488.817 238.832C486.465 238.142 484.68 236.682 483.504 234.492C482.328 232.262 481.72 229.666 481.72 226.706V206.428C481.72 203.995 482.125 201.886 482.977 200.061C483.829 198.236 484.964 196.735 486.424 195.519C487.884 194.302 489.587 193.369 491.534 192.761C493.481 192.153 495.549 191.828 497.78 191.828L497.739 191.788ZM510.919 206.388C510.919 203.914 510.473 201.886 509.622 200.345C508.729 198.804 507.675 197.628 506.337 196.776C505.039 195.924 503.66 195.357 502.16 195.032C500.7 194.708 499.361 194.545 498.185 194.545C496.766 194.545 495.265 194.708 493.684 195.073C492.142 195.397 490.723 196.005 489.425 196.898C488.127 197.79 487.073 198.966 486.262 200.507C485.41 202.048 485.005 203.995 485.005 206.347V217.094L510.879 215.31V206.347L510.919 206.388Z" fill="#231F20"/>
<path d="M87.1496 128.177C87.1496 128.177 68.7438 109.336 100.145 72.7661C131.497 36.196 112.995 12.4279 100.676 0.109083C99.6133 -0.953719 102.222 5.32647 71.9322 37.7419C41.594 70.1574 54.1544 112.476 87.1979 128.177H87.1496ZM72.8017 139.578C36.2317 108.225 12.4636 126.727 0.14473 139.046C-0.918072 140.109 5.36212 137.5 37.7776 167.79C70.193 198.128 112.56 185.568 128.212 152.525C128.212 152.525 109.372 170.93 72.8017 139.529V139.578ZM200.338 72.911C167.923 42.5728 125.604 55.1332 109.903 88.1767C109.903 88.1767 128.744 69.7709 165.314 101.172C201.884 132.525 225.652 114.022 237.971 101.703C239.034 100.64 232.753 103.249 200.338 72.9593V72.911ZM151.836 110.544C151.836 110.544 170.241 129.384 138.84 165.954C107.488 202.525 125.99 226.293 138.309 238.612C139.372 239.674 136.763 233.394 167.053 200.979C197.391 168.563 184.831 126.244 151.787 110.544H151.836Z" fill="#7AC143"/>
<g style="mix-blend-mode:multiply" opacity="0.41">
<path d="M100.096 72.7661C131.449 36.196 112.947 12.4279 100.628 0.109083C99.5649 -0.953719 112.319 26.8724 95.4103 62.8627C88.3089 77.9352 69.1301 101.413 85.2171 125.568C81.4973 119.24 75.5069 101.462 100.096 72.7661ZM85.2171 125.568C86.2316 127.307 87.1012 128.177 87.1012 128.177C86.4248 127.307 85.7968 126.438 85.2171 125.568ZM72.705 139.626C36.135 108.273 12.3669 126.776 0.0480098 139.095C-1.01479 140.157 26.8113 127.404 62.8016 144.312C77.8741 151.413 101.352 170.592 125.507 154.457C119.178 158.177 101.401 164.167 72.705 139.578V139.626ZM125.507 154.505C127.246 153.491 128.164 152.621 128.164 152.621C127.294 153.297 126.425 153.926 125.507 154.505ZM175.265 96.4859C160.193 89.3844 136.715 70.2057 112.56 86.341C118.889 82.6212 136.666 76.6308 165.362 101.22C201.932 132.573 225.7 114.07 238.019 101.752C239.082 100.689 211.256 113.442 175.265 96.5342V96.4859ZM112.56 86.341C110.821 87.3555 109.903 88.225 109.903 88.225C110.773 87.5487 111.642 86.9207 112.56 86.341ZM153.671 113.297C152.657 111.558 151.787 110.689 151.787 110.689C152.463 111.558 153.091 112.428 153.671 113.297ZM138.792 166.099C107.439 202.718 125.942 226.438 138.261 238.756C139.323 239.819 126.57 211.993 143.478 176.051C150.579 160.979 169.758 137.5 153.623 113.346C157.343 119.674 163.333 137.452 138.744 166.148L138.792 166.099Z" fill="#00642D"/>
</g>
<g style="mix-blend-mode:multiply" opacity="0.66">
<path d="M87.1496 128.177C87.1496 128.177 68.7438 109.384 100.145 72.7661C131.497 36.196 112.995 12.4279 100.676 0.109083C99.6134 -0.953719 102.222 5.32647 71.9322 37.7419C41.594 70.1574 54.1544 112.476 87.1979 128.177" fill="url(#paint0_radial_409_45)"/>
<path d="M128.164 152.573C128.164 152.573 109.323 170.979 72.7534 139.578C36.1833 108.225 12.4152 126.727 0.0963904 139.046C-0.966411 140.109 5.31378 137.5 37.7292 167.79C70.1447 198.128 112.512 185.568 128.164 152.525" fill="url(#paint1_radial_409_45)"/>
<path d="M109.903 88.1767C109.903 88.1767 128.744 69.7709 165.314 101.172C201.884 132.525 225.652 114.022 237.971 101.703C239.034 100.64 232.754 103.249 200.338 72.9593C167.923 42.6212 125.604 55.1815 109.903 88.225" fill="url(#paint2_radial_409_45)"/>
<path d="M151.787 110.592C151.787 110.592 170.193 129.433 138.792 166.003C107.44 202.573 125.942 226.341 138.261 238.66C139.324 239.723 136.715 233.442 167.005 201.027C197.343 168.611 184.783 126.293 151.739 110.592" fill="url(#paint3_radial_409_45)"/>
</g>
</g>
<defs>
<radialGradient id="paint0_radial_409_45" cx="0" cy="0" r="1" gradientUnits="userSpaceOnUse" gradientTransform="translate(86.0385 64.1188) scale(50.4831 50.4831)">
<stop offset="0.2" stop-color="white"/>
<stop offset="0.26" stop-color="#F6F9F7"/>
<stop offset="0.35" stop-color="#DFEBE4"/>
<stop offset="0.48" stop-color="#B8D4C5"/>
<stop offset="0.62" stop-color="#84B499"/>
<stop offset="0.77" stop-color="#418B62"/>
<stop offset="0.91" stop-color="#00642D"/>
</radialGradient>
<radialGradient id="paint1_radial_409_45" cx="0" cy="0" r="1" gradientUnits="userSpaceOnUse" gradientTransform="translate(64.1061 153.684) scale(50.4831 50.4831)">
<stop offset="0.2" stop-color="white"/>
<stop offset="0.26" stop-color="#F6F9F7"/>
<stop offset="0.35" stop-color="#DFEBE4"/>
<stop offset="0.48" stop-color="#B8D4C5"/>
<stop offset="0.62" stop-color="#84B499"/>
<stop offset="0.77" stop-color="#418B62"/>
<stop offset="0.91" stop-color="#00642D"/>
</radialGradient>
<radialGradient id="paint2_radial_409_45" cx="0" cy="0" r="1" gradientUnits="userSpaceOnUse" gradientTransform="translate(173.961 87.0656) scale(50.4831 50.4831)">
<stop offset="0.2" stop-color="white"/>
<stop offset="0.26" stop-color="#F6F9F7"/>
<stop offset="0.35" stop-color="#DFEBE4"/>
<stop offset="0.48" stop-color="#B8D4C5"/>
<stop offset="0.62" stop-color="#84B499"/>
<stop offset="0.77" stop-color="#418B62"/>
<stop offset="0.91" stop-color="#00642D"/>
</radialGradient>
<radialGradient id="paint3_radial_409_45" cx="0" cy="0" r="1" gradientUnits="userSpaceOnUse" gradientTransform="translate(152.899 174.698) scale(50.4831 50.4831)">
<stop offset="0.2" stop-color="white"/>
<stop offset="0.26" stop-color="#F6F9F7"/>
<stop offset="0.35" stop-color="#DFEBE4"/>
<stop offset="0.48" stop-color="#B8D4C5"/>
<stop offset="0.62" stop-color="#84B499"/>
<stop offset="0.77" stop-color="#418B62"/>
<stop offset="0.91" stop-color="#00642D"/>
</radialGradient>
<clipPath id="clip0_409_45">
<rect width="621.208" height="240" fill="white"/>
</clipPath>
</defs>
</svg>
