<svg xmlns="http://www.w3.org/2000/svg" xmlns:xlink="http://www.w3.org/1999/xlink" viewBox="0 0 590.1 143.73"><defs><style>.cls-1{isolation:isolate;}.cls-2{fill:#7ac143;}.cls-3{fill:#00642d;opacity:0.41;}.cls-3,.cls-4{mix-blend-mode:multiply;}.cls-4{opacity:0.66;}.cls-5{fill:url(#radial-gradient);}.cls-6{fill:url(#radial-gradient-2);}.cls-7{fill:url(#radial-gradient-3);}.cls-8{fill:url(#radial-gradient-4);}.cls-9{fill:#231f20;}</style><radialGradient id="radial-gradient" cx="72.6" cy="43.65" r="30.38" gradientUnits="userSpaceOnUse"><stop offset="0.2" stop-color="#fff"/><stop offset="0.26" stop-color="#f6faf8"/><stop offset="0.35" stop-color="#dfece5"/><stop offset="0.48" stop-color="#b9d4c5"/><stop offset="0.62" stop-color="#84b49a"/><stop offset="0.77" stop-color="#418c63"/><stop offset="0.91" stop-color="#00642d"/></radialGradient><radialGradient id="radial-gradient-2" cx="59.4" cy="97.58" r="30.38" xlink:href="#radial-gradient"/><radialGradient id="radial-gradient-3" cx="125.55" cy="57.49" r="30.38" xlink:href="#radial-gradient"/><radialGradient id="radial-gradient-4" cx="112.87" cy="110.22" r="30.38" xlink:href="#radial-gradient"/></defs><g class="cls-1"><g id="_Layer_" data-name="&lt;Layer&gt;"><path class="cls-2" d="M73.27,82.23S62.21,70.91,81.09,48.88s7.73-36.32.31-43.75c-.63-.62.95,3.15-17.31,22.66S53.4,72.79,73.27,82.23ZM64.62,89.1c-22-18.88-36.32-7.74-43.74-.31-.63.62,3.15-1,22.66,17.3s45,10.7,54.44-9.18C98,96.91,86.65,108,64.62,89.1ZM141.41,49c-19.51-18.26-45-10.7-54.44,9.18,0,0,11.33-11.07,33.36,7.81s36.32,7.74,43.74.32C164.7,65.66,160.92,67.23,141.41,49ZM112.2,71.64S123.27,83,104.38,105s-7.74,36.32-.31,43.74c.63.63-.94-3.15,17.31-22.66S132.08,81.08,112.2,71.64Z" transform="translate(-20.82 -5.07)"/><path class="cls-3" d="M81.09,48.85c18.88-22,7.73-36.32.31-43.74-.63-.63,7,16.1-3.14,37.76C74,52,62.43,66.08,72.13,80.63,69.89,76.81,66.29,66.12,81.09,48.85Zm-9,31.78a8.89,8.89,0,0,0,1.14,1.58C72.86,81.68,72.49,81.15,72.13,80.63ZM64.6,89.1c-22-18.88-36.32-7.74-43.74-.31-.63.62,16.1-7,37.76,3.14,9.08,4.27,23.2,15.83,37.75,6.12C92.56,100.3,81.87,103.9,64.6,89.1Zm31.77,9A8.78,8.78,0,0,0,98,96.91Q97.17,97.53,96.37,98.05Zm30-34.91c-9.09-4.27-23.2-15.83-37.76-6.12,3.82-2.25,14.51-5.85,31.78,8.95,22,18.88,36.32,7.74,43.74.32C164.72,65.66,148,73.31,126.33,63.14ZM88.57,57A8.89,8.89,0,0,0,87,58.16C87.52,57.75,88.05,57.37,88.57,57Zm24.76,16.23a8.51,8.51,0,0,0-1.13-1.59C112.61,72.19,113,72.72,113.33,73.25Zm-9,31.77c-18.88,22-7.74,36.32-.31,43.74.63.63-7-16.1,3.14-37.76,4.27-9.08,15.83-23.2,6.12-37.75C115.58,77.07,119.18,87.76,104.38,105Z" transform="translate(-20.82 -5.07)"/><g class="cls-4"><path class="cls-5" d="M73.27,82.23S62.21,70.91,81.09,48.88s7.73-36.32.31-43.75c-.63-.62.95,3.15-17.31,22.66s-10.69,45,9.18,54.44" transform="translate(-20.82 -5.07)"/><path class="cls-6" d="M98,96.91S86.65,108,64.62,89.1s-36.32-7.74-43.74-.31c-.63.62,3.15-1,22.66,17.3s45,10.7,54.44-9.18" transform="translate(-20.82 -5.07)"/><path class="cls-7" d="M87,58.16S98.3,47.09,120.33,66s36.32,7.74,43.74.32c.63-.63-3.15.94-22.66-17.31s-45-10.7-54.44,9.18" transform="translate(-20.82 -5.07)"/><path class="cls-8" d="M112.2,71.64S123.27,83,104.38,105s-7.74,36.32-.31,43.74c.63.63-.94-3.15,17.31-22.66s10.7-45-9.18-54.44" transform="translate(-20.82 -5.07)"/></g><path class="cls-9" d="M241.51,28.08a3.19,3.19,0,0,0-2.46,1,3.57,3.57,0,0,0-1,2.52A3.27,3.27,0,0,0,241.51,35a3.54,3.54,0,0,0,2.53-1,3.21,3.21,0,0,0,1-2.46,3.43,3.43,0,0,0-1-2.52A3.39,3.39,0,0,0,241.51,28.08ZM215.43,70.82a20.46,20.46,0,0,0,5.26-4.92A22.38,22.38,0,0,0,223.76,60a28.43,28.43,0,0,0,1.44-6.48c.22-2.23.34-4.54.34-6.9q0-12.43-6.35-18.64t-16.73-6.22H173V124.22h30.73q8.06,0,13-2.6a20.3,20.3,0,0,0,7.65-6.69,23.81,23.81,0,0,0,3.62-9.08,55.82,55.82,0,0,0,.89-9.77q0-10.36-4-16.59A22.8,22.8,0,0,0,215.43,70.82ZM178,26.44h23.36a30.13,30.13,0,0,1,7.1.82,14.28,14.28,0,0,1,6.07,3.07,16,16,0,0,1,4.31,6.14,26.66,26.66,0,0,1,1.63,10.18,37.14,37.14,0,0,1-1.29,10.65,17.6,17.6,0,0,1-3.69,6.83,12.75,12.75,0,0,1-5.81,3.62,26.06,26.06,0,0,1-7.5,1H178Zm44.32,80.91a19,19,0,0,1-4,7.51,14.13,14.13,0,0,1-6.42,4,28.91,28.91,0,0,1-8.47,1.16H178V73.69l27.86.13a16.74,16.74,0,0,1,6.42,1.3,16.93,16.93,0,0,1,5.74,4A20.55,20.55,0,0,1,222.19,86a26.79,26.79,0,0,1,1.57,9.56A41.45,41.45,0,0,1,222.33,107.35Zm59.33-52.1a29.14,29.14,0,0,0-11.2,2,21.41,21.41,0,0,0-7.92,5.53,22.41,22.41,0,0,0-4.63,8.54,37.68,37.68,0,0,0-1.51,11v18.16q0,11.74,6.21,18.44t19.05,6.69q13.38,0,19.06-6.41t5.67-18.72V82.29q0-12.56-5.95-19.8T281.66,55.25Zm19.81,46.57a26.29,26.29,0,0,1-1.44,9.35,14.28,14.28,0,0,1-4.1,6,15.62,15.62,0,0,1-6.28,3.21,33.27,33.27,0,0,1-16.11-.06,16.25,16.25,0,0,1-6.49-3.42,15.84,15.84,0,0,1-4.23-6.08,23.94,23.94,0,0,1-1.51-9V80.93a24.58,24.58,0,0,1,1.85-10.11,19.11,19.11,0,0,1,4.71-6.62,17.25,17.25,0,0,1,6.48-3.62,25.16,25.16,0,0,1,7.31-1.1,24.1,24.1,0,0,1,7.11,1.1,16.63,16.63,0,0,1,6.34,3.62,18.86,18.86,0,0,1,4.58,6.62,25.49,25.49,0,0,1,1.78,10.11Zm-62.42,22.4H244V55.93h-4.92ZM610.92,93.49V79.56q0-13.11-6.35-18.71t-17.82-5.6a30.05,30.05,0,0,0-9.16,1.36,22.31,22.31,0,0,0-7.44,4,18.7,18.7,0,0,0-5,6.62,21.8,21.8,0,0,0-1.84,9.28v29.64a23.8,23.8,0,0,0,2.59,11.4,12.46,12.46,0,0,0,7.79,6.35,46.72,46.72,0,0,0,5.11,1.17,36.3,36.3,0,0,0,5.94.47,42.71,42.71,0,0,0,11.55-1.71,52,52,0,0,0,10.85-4.3l-.81-1.64-1-1.77A44.72,44.72,0,0,1,595.08,120a42.78,42.78,0,0,1-9.84,1.23,40.51,40.51,0,0,1-6.83-.54,12.84,12.84,0,0,1-5.39-2.19,10.92,10.92,0,0,1-3.55-4.57,19.41,19.41,0,0,1-1.3-7.72V96.63ZM568.17,76.55A17.55,17.55,0,0,1,570,68a15,15,0,0,1,4.64-5.26,17.74,17.74,0,0,1,6.21-2.66,30.58,30.58,0,0,1,6.56-.75,27.84,27.84,0,0,1,5.8.68,18.23,18.23,0,0,1,6.08,2.53,14.74,14.74,0,0,1,4.78,5.19,17.72,17.72,0,0,1,1.91,8.8V89.66l-37.83,2.6ZM548.92,96.22a27.07,27.07,0,0,0-7.58-4.5A70.8,70.8,0,0,0,528.85,88q-4.11-1-7.31-2a17.28,17.28,0,0,1-5.33-2.8A11.1,11.1,0,0,1,513,79a14.72,14.72,0,0,1-1.09-6,11.53,11.53,0,0,1,1.43-5.81A12.28,12.28,0,0,1,517.23,63,19.16,19.16,0,0,1,523,60.51a27.18,27.18,0,0,1,7.1-.89,23.57,23.57,0,0,1,4.44.41l4,.82c1.36.37,2.73.78,4.09,1.23l1.65-4a31.14,31.14,0,0,0-4.45-1.78,32.64,32.64,0,0,0-9.76-1.09A31.9,31.9,0,0,0,519,56.89a20.09,20.09,0,0,0-7,4.23A14.52,14.52,0,0,0,508.22,67a20.13,20.13,0,0,0-1.09,6.42,19.53,19.53,0,0,0,.89,5.87,13.19,13.19,0,0,0,3.27,5.32,25.74,25.74,0,0,0,6.35,4.58,40.37,40.37,0,0,0,10.11,3.48c3.28.73,6.23,1.5,8.88,2.32a29.14,29.14,0,0,1,6.62,2.87,12.08,12.08,0,0,1,4.1,4,13,13,0,0,1-.34,12.49,13,13,0,0,1-4.51,4.1,20.22,20.22,0,0,1-5.94,2.12,33.07,33.07,0,0,1-6.22.61,34.79,34.79,0,0,1-7-.68,21.13,21.13,0,0,1-6.08-2.19,14.46,14.46,0,0,1-4.57-3.89,12.73,12.73,0,0,1-2.39-5.94h-4.78a19.06,19.06,0,0,0,2,6.62,15.91,15.91,0,0,0,4.58,5.4,23.12,23.12,0,0,0,7.44,3.69,37.3,37.3,0,0,0,10.85,1.36,36.72,36.72,0,0,0,11.06-1.43,19.64,19.64,0,0,0,7.25-3.89,14,14,0,0,0,3.89-5.74,20.79,20.79,0,0,0,1.16-7,17.36,17.36,0,0,0-1-6.08A13.26,13.26,0,0,0,548.92,96.22ZM368,80.72a51.51,51.51,0,0,0-10.11-6.28q-5.81-2.81-12.49-5.53-6.29-2.46-11.07-4.71a39.48,39.48,0,0,1-8.05-4.92,17.89,17.89,0,0,1-4.92-6,17.7,17.7,0,0,1-1.64-7.85,16.12,16.12,0,0,1,2.05-7.92,19.27,19.27,0,0,1,5.6-6.28,28.05,28.05,0,0,1,8.47-4.1,35.79,35.79,0,0,1,10.51-1.5,46.18,46.18,0,0,1,7,.47,41.63,41.63,0,0,1,5.39,1.17,33,33,0,0,1,4.78,1.63,12.73,12.73,0,0,1,.68-2.18c.19-.55.34-1,.48-1.44a3.53,3.53,0,0,0,.21-.74A55.47,55.47,0,0,0,357.12,22a47.34,47.34,0,0,0-11-1,40.91,40.91,0,0,0-13.73,2.12,30.93,30.93,0,0,0-9.9,5.53,23.2,23.2,0,0,0-6,7.79,20.65,20.65,0,0,0-2.06,8.87,22.67,22.67,0,0,0,6.56,16q6.56,7,22.26,12.56a106.39,106.39,0,0,1,13.32,5.74,44.72,44.72,0,0,1,8.81,5.94,19,19,0,0,1,4.91,6.62,19.67,19.67,0,0,1,1.5,7.79,18.67,18.67,0,0,1-2.31,9.56,19.21,19.21,0,0,1-6.09,6.42,26.93,26.93,0,0,1-8.6,3.62,42,42,0,0,1-9.76,1.16,48.59,48.59,0,0,1-9.84-1,28.4,28.4,0,0,1-8.19-2.94,19.24,19.24,0,0,1-5.87-4.91,13.15,13.15,0,0,1-2.73-7h-4.91a20.32,20.32,0,0,0,2.45,8,20.86,20.86,0,0,0,5.8,6.63A29.34,29.34,0,0,0,331.3,124a49.42,49.42,0,0,0,13.86,1.71,42.49,42.49,0,0,0,14.69-2.25,29,29,0,0,0,10-5.94,22.07,22.07,0,0,0,5.67-8.54,28.77,28.77,0,0,0,1.78-10,21,21,0,0,0-2.46-10.32A27,27,0,0,0,368,80.72ZM472.58,55.25a36.15,36.15,0,0,0-8.61,1,72.89,72.89,0,0,0-7.64,2.25c-2.64,1-5.15,2-7.51,3.14V55.93H444v68.29h5.06l-.14-58c2.46-1.1,5-2.14,7.51-3.14,2.19-.82,4.53-1.58,7-2.26a27,27,0,0,1,7-1,57.64,57.64,0,0,1,6.9.41,15.2,15.2,0,0,1,6.27,2.11,12.59,12.59,0,0,1,4.58,5.13,20.31,20.31,0,0,1,1.78,9.28v47.53H495V79.29q0-12.44-4.91-18.24T472.58,55.25Zm-65.55,0a29.94,29.94,0,0,0-9.15,1.36,22.26,22.26,0,0,0-7.45,4,18.7,18.7,0,0,0-5.05,6.62,21.8,21.8,0,0,0-1.84,9.28v29.64a23.8,23.8,0,0,0,2.59,11.4,12.44,12.44,0,0,0,7.79,6.35,45.87,45.87,0,0,0,5.12,1.17,36.12,36.12,0,0,0,5.94.47,42.69,42.69,0,0,0,11.54-1.71,52.1,52.1,0,0,0,10.86-4.3c-.37-.72-.64-1.27-.82-1.64s-.5-1-1-1.77A44.72,44.72,0,0,1,415.36,120a42.72,42.72,0,0,1-9.84,1.23,40.51,40.51,0,0,1-6.83-.54,12.84,12.84,0,0,1-5.39-2.19,11,11,0,0,1-3.55-4.57,19.24,19.24,0,0,1-1.3-7.72V96.63l42.75-3.14V79.56q0-13.11-6.35-18.71T407,55.25Zm19.25,34.41-37.83,2.6V76.55A17.55,17.55,0,0,1,390.3,68a15.09,15.09,0,0,1,4.64-5.26,17.74,17.74,0,0,1,6.21-2.66,30.58,30.58,0,0,1,6.56-.75,27.84,27.84,0,0,1,5.8.68,18.23,18.23,0,0,1,6.08,2.53,14.74,14.74,0,0,1,4.78,5.19,17.61,17.61,0,0,1,1.91,8.8Z" transform="translate(-20.82 -5.07)"/><path class="cls-9" d="M489.74,24.86V43.65h-2.59V24.86Z" transform="translate(-20.82 -5.07)"/><path class="cls-9" d="M494.28,43.65V24.86h2.84l6.44,9.51a52.07,52.07,0,0,1,3.62,6.1l.06,0c-.24-2.51-.3-4.8-.3-7.73V24.86h2.44V43.65h-2.62l-6.39-9.53a59.48,59.48,0,0,1-3.76-6.28l-.09,0c.15,2.37.21,4.63.21,7.75v8Z" transform="translate(-20.82 -5.07)"/><path class="cls-9" d="M513.57,40.7a9.64,9.64,0,0,0,4.65,1.22c2.66,0,4.21-1.31,4.21-3.2S521.36,36,518.64,35c-3.28-1.09-5.31-2.67-5.31-5.32,0-2.93,2.59-5.11,6.5-5.11a9.71,9.71,0,0,1,4.45.92l-.71,2a8.53,8.53,0,0,0-3.82-.89c-2.75,0-3.8,1.54-3.8,2.82,0,1.75,1.23,2.62,4,3.62,3.41,1.23,5.14,2.76,5.14,5.52s-2.3,5.41-7.05,5.41a10.93,10.93,0,0,1-5.13-1.2Z" transform="translate(-20.82 -5.07)"/><path class="cls-9" d="M532.46,26.92h-6.12V24.86h14.9v2.06h-6.15V43.65h-2.63Z" transform="translate(-20.82 -5.07)"/><path class="cls-9" d="M546.07,24.86V43.65h-2.59V24.86Z" transform="translate(-20.82 -5.07)"/><path class="cls-9" d="M554.43,26.92h-6.12V24.86h14.9v2.06h-6.15V43.65h-2.63Z" transform="translate(-20.82 -5.07)"/><path class="cls-9" d="M568,24.86V36c0,4.21,2,6,4.69,6,3,0,4.9-1.84,4.9-6V24.86h2.62v11c0,5.77-3.25,8.14-7.61,8.14-4.12,0-7.22-2.2-7.22-8V24.86Z" transform="translate(-20.82 -5.07)"/><path class="cls-9" d="M588.58,26.92h-6.12V24.86h14.9v2.06h-6.15V43.65h-2.63Z" transform="translate(-20.82 -5.07)"/><path class="cls-9" d="M610,34.84h-7.82v6.78h8.72v2H599.6V24.86h10.86v2h-8.27v5.94H610Z" transform="translate(-20.82 -5.07)"/></g></g></svg>