<svg id="Layer_1" data-name="Layer 1" xmlns="http://www.w3.org/2000/svg" viewBox="0 0 1548.51 895.92"><defs><style>.cls-1{fill:#0e145a;}.cls-2{fill:#8c8f94;}</style></defs><path class="cls-1" d="M96.89,746.62,0,495.16H60.7l69.74,193,69.75-193h60.7L164,746.62Z"/><path class="cls-1" d="M331.42,746.62V495.16H385V746.62Z"/><path class="cls-1" d="M624,746.62l-49.38-89.35H535.4v89.35H481.86V495.16H599.49c52.4,0,84.82,34.31,84.82,81.05,0,44.12-28.27,68.24-55.42,74.65l56.93,95.76Zm5.28-170.78c0-20.74-16.21-33.56-37.32-33.56H535.4v67.86H592C613.06,610.14,629.27,597.33,629.27,575.84Z"/><path class="cls-1" d="M825.72,746.62V542.28H752.21V495.16H952.77v47.12H879.64V746.62Z"/><path class="cls-1" d="M1034.24,646V495.16h54.29V644.45c0,35.06,20.35,59.19,59.18,59.19s58.82-24.13,58.82-59.19V495.16h54.66V646c0,62.21-36.94,105.19-113.48,105.19S1034.24,708.17,1034.24,646Z"/><path class="cls-1" d="M1340.78,711.18l29.41-41.84a110.49,110.49,0,0,0,79.92,34.3c29.79,0,43.73-13.19,43.73-27.89,0-43.74-144.77-13.2-144.77-107.83,0-41.85,36.2-76.53,95.39-76.53,40,0,73.14,12.06,98,35.06l-29.79,40c-20.35-18.85-47.5-27.52-73.13-27.52-22.63,0-35.44,9.8-35.44,24.88,0,39.59,144.39,12.82,144.39,106.7,0,46-33.18,80.68-100.66,80.68C1399.22,751.15,1364.53,734.93,1340.78,711.18Z"/><polygon class="cls-2" points="693.14 118.91 743.97 195.53 608.74 394.27 510.57 394.27 693.14 118.91"/><polygon class="cls-1" points="772.2 0 1037.94 394.27 940.97 394.27 721.74 76.76 772.2 0"/><path class="cls-2" d="M36.64,835.82H63.11c14.72,0,20.31,9.29,20.31,18.83s-5.59,18.82-20.31,18.82H49.55v21H36.64Zm12.91,27.63h10c5.92,0,11.34-1.32,11.34-8.8s-5.42-8.8-11.34-8.8h-10Z"/><path class="cls-2" d="M255.41,835.82h13.23l21.95,58.7h-13.4l-4.44-13.07H250.8l-4.6,13.07H233.12Zm-1.24,36h15.21L262,850.29h-.16Z"/><path class="cls-2" d="M443.57,835.82h31.66c10.52,0,17.17,7.32,17.17,16.2,0,6.9-2.71,12.08-9.28,14.71v.17c6.33,1.72,8.14,7.72,8.54,13.72.26,3.71.09,10.69,2.47,13.9h-12.9c-1.48-3.7-1.4-9.37-2.06-14.06-.91-6.16-3.29-8.87-9.78-8.87H456.48v22.93H443.57Zm12.91,26.56h14.14c5.84,0,8.88-2.47,8.88-8.39,0-5.68-3-8.14-8.88-8.14H456.48Z"/><path class="cls-2" d="M663.81,846.67h-17.6V835.82h48.1v10.85h-17.6v47.85h-12.9Z"/><path class="cls-2" d="M848.94,835.82h12.83l24.5,39.38h.16V835.82h12.08v58.7h-12.9l-24.42-39.3H861v39.3H848.94Z"/><path class="cls-2" d="M1057.75,835.82h43.9v10.85h-31v12.58h28.44v10h-28.44v14.39h31.65v10.85h-44.56Z"/><path class="cls-2" d="M1258.91,835.82h31.66c10.52,0,17.18,7.32,17.18,16.2,0,6.9-2.72,12.08-9.29,14.71v.17c6.33,1.72,8.14,7.72,8.55,13.72.25,3.71.08,10.69,2.47,13.9h-12.91c-1.48-3.7-1.4-9.37-2.06-14.06-.9-6.16-3.29-8.87-9.78-8.87h-12.91v22.93h-12.91Zm12.91,26.56H1286c5.84,0,8.88-2.47,8.88-8.39,0-5.68-3-8.14-8.88-8.14h-14.14Z"/><path class="cls-2" d="M1475,875c0,7.81,6.08,10.85,13,10.85,4.53,0,11.43-1.32,11.43-7.32,0-6.41-8.88-7.31-17.43-9.7-8.71-2.14-17.5-5.84-17.5-16.69,0-12.08,11.34-17.76,22-17.76,12.24,0,23.51,5.35,23.51,18.91h-12.5c-.41-7-5.34-8.88-11.59-8.88-4.11,0-8.88,1.73-8.88,6.66,0,4.53,2.8,5.18,17.51,8.88,4.36,1,17.43,3.87,17.43,17.1,0,10.77-8.38,18.83-24.41,18.83-13,0-25.24-6.42-25-20.88Z"/></svg>