<svg xmlns="http://www.w3.org/2000/svg" xmlns:xlink="http://www.w3.org/1999/xlink" version="1.1" x="0px" y="0px" viewBox="0 0 96 120" style="enable-background:new 0 0 96 96;" xml:space="preserve"><style type="text/css">
	.st0{fill-rule:evenodd;clip-rule:evenodd;}
</style><path class="st0" d="M43.111,54.001c0,0.678-0.55,1.228-1.228,1.228H22.759c-0.678,0-1.229-0.55-1.229-1.228  c0-0.678,0.551-1.228,1.229-1.228h19.124C42.562,52.773,43.111,53.323,43.111,54.001L43.111,54.001z M43.111,44.94  c0,0.678-0.55,1.228-1.228,1.228H22.759c-0.678,0-1.229-0.55-1.229-1.228c0-0.678,0.551-1.228,1.229-1.228h19.124  C42.562,43.712,43.111,44.262,43.111,44.94L43.111,44.94z M78.353,26.819c0,0.678-0.551,1.228-1.228,1.228H50.912  c-0.678,0-1.229-0.551-1.229-1.228c0-0.68,0.551-1.229,1.229-1.229h26.213C77.802,25.591,78.353,26.139,78.353,26.819L78.353,26.819  z M78.353,17.758c0,0.678-0.551,1.228-1.228,1.228H50.912c-0.678,0-1.229-0.55-1.229-1.228c0-0.678,0.551-1.228,1.229-1.228h26.213  C77.802,16.529,78.353,17.08,78.353,17.758L78.353,17.758z M78.353,35.878c0,0.68-0.551,1.229-1.228,1.229H35.136  c-0.678,0-1.229-0.549-1.229-1.229c0-0.678,0.551-1.228,1.229-1.228h41.989C77.802,34.65,78.353,35.201,78.353,35.878L78.353,35.878  z M85.605,59.255V12.502c0-1.421-1.157-2.578-2.58-2.578H49.261L33.64,25.545l4.235-1.487c0.643-0.224,1.341,0.113,1.566,0.753  c0.226,0.64-0.111,1.341-0.751,1.566l-8.766,3.075l-3.076,8.767c-0.179,0.506-0.652,0.822-1.16,0.822  c-0.833,0-1.442-0.832-1.159-1.636l1.487-4.235l-15.62,15.62v10.465c0,1.421,1.155,2.579,2.577,2.579h35.094  c-1.893-10.567,6.233-20.286,16.952-20.286c10.737,0,18.85,9.752,16.952,20.286h1.055C84.448,61.834,85.605,60.676,85.605,59.255  L85.605,59.255z M65.019,73.541c-8.142,0-14.769-6.625-14.769-14.767c0-8.143,6.627-14.769,14.769-14.769  c8.143,0,14.767,6.626,14.767,14.769C79.786,66.916,73.162,73.541,65.019,73.541L65.019,73.541z M78.888,80.052l-4.101-7.101  c-2.245,1.551-4.874,2.584-7.714,2.923l4.764,8.249l1.172-4.374c0.175-0.655,0.85-1.045,1.505-0.868L78.888,80.052L78.888,80.052z   M58.199,84.123l4.763-8.249c-2.838-0.339-5.467-1.373-7.712-2.923l-4.102,7.101l4.375-1.171c0.655-0.177,1.328,0.213,1.504,0.868  L58.199,84.123L58.199,84.123z M26.621,28.396c-2.05,1.061-4.948,2.293-7.371,2.709c-5.069,0.87-5.643-3.011-2.178-4.379  C20.626,25.323,23.355,26.296,26.621,28.396L26.621,28.396z M31.574,18.78c-0.415,2.422-1.647,5.321-2.707,7.371  c-2.021-3.144-3.107-5.914-1.67-9.55C28.565,13.136,32.444,13.711,31.574,18.78L31.574,18.78z M12.973,9.925  c-1.422,0-2.577,1.156-2.577,2.578v32.813l12.72-12.72c-1.137,0.399-2.314,0.735-3.451,0.93c-8.111,1.39-9.578-6.683-3.495-9.084  c3.503-1.384,6.39-0.909,9.141,0.399c-1.308-2.751-1.783-5.637-0.401-9.142c2.399-6.076,10.476-4.621,9.086,3.495  c-0.195,1.136-0.531,2.314-0.93,3.451l12.72-12.72H12.973L12.973,9.925z M83.025,7.468H12.973c-2.776,0-5.034,2.258-5.034,5.034  v46.753c0,2.777,2.258,5.036,5.034,5.036h35.728c0.928,2.742,2.534,5.175,4.61,7.105l-5.771,9.998  c-0.546,0.942,0.329,2.082,1.381,1.8l6.052-1.621l1.622,6.051c0.282,1.057,1.706,1.238,2.25,0.296l6.174-10.694l6.175,10.694  c0.544,0.944,1.966,0.759,2.25-0.296l1.622-6.051l6.05,1.621c1.053,0.283,1.928-0.857,1.383-1.8l-5.773-9.998  c2.078-1.929,3.681-4.363,4.612-7.105h1.688c2.778,0,5.036-2.258,5.036-5.036V12.502C88.061,9.726,85.803,7.468,83.025,7.468z" fill="#c7cb50"/></svg>