<svg xmlns="http://www.w3.org/2000/svg" xmlns:xlink="http://www.w3.org/1999/xlink" xmlns:xodm="http://www.corel.com/coreldraw/odm/2003" xml:space="preserve" version="1.1" style="shape-rendering:geometricPrecision;text-rendering:geometricPrecision;image-rendering:optimizeQuality;" viewBox="0 0 846.66 1058.325" x="0px" y="0px" fill-rule="evenodd" clip-rule="evenodd"><defs><style type="text/css">
   
    .fil0 {fill:#c7cb50}
   
  </style></defs><g><path class="fil0" d="M464.98 221.98c10.65,-10.7 17.25,-25.43 17.25,-41.7 0,-32.53 -26.37,-58.9 -58.9,-58.9 -32.53,0 -58.9,26.37 -58.9,58.9 0,16.27 6.6,31 17.25,41.65 22.94,23.07 60.45,22.9 83.3,0.05zm0 393.39c10.65,-10.7 17.25,-25.43 17.25,-41.7 0,-32.53 -26.37,-58.89 -58.9,-58.89 -32.53,0 -58.9,26.36 -58.9,58.89 0,16.27 6.6,31 17.25,41.66 22.94,23.07 60.45,22.89 83.3,0.04zm25.61 5.64c36.99,7.56 64.16,40.47 64.16,78.49l0 37.43c0,6.44 -5.22,11.67 -11.66,11.67l-239.51 0c-6.44,0 -11.67,-5.23 -11.67,-11.67l0 -37.43c0,-38.02 27.18,-70.94 64.19,-78.49 -9.45,-13.38 -15.01,-29.72 -15.01,-47.34 0,-45.41 36.83,-82.23 82.24,-82.23 45.41,0 82.24,36.82 82.24,82.23 0,17.62 -5.55,33.95 -14.98,47.34zm-111.9 21.73c-34.48,0 -63.44,19.7 -63.44,56.76l0 25.76 216.17 0 0 -25.76c0,-37.07 -28.97,-56.76 -63.45,-56.76 -26.94,17.4 -62.26,17.72 -89.28,0zm-174.23 -182.15c10.65,-10.7 17.25,-25.44 17.25,-41.7 0,-32.53 -26.37,-58.9 -58.9,-58.9 -32.53,0 -58.9,26.37 -58.9,58.9 0,16.26 6.6,31 17.25,41.65 22.94,23.07 60.45,22.89 83.3,0.05zm521.03 0c10.66,-10.7 17.26,-25.44 17.26,-41.7 0,-32.53 -26.38,-58.9 -58.9,-58.9 -32.53,0 -58.9,26.37 -58.9,58.9 0,16.26 6.59,31 17.25,41.65 22.93,23.07 60.44,22.89 83.29,0.05zm25.61 5.63c36.99,7.56 64.17,40.47 64.17,78.5l0 37.42c0,6.45 -5.23,11.67 -11.67,11.67l-239.5 0c-6.45,0 -11.67,-5.22 -11.67,-11.67l0 -37.42c0,-38.03 27.18,-70.95 64.18,-78.5 -9.45,-13.38 -15,-29.71 -15,-47.33 0,-45.42 36.82,-82.24 82.24,-82.24 45.41,0 82.23,36.82 82.23,82.24 0,17.61 -5.54,33.95 -14.98,47.33zm-111.89 21.74c-34.48,0 -63.44,19.69 -63.44,56.76l0 25.75 216.16 0 0 -25.75c0,-37.07 -28.97,-56.76 -63.44,-56.76 -26.94,17.39 -62.26,17.72 -89.28,0zm-409.15 -21.74c37,7.56 64.17,40.47 64.17,78.5l0 37.42c0,6.45 -5.22,11.67 -11.67,11.67l-239.5 0c-6.44,0 -11.67,-5.22 -11.67,-11.67l0 -37.42c0,-38.03 27.18,-70.95 64.19,-78.5 -9.46,-13.38 -15.01,-29.71 -15.01,-47.33 0,-45.42 36.83,-82.24 82.24,-82.24 45.41,0 82.24,36.82 82.24,82.24 0,17.61 -5.55,33.95 -14.99,47.33zm-111.89 21.74c-34.48,0 -63.44,19.69 -63.44,56.76l0 25.75 216.16 0 0 -25.75c0,-37.07 -28.96,-56.76 -63.44,-56.76 -26.94,17.39 -62.26,17.72 -89.28,0zm438.73 -185.32c23.43,19.22 42.55,43.48 55.8,70.74 -6.05,9.43 -10.28,20.16 -12.18,31.66 -9.11,-26.83 -24.15,-50.94 -43.54,-70.74l0 -28.19c0,-1.16 -0.03,-2.32 -0.08,-3.47zm31.26 293.4c-14.9,18.75 -32.9,34.86 -53.2,47.6 -5.64,-6.1 -12.22,-11.36 -19.5,-15.55 14.75,-8.36 28.26,-18.66 40.16,-30.57l2.7 -2.74c5.18,2.36 23.36,1.26 29.84,1.26zm-276.45 47.6c-20.31,-12.74 -38.31,-28.84 -53.21,-47.6 6.48,0 24.68,1.1 29.85,-1.26 12.98,13.26 26.63,24.13 42.84,33.32 -7.28,4.19 -13.84,9.44 -19.48,15.54zm-77.75 -270.26c13.26,-27.3 32.37,-51.49 55.8,-70.75 -0.46,10.3 -0.07,21.29 -0.07,31.67 -19.4,19.8 -34.44,43.9 -43.55,70.75 -1.9,-11.51 -6.13,-22.23 -12.18,-31.67zm256.63 -145.76c36.99,7.56 64.16,40.46 64.16,78.49l0 37.43c0,6.44 -5.22,11.67 -11.66,11.67l-239.51 0c-6.44,0 -11.67,-5.23 -11.67,-11.67l0 -37.43c0,-38.03 27.18,-70.94 64.19,-78.49 -9.45,-13.38 -15.01,-29.72 -15.01,-47.34 0,-45.41 36.83,-82.23 82.24,-82.23 45.41,0 82.24,36.82 82.24,82.23 0,17.61 -5.55,33.95 -14.98,47.34zm-111.9 21.73c-34.48,0 -63.44,19.7 -63.44,56.76l0 25.76 216.17 0 0 -25.76c0,-37.07 -28.97,-56.76 -63.45,-56.76 -26.94,17.4 -62.26,17.72 -89.28,0z"/></g></svg>