<svg id="Layer_1" data-name="Layer 1" xmlns="http://www.w3.org/2000/svg" viewBox="0 0 78.05 47.66"><defs><style>.cls-1{fill:#c7cb4f;}</style></defs><path id="Path_1" data-name="Path 1" class="cls-1" d="M21.05,41H2.47C.8,41,.1,40.57.06,39.54s.67-1.46,2.35-1.46H16.6c3,0,2.95,0,3.32-2.93a10.74,10.74,0,0,0-1.09-5.63c-.27-.63-.72-.95-1.24-.35a5.4,5.4,0,0,1-4.46,2.2,8.74,8.74,0,0,1-5.25-2.26A9.63,9.63,0,0,1,4.63,24.5c-.16-.52-.4-1-.58-1.54a4.75,4.75,0,0,0-2.86-3.13c-1.5-.6-1.59-1.58-.24-2.45A13.74,13.74,0,0,1,16.89,18,7.23,7.23,0,0,1,19.57,25a1.64,1.64,0,0,0,.2,1.26c.59.93,1.16,1.87,1.75,2.8.18.27.37.65.75.51s.28-.57.22-.88a7.21,7.21,0,0,1,0-3.69,9.78,9.78,0,0,1,7.38-6.24,14.62,14.62,0,0,1,10.64,1.47,3.85,3.85,0,0,1,.74.47c.93.76.94,1.81-.16,2.15-2.17.67-2.74,2.38-3.4,4.21a10.88,10.88,0,0,1-6.53,7.25,5.59,5.59,0,0,1-6.22-1.51c-.83-.82-1.08-.79-1.5.28a16.69,16.69,0,0,0-.86,3.63c-.13.92.19,1.28,1.21,1.28,5.45,0,10.91,0,16.37.09a2.85,2.85,0,0,1,.87.11,1.22,1.22,0,0,1,1,1.11,1.38,1.38,0,0,1-.76,1.36,3.22,3.22,0,0,1-1.7.35H21.05ZM8.7,18.11a14.77,14.77,0,0,0-3,.28c-.42.07-.9.22-.52.76a24.3,24.3,0,0,1,2.16,5A7.28,7.28,0,0,0,11,28a3.75,3.75,0,0,0,4.29-.6c.65-.52.72-.95-.12-1.37a25.2,25.2,0,0,0-2.64-1.08c-.63-.22-1.13-.65-.92-1.4a1.38,1.38,0,0,1,1.58-1.13h.06a8.77,8.77,0,0,1,2,.63c.47.2,1.06.84,1.44.36s-.2-1.07-.47-1.58a3.28,3.28,0,0,0-.31-.45A8.58,8.58,0,0,0,8.7,18.11m16.46,8.82,3.12-1.38a1.22,1.22,0,0,1,1.25.08c1.15.74,1.18,1.77,0,2.51-.81.49-1.72.81-2.57,1.24-.45.22-.84.54-.38,1.11a3.49,3.49,0,0,0,3.5,1,7.64,7.64,0,0,0,4.69-4.65,14.08,14.08,0,0,1,2.08-4.33c.4-.48.11-.73-.38-.81a20,20,0,0,0-2.17-.35,9.36,9.36,0,0,0-7.65,2.57,4,4,0,0,0-1.47,3"/><path id="Path_2" data-name="Path 2" class="cls-1" d="M60.26,47.62c-5.24,0-10.48,0-15.73,0-2.75,0-3.28-.67-2.12-3.15a23.22,23.22,0,0,0,2.12-11.29c-.21-4.42-.05-8.87-.05-13.3,0-1.57.59-2.17,2.11-2.13,8.92.2,17.82,0,26.72.08,2.17,0,2.49.31,2.49,2.47,0,6,0,12,0,17.93a12.63,12.63,0,0,0,1.44,4.68,10.12,10.12,0,0,1,.85,3.28c0,1-.36,1.48-1.4,1.47-2,0-3.89,0-5.83,0H60.26v0m0-26.87h0c-3.85,0-7.69,0-11.54,0-.94,0-1.27.28-1.27,1.26,0,4.84,0,9.67,0,14.5,0,1.54,0,1.56,1.51,1.56H69.39c.76,0,1.53-.14,2.29-.12,1,0,1.21-.46,1.2-1.36q0-7.25,0-14.49c0-1-.35-1.35-1.34-1.34-3.77,0-7.54,0-11.32,0m-.17,23.94v0H71.8c3.36,0,3.31.45,1.88-3a1.27,1.27,0,0,0-1.38-.81c-7.58,0-15.16.16-22.73,0-2.87-.05-2.68-.16-3.68,2.4-.51,1.32-.47,1.38,1,1.38H60.05"/><path id="Path_3" data-name="Path 3" class="cls-1" d="M41.65,0A17.42,17.42,0,0,1,53.41,4.87c.91.82,1,1.44.28,2.15a1.46,1.46,0,0,1-2,.26A1.44,1.44,0,0,1,51.37,7a14.56,14.56,0,0,0-19.94-.24,6,6,0,0,1-.89.63,1.27,1.27,0,0,1-1.77-.29,1.37,1.37,0,0,1-.05-1.9A6.93,6.93,0,0,1,30,4,19,19,0,0,1,41.65,0"/><path id="Path_4" data-name="Path 4" class="cls-1" d="M41.27,5.3a12.62,12.62,0,0,1,8.21,3.3,3.05,3.05,0,0,1,.58.66A1.33,1.33,0,0,1,49.82,11a1.21,1.21,0,0,1-1.7.21l-.06-.05a14.25,14.25,0,0,0-3.6-2.28,9.07,9.07,0,0,0-9.25,1.74c-.42.33-.78.82-1.41.74a1.86,1.86,0,0,1-1.47-1c-.3-.61.11-1,.5-1.44A12.09,12.09,0,0,1,41.27,5.3"/><path id="Path_5" data-name="Path 5" class="cls-1" d="M11.64,44.69H17a2.22,2.22,0,0,1,1.63.54A1.22,1.22,0,0,1,18.82,47a1.29,1.29,0,0,1-.48.36,4,4,0,0,1-1.71.32h-10a5.32,5.32,0,0,1-1.2-.13c-.63-.15-1.22-.45-1.26-1.19a1.53,1.53,0,0,1,1.11-1.46,3.42,3.42,0,0,1,1.52-.17h4.83Z"/><path id="Path_6" data-name="Path 6" class="cls-1" d="M46.7,14a1.4,1.4,0,0,1-1.36,1.43,1.45,1.45,0,0,1-.89-.3,5.8,5.8,0,0,0-2.25-1.31,4.42,4.42,0,0,0-3.53.81c-.94.68-1.76.54-2.27-.28s0-1.51.67-2a6.67,6.67,0,0,1,9.07.53A1.54,1.54,0,0,1,46.71,14"/><path id="Path_7" data-name="Path 7" class="cls-1" d="M29.23,44.7H32a2.09,2.09,0,0,1,1.51.54,1.12,1.12,0,0,1,.35,1.57,1.1,1.1,0,0,1-.69.5,3.79,3.79,0,0,1-1.38.29c-1.75,0-3.51,0-5.26,0-1.34,0-2.16-.63-2.12-1.44s.91-1.48,2.22-1.5h2.63Z"/></svg>