<svg xmlns="http://www.w3.org/2000/svg" xmlns:xlink="http://www.w3.org/1999/xlink" width="40" height="40" viewBox="0 0 40 40">
  <defs>
    <clipPath id="clip-path">
      <rect id="Rectangle_1" data-name="Rectangle 1" width="35" height="21.366" fill="#c7cb50"/>
    </clipPath>
    <clipPath id="clip-icon1">
      <rect width="40" height="40"/>
    </clipPath>
  </defs>
  <g id="icon1" clip-path="url(#clip-icon1)">
    <g id="Group_2" data-name="Group 2" transform="translate(2.5 9.317)">
      <g id="Group_1" data-name="Group 1" transform="translate(0 0)" clip-path="url(#clip-path)">
        <path id="Path_1" data-name="Path 1" d="M9.439,28.78q-4.167,0-8.334,0c-.747,0-1.062-.195-1.079-.656s.3-.655,1.055-.656c2.12,0,4.241,0,6.362,0,1.355,0,1.325-.01,1.487-1.312a4.8,4.8,0,0,0-.487-2.526c-.12-.283-.324-.425-.555-.154a2.43,2.43,0,0,1-2,.985,3.923,3.923,0,0,1-2.356-1.013,4.33,4.33,0,0,1-1.455-2.069c-.075-.234-.182-.459-.26-.692a2.131,2.131,0,0,0-1.283-1.4c-.672-.272-.714-.708-.108-1.1a6.166,6.166,0,0,1,7.148.256,3.242,3.242,0,0,1,1.2,3.162.741.741,0,0,0,.091.566c.266.415.522.836.786,1.252.078.123.163.291.334.229s.127-.255.1-.392a3.193,3.193,0,0,1,0-1.655,4.384,4.384,0,0,1,3.31-2.8,6.562,6.562,0,0,1,4.769.658,1.8,1.8,0,0,1,.332.212c.417.342.424.812-.069.963-.975.3-1.231,1.067-1.526,1.89a4.864,4.864,0,0,1-2.928,3.249,2.5,2.5,0,0,1-2.789-.677c-.373-.366-.485-.354-.672.128a7.207,7.207,0,0,0-.387,1.626c-.058.413.083.575.541.574,2.447-.007,4.895.021,7.342.04a1.48,1.48,0,0,1,.39.049.55.55,0,0,1,.47.5.626.626,0,0,1-.339.611,1.482,1.482,0,0,1-.762.155q-4.168,0-8.335,0ZM3.9,18.516a6.494,6.494,0,0,0-1.325.123c-.19.034-.406.1-.233.343a11.082,11.082,0,0,1,.967,2.255A3.249,3.249,0,0,0,4.947,22.93a1.672,1.672,0,0,0,1.92-.268c.292-.234.324-.425-.053-.616a10.816,10.816,0,0,0-1.183-.482c-.281-.1-.506-.292-.41-.629a.613.613,0,0,1,.732-.5,3.872,3.872,0,0,1,.888.282c.212.087.477.375.649.162.159-.2-.09-.482-.212-.71a1.676,1.676,0,0,0-.138-.2A3.854,3.854,0,0,0,3.9,18.516m7.381,3.954,1.4-.618a.549.549,0,0,1,.561.033c.513.333.527.795-.011,1.126-.361.222-.772.362-1.151.556-.2.1-.378.241-.169.5a1.571,1.571,0,0,0,1.57.43,3.429,3.429,0,0,0,2.1-2.084,6.4,6.4,0,0,1,.933-1.944c.181-.214.052-.326-.17-.365a9.277,9.277,0,0,0-.972-.154A4.193,4.193,0,0,0,11.941,21.1a1.778,1.778,0,0,0-.659,1.367" transform="translate(0 -10.393)" fill="#c7cb50"/>
        <path id="Path_2" data-name="Path 2" d="M55.793,33.556c-2.351,0-4.7.006-7.054,0-1.233,0-1.472-.3-.948-1.412a10.421,10.421,0,0,0,.947-5.062c-.09-1.986-.022-3.978-.02-5.968,0-.7.266-.97.945-.955,4,.092,7.99.019,11.985.038.972,0,1.116.137,1.115,1.107,0,2.681.008,5.361-.019,8.041a5.6,5.6,0,0,0,.647,2.1,4.513,4.513,0,0,1,.379,1.469c.017.462-.161.665-.628.658-.871-.014-1.743-.005-2.614-.005H55.793v-.006M55.779,21.51v0c-1.725,0-3.449.008-5.174-.006-.42,0-.571.128-.567.569.02,2.168.009,4.336.007,6.5,0,.689.006.7.676.7q4.583,0,9.165,0c.344,0,.688-.061,1.031-.052.447.011.54-.208.537-.611q-.023-3.252,0-6.5c0-.457-.157-.605-.6-.6-1.692.016-3.384.006-5.076.006M55.7,32.249v-.011q2.635,0,5.269,0c1.505,0,1.483.2.843-1.329a.568.568,0,0,0-.619-.362c-3.4.019-6.8.071-10.193.005-1.285-.025-1.2-.071-1.648,1.076-.231.589-.213.62.439.62H55.7" transform="translate(-28.772 -12.201)" fill="#c7cb50"/>
        <path id="Path_3" data-name="Path 3" d="M38.184,0a7.827,7.827,0,0,1,5.273,2.182c.41.371.427.646.124.967a.653.653,0,0,1-1.037-.008,6.528,6.528,0,0,0-8.944-.11,2.724,2.724,0,0,1-.4.285.57.57,0,0,1-.793-.133.617.617,0,0,1-.022-.853,3.149,3.149,0,0,1,.566-.545A8.506,8.506,0,0,1,38.184,0" transform="translate(-19.507 0)" fill="#c7cb50"/>
        <path id="Path_4" data-name="Path 4" d="M40.67,6.018A5.681,5.681,0,0,1,44.352,7.5a1.468,1.468,0,0,1,.26.294.6.6,0,0,1-.106.8.543.543,0,0,1-.79.071A6.464,6.464,0,0,0,42.1,7.642a4.07,4.07,0,0,0-4.148.78c-.189.151-.349.367-.631.332a.82.82,0,0,1-.658-.463c-.136-.274.046-.474.222-.649A5.445,5.445,0,0,1,40.67,6.018" transform="translate(-22.164 -3.643)" fill="#c7cb50"/>
        <path id="Path_5" data-name="Path 5" d="M8.092,50.772c.8,0,1.608,0,2.412,0a1,1,0,0,1,.729.241.55.55,0,0,1-.139.933,1.7,1.7,0,0,1-.767.143c-1.493,0-2.987.006-4.48,0a2.42,2.42,0,0,1-.536-.056c-.285-.066-.547-.2-.566-.532s.216-.53.5-.658a1.62,1.62,0,0,1,.68-.077q1.083,0,2.166,0Z" transform="translate(-2.872 -30.732)" fill="#c7cb50"/>
        <path id="Path_6" data-name="Path 6" d="M45.812,13.658a.625.625,0,0,1-1.009.509,2.632,2.632,0,0,0-1.01-.59,1.986,1.986,0,0,0-1.582.366c-.424.306-.79.243-1.02-.127-.257-.413-.009-.676.3-.912a2.987,2.987,0,0,1,4.067.236.7.7,0,0,1,.259.518" transform="translate(-24.87 -7.395)" fill="#c7cb50"/>
        <path id="Path_7" data-name="Path 7" d="M29.873,50.774H31.1a.964.964,0,0,1,.677.242.513.513,0,0,1-.151.931,1.759,1.759,0,0,1-.62.131c-.786.017-1.573.023-2.359.007-.6-.012-.968-.283-.95-.645.02-.4.406-.663.993-.671.393-.006.787,0,1.18,0Z" transform="translate(-16.768 -30.731)" fill="#c7cb50"/>
      </g>
    </g>
  </g>
</svg>
