<?xml version="1.0" encoding="UTF-8"?>
<svg id="Layer_1" data-name="Layer 1" xmlns="http://www.w3.org/2000/svg" viewBox="0 0 122.07 88.45">
  <defs>
    <style>
      .cls-1, .cls-2 {
        fill: #fff;
      }

      .cls-3, .cls-2 {
        fill-rule: evenodd;
      }

      .cls-3, .cls-4 {
        fill: #c7cb50;
      }
    </style>
  </defs>
  <g>
    <g>
      <path class="cls-2" d="m42.73,10.16c1.09,0,2.01,1.24,2.07,2.76s-.78,2.76-1.87,2.76-2.01-1.24-2.07-2.76c-.06-1.53.78-2.76,1.87-2.76Z"/>
      <path class="cls-2" d="m49.51,17.64c.71.88.39,2.47-.72,3.55s-2.59,1.25-3.3.37-.39-2.47.72-3.55c1.11-1.08,2.59-1.25,3.3-.37Z"/>
      <path class="cls-2" d="m49.51,27.31c.71.88.39,2.47-.72,3.55-1.11,1.08-2.59,1.25-3.3.37s-.39-2.47.72-3.55c1.11-1.08,2.59-1.24,3.3-.37Z"/>
      <path class="cls-2" d="m36.06,17.64c-.71.88-.39,2.47.72,3.55s2.59,1.25,3.3.37.39-2.47-.72-3.55-2.58-1.25-3.3-.37Z"/>
      <path class="cls-2" d="m36.06,27.31c-.71.88-.39,2.47.72,3.55,1.11,1.08,2.59,1.25,3.3.37s.39-2.47-.72-3.55-2.58-1.24-3.3-.37Z"/>
      <path class="cls-1" d="m42.96,15.89c-1.87,0-3.48-2.24-3.57-4.99-.06-1.67.45-3.21,1.34-4.14.55-.57,1.2-.86,1.9-.86,1.87,0,3.48,2.24,3.57,4.99.06,1.66-.45,3.21-1.35,4.14-.55.56-1.2.86-1.89.86Zm-.33-9.5c-.56,0-1.09.25-1.54.71-.81.83-1.26,2.25-1.2,3.78.08,2.49,1.46,4.51,3.07,4.51.55,0,1.08-.25,1.53-.71.81-.84,1.26-2.25,1.21-3.78-.08-2.49-1.46-4.51-3.07-4.51Z"/>
      <path class="cls-2" d="m40.18,8.02c.75,2.53,1.47,5.04,2.26,7.57l.52.06c-.9-2.69-1.66-5.02-2.78-7.63Z"/>
      <path class="cls-2" d="m44.68,7.24c-.83,3.78-1.35,6.42-1.74,8.34l-.52.06c.81-3.18,1.25-5.7,2.26-8.4Z"/>
      <path class="cls-2" d="m42.61,6.14c-.21,3-.15,6.43-.16,9.43l.45.07c-.05-3.18.06-6.24-.29-9.5Z"/>
      <path class="cls-1" d="m47.48,22.67c-.07,0-.14,0-.21-.01-.81-.05-1.48-.38-1.94-.95-1.22-1.51-.58-4.31,1.42-6.25,1.19-1.16,2.68-1.8,3.96-1.73.81.05,1.48.38,1.94.95h0c1.22,1.51.58,4.31-1.42,6.25-1.13,1.1-2.51,1.74-3.75,1.74Zm3.02-8.44c-1.1,0-2.36.59-3.4,1.6-1.82,1.76-2.44,4.26-1.38,5.57.37.46.92.72,1.58.76,1.14.07,2.48-.53,3.58-1.59,1.82-1.76,2.44-4.26,1.38-5.57h0c-.37-.46-.92-.72-1.58-.76-.06-.01-.12-.01-.18-.01Z"/>
      <path class="cls-2" d="m49.44,14.13c-1.4,2.32-2.82,4.61-4.2,6.96l.29.46c1.43-2.54,2.69-4.74,3.91-7.42Z"/>
      <path class="cls-2" d="m52.98,17.24c-3.38,1.9-5.71,3.27-7.41,4.26l-.39-.37c2.93-1.51,5.11-2.88,7.8-3.89Z"/>
      <path class="cls-2" d="m52.45,14.82c-2.39,1.87-4.93,4.25-7.19,6.28l.24.42c2.36-2.21,4.73-4.2,6.95-6.7Z"/>
      <path class="cls-1" d="m47.48,32.34c-.07,0-.14,0-.21,0-.81-.05-1.48-.38-1.94-.95-1.22-1.51-.58-4.31,1.42-6.25,1.19-1.16,2.68-1.8,3.96-1.73.81.05,1.48.38,1.94.95h0c1.22,1.51.58,4.31-1.42,6.25-1.13,1.1-2.51,1.74-3.75,1.74Zm3.02-8.44c-1.1,0-2.36.59-3.4,1.6-1.82,1.76-2.44,4.26-1.38,5.57.37.46.92.72,1.58.76,1.14.06,2.48-.53,3.58-1.59,1.82-1.76,2.44-4.26,1.38-5.57h0c-.37-.46-.92-.72-1.58-.76-.06,0-.12,0-.18,0Z"/>
      <path class="cls-2" d="m49.44,23.81c-1.4,2.32-2.82,4.61-4.2,6.96l.29.46c1.43-2.55,2.69-4.75,3.91-7.42Z"/>
      <path class="cls-2" d="m52.98,26.92c-3.38,1.9-5.71,3.27-7.41,4.26l-.39-.37c2.93-1.52,5.11-2.89,7.8-3.89Z"/>
      <path class="cls-2" d="m52.45,24.5c-2.39,1.87-4.93,4.25-7.19,6.28l.24.42c2.36-2.22,4.73-4.21,6.95-6.7Z"/>
      <path class="cls-1" d="m38.1,22.67c-1.23,0-2.62-.64-3.75-1.74-2-1.94-2.64-4.74-1.42-6.25.46-.57,1.13-.9,1.93-.95,1.28-.08,2.76.57,3.96,1.73,2,1.94,2.64,4.74,1.42,6.25-.46.57-1.13.9-1.94.95-.07.01-.13.01-.2.01Zm-3.03-8.44c-.06,0-.12,0-.18.01-.66.04-1.21.3-1.58.76h0c-1.06,1.31-.44,3.81,1.38,5.57,1.1,1.07,2.42,1.66,3.58,1.6.66-.04,1.21-.3,1.58-.76,1.06-1.31.44-3.81-1.38-5.57-1.04-1.02-2.3-1.61-3.4-1.61Z"/>
      <path class="cls-2" d="m36.13,14.13c1.4,2.32,2.82,4.61,4.2,6.96l-.29.46c-1.43-2.54-2.69-4.74-3.91-7.42Z"/>
      <path class="cls-2" d="m32.6,17.24c3.38,1.9,5.71,3.27,7.41,4.26l.39-.37c-2.94-1.51-5.12-2.88-7.8-3.89Z"/>
      <path class="cls-2" d="m33.13,14.82c2.39,1.87,4.93,4.25,7.19,6.28l-.24.42c-2.37-2.21-4.74-4.2-6.95-6.7Z"/>
      <path class="cls-1" d="m38.1,32.34c-1.23,0-2.62-.64-3.75-1.74-2-1.94-2.64-4.74-1.42-6.25.46-.57,1.13-.9,1.93-.95,1.28-.07,2.76.57,3.96,1.73,2,1.94,2.64,4.74,1.42,6.25-.46.57-1.13.9-1.94.95-.07.01-.13.01-.2.01Zm-3.03-8.44c-.06,0-.12,0-.18.01-.66.04-1.21.3-1.58.76h0c-1.06,1.31-.44,3.81,1.38,5.57,1.1,1.07,2.42,1.66,3.58,1.6.66-.04,1.21-.3,1.58-.76,1.06-1.31.44-3.81-1.38-5.57-1.04-1.02-2.3-1.61-3.4-1.61Z"/>
      <path class="cls-2" d="m36.13,23.81c1.4,2.32,2.82,4.61,4.2,6.96l-.29.46c-1.43-2.55-2.69-4.75-3.91-7.42Z"/>
      <path class="cls-2" d="m32.6,26.92c3.38,1.9,5.71,3.27,7.41,4.26l.39-.37c-2.94-1.52-5.12-2.89-7.8-3.89Z"/>
      <path class="cls-2" d="m33.13,24.5c2.39,1.87,4.93,4.25,7.19,6.28l-.24.42c-2.37-2.22-4.74-4.21-6.95-6.7Z"/>
      <rect class="cls-1" x="42.34" y="15.61" width=".6" height="24.63"/>
      <rect class="cls-1" x="41.11" y="20.8" width=".6" height="3.37" transform="translate(-3.33 37.28) rotate(-46.8)"/>
      <rect class="cls-1" x="41.11" y="30.47" width=".6" height="3.37" transform="translate(-10.38 40.33) rotate(-46.8)"/>
      <rect class="cls-1" x="42.21" y="22.19" width="3.59" height=".6" transform="translate(-4.11 33.76) rotate(-40.25)"/>
      <rect class="cls-1" x="42.21" y="31.86" width="3.59" height=".6" transform="translate(-10.36 36.05) rotate(-40.25)"/>
    </g>
    <g>
      <path class="cls-1" d="m42.87,46.5c-5.96,0-11.91-2.27-16.45-6.8-4.39-4.39-6.81-10.23-6.81-16.45s2.42-12.05,6.81-16.45h0c9.07-9.07,23.83-9.07,32.89,0,9.07,9.07,9.07,23.83,0,32.89-4.52,4.54-10.48,6.81-16.44,6.81ZM27.49,7.86h0c-8.48,8.48-8.48,22.29,0,30.77s22.29,8.48,30.77,0,8.48-22.29,0-30.77c-8.48-8.48-22.29-8.48-30.77,0Z"/>
      <path class="cls-1" d="m42.9,43.18h-.31c-2.11-.03-4.19-.39-6.17-1.06l.42-1.23c1.85.63,3.79.97,5.77.99h.27c.49,0,.93-.02,1.39-.05l.1,1.3c-.49.03-.98.05-1.47.05Zm7.95-1.66l-.52-1.19c2.32-1.01,4.37-2.46,6.12-4.31l.95.89c-1.87,1.97-4.07,3.53-6.55,4.61Zm-20.3-2.6c-2.13-1.68-3.87-3.73-5.18-6.11l1.14-.62c1.22,2.22,2.85,4.14,4.84,5.71l-.8,1.02Zm30.55-7.58l-1.19-.53c1.02-2.31,1.56-4.77,1.6-7.31v-.27c0-2.14-.36-4.24-1.07-6.24l1.22-.44c.76,2.14,1.15,4.39,1.15,6.68v.29c-.04,2.72-.61,5.35-1.71,7.82Zm-37.91-4.85c-.17-1.07-.26-2.16-.26-3.25v-.28c.02-1.51.21-3.01.57-4.47l1.26.31c-.33,1.36-.51,2.76-.53,4.18v.27c0,1.02.08,2.04.25,3.04l-1.29.2Zm4.05-13.42l-1.09-.71c1.48-2.27,3.37-4.19,5.62-5.7l.72,1.08c-2.09,1.41-3.86,3.21-5.25,5.33Zm30.14-1.53c-1.59-1.98-3.54-3.58-5.77-4.77l.61-1.15c2.39,1.27,4.47,2.99,6.17,5.1l-1.01.82Zm-19.18-6.35l-.32-1.26c1.62-.42,3.29-.63,4.98-.63h.28c.91.01,1.83.09,2.73.22l-.19,1.29c-.84-.13-1.7-.2-2.55-.21h-.27c-1.58,0-3.14.2-4.66.59Z"/>
    </g>
  </g>
  <path class="cls-4" d="m77.38,88.45c-6.21,0-12.05-2.42-16.45-6.81-4.39-4.39-6.81-10.23-6.81-16.45s2.42-12.05,6.81-16.45h0c9.07-9.07,23.83-9.07,32.89,0,4.39,4.39,6.81,10.23,6.81,16.45s-2.42,12.05-6.81,16.45c-4.38,4.39-10.22,6.81-16.44,6.81Zm-15.38-38.65c-4.11,4.11-6.37,9.57-6.37,15.39s2.26,11.28,6.37,15.39,9.57,6.37,15.39,6.37,11.28-2.26,15.39-6.37,6.37-9.57,6.37-15.39-2.26-11.28-6.37-15.39c-8.49-8.48-22.3-8.48-30.78,0h0Z"/>
  <path class="cls-3" d="m82.43,71.63c0-1.06-.38-1.97-1.14-2.74s-2.02-1.44-3.76-2.04c-2.42-.73-4.24-1.71-5.47-2.92-1.23-1.22-1.85-2.85-1.85-4.88s.57-3.58,1.69-4.82c1.13-1.24,2.69-1.99,4.67-2.24v-3.96h2.83v3.98c2.01.29,3.57,1.15,4.67,2.58,1.11,1.43,1.66,3.35,1.66,5.75h-3.51c0-1.63-.37-2.94-1.13-3.95-.75-1-1.8-1.51-3.14-1.51-1.41,0-2.47.37-3.16,1.1-.7.73-1.05,1.74-1.05,3.02,0,1.16.36,2.09,1.08,2.81s2.03,1.39,3.92,2.04c2.45.79,4.26,1.77,5.45,2.95,1.19,1.18,1.78,2.78,1.78,4.8s-.62,3.69-1.85,4.9c-1.23,1.21-2.92,1.93-5.07,2.16v3.44h-2.81v-3.43c-2.06-.21-3.74-.97-5.05-2.26-1.32-1.29-1.95-3.18-1.9-5.66l.04-.09h3.41c0,1.84.46,3.15,1.39,3.93.92.78,2.06,1.17,3.41,1.17,1.54,0,2.74-.37,3.61-1.1.86-.72,1.28-1.73,1.28-3.03Z"/>
  <g>
    <path class="cls-1" d="m113.24,3.58h-6.86v-1.7h6.86v1.7Zm-12.48,0h-16.63v-1.7h16.63v1.7Zm-22.34,0h-6.86v-1.7h6.86v1.7Z"/>
    <path class="cls-1" d="m122.07,16.04h-6.86v-1.7h6.86v1.7Zm-12.47,0h-16.63v-1.7h16.63s0,1.7,0,1.7Zm-22.34,0h-6.86v-1.7h6.86v1.7Z"/>
    <path class="cls-1" d="m113.39,28.5h-6.86v-1.7h6.86v1.7Zm-12.48,0h-16.63v-1.7h16.63v1.7Zm-22.34,0h-6.86v-1.7h6.86v1.7Z"/>
  </g>
  <g>
    <path class="cls-4" d="m50.51,53.57h-6.86v-1.7h6.86v1.7Zm-12.57,0h-16.63v-1.7h16.63s0,1.7,0,1.7Zm-22.25,0h-6.86v-1.7h6.86v1.7Z"/>
    <path class="cls-4" d="m41.67,66.04h-6.86v-1.7h6.86v1.7Zm-12.57,0H12.47v-1.7h16.63v1.7Zm-22.25,0H0v-1.7h6.85v1.7Z"/>
    <path class="cls-4" d="m50.35,78.5h-6.85v-1.7h6.85s0,1.7,0,1.7Zm-12.57,0h-16.63v-1.7h16.63v1.7Zm-22.25,0h-6.86v-1.7h6.86v1.7Z"/>
  </g>
</svg>