<svg id="Layer_1" data-name="Layer 1" xmlns="http://www.w3.org/2000/svg" viewBox="0 0 50 50.1"><defs><style>.cls-1{fill:#c7cb50;}</style></defs><path class="cls-1" d="M64.06,25.05c.12.13.3.11.45.16a3.44,3.44,0,0,1,.4,6.39,3.36,3.36,0,0,1-3.83-.69.94.94,0,0,0-.85-.35,4.42,4.42,0,0,1-.63,0c-.44,0-.8,0-1,.55a1.3,1.3,0,0,1-1.38.8c-1.1,0-1.1,0-1.1,1.14,0,.34,0,.68,0,1s.07.48.43.45a8.68,8.68,0,0,1,1,0,1.18,1.18,0,0,1,1.23,1.23c0,.35,0,.69,0,1a1.15,1.15,0,0,0,.42,1.15.61.61,0,0,1,.05.92.67.67,0,0,1-.92.19,1.53,1.53,0,0,1-1-1.65c0-.32,0-.65,0-1s-.09-.44-.43-.43c-1.63,0-3.26,0-4.88,0-.74,0-1.47,0-2.2,0-.38,0-.48.12-.45.48s0,.84,0,1.27a1.06,1.06,0,0,1-.51,1,7.67,7.67,0,0,0-2.82,3.35,1.08,1.08,0,0,1-1.12.68q-5.55,0-11.08,0c-.77,0-.65-.09-.65.64,0,1.39,0,2.77,0,4.16,0,.38.1.49.48.49,3.7,0,7.39,0,11.09,0a1.36,1.36,0,0,1,1.39.87,8,8,0,0,0,14.43,0A1.28,1.28,0,0,1,62,48c.79,0,1.59,0,2.39,0,1,0,1.21.22,1.21,1.24,0,1.67,0,3.33,0,5,0,.39.07.54.5.54,1.45,0,2.9,0,4.34,0,.34,0,.45-.09.45-.44,0-2,0-4,0-6a5.57,5.57,0,0,0-5.51-5.58c-1.17,0-2.34,0-3.51,0A1.06,1.06,0,0,1,60.66,42c-.08-.23-.22-.44-.31-.67a.68.68,0,0,1,.34-.94.61.61,0,0,1,.91.27c.23.6.65.59,1.16.6a22.85,22.85,0,0,1,3.7.1A7,7,0,0,1,72.27,48c.07,2.08,0,4.17,0,6.26,0,.33,0,.51.42.62a1.31,1.31,0,0,1,.93,1.3c0,.59,0,1.17,0,1.76a.86.86,0,0,1-1,1l-1.51,0L71.1,59c.15.24.32.5.47.76a27.29,27.29,0,0,1,3.18,6.89c.09.34.17.69.25,1v1.47c-.09.06-.08.17-.09.26A6.77,6.77,0,0,1,70,74.91c-.3.09-.62.16-.93.24H67.38c-.43-.12-.88-.21-1.31-.35a6.73,6.73,0,0,1-4.39-8.22c.15-.55.34-1.09.53-1.63s.6-.79,1-.61.54.56.34,1.16-.4,1.1-.54,1.67a5.28,5.28,0,0,0,4.06,6.39,5.36,5.36,0,0,0,6.35-4.28,6,6,0,0,0-.35-3,31.23,31.23,0,0,0-3.65-7.05.57.57,0,0,0-.56-.29,2.91,2.91,0,0,1-.78,0,1.33,1.33,0,0,0-1.55.85c-.42.78-.91,1.54-1.37,2.31-.31.53-.7.69-1.11.44s-.46-.65-.17-1.15c.45-.79.91-1.58,1.42-2.44H63.79c-.74,0-1-.3-1-1q0-.81,0-1.62a1.41,1.41,0,0,1,1-1.43c.24-.08.3-.18.3-.4,0-1.53,0-3.07,0-4.6,0-.28-.09-.39-.36-.35h0c-1.13-.18-2.08,0-2.48,1.26A9.48,9.48,0,0,1,45,49.85a.59.59,0,0,0-.6-.37q-5.37,0-10.74,0c-.35,0-.48.07-.48.45A2,2,0,0,1,31,52.17c-.34,0-.49.06-.49.45,0,.63-.32.9-.95.91H26a.86.86,0,0,1-1-1V38.19c0-.67.32-1,1-1,1.17,0,2.34,0,3.52,0,.65,0,1,.29,1,.95,0,.37.16.41.47.41a2,2,0,0,1,2.24,2.27c0,.33.08.44.43.44q5.38,0,10.79,0a.55.55,0,0,0,.56-.34,9,9,0,0,1,2.66-3.14.64.64,0,0,0,.29-.61c0-.48,0-1,0-1.42a1.19,1.19,0,0,1,1.23-1.24c.35,0,.71,0,1.07,0s.39-.11.38-.4q0-.93,0-1.86c0-.28-.09-.37-.37-.35s-.48,0-.73,0A1.43,1.43,0,0,1,48,30.85a.36.36,0,0,0-.42-.29,3.13,3.13,0,0,1-.53,0,2,2,0,0,0-1.65.56,3.15,3.15,0,0,1-3.69.41,3.43,3.43,0,0,1,.42-6.29c.18-.07.39,0,.55-.19h1.17a3.47,3.47,0,0,1,1.53.77,1.87,1.87,0,0,0,1.77.59h.53c.11,0,.24,0,.27-.14A1.74,1.74,0,0,1,49,25.05h8.7c.31.21.76.33.86.72.17.68.63.68,1.16.64.24,0,.48,0,.72,0s.27,0,.36-.1a4.1,4.1,0,0,1,2.07-1.26ZM26.47,45.38c0,2.09,0,4.17,0,6.26,0,.35.1.45.43.43a12.36,12.36,0,0,1,1.61,0c.42,0,.56-.08.55-.53,0-2.3,0-4.6,0-6.89a2.32,2.32,0,0,1,.05-.59.65.65,0,0,1,.72-.52.65.65,0,0,1,.67.58,3.25,3.25,0,0,1,0,.54c0,1.86,0,3.72,0,5.57,0,.16-.1.37.14.47A.75.75,0,0,0,31.74,50V40.76c0-.58-.18-.7-.77-.75s-.46.34-.47.65c0,.57-.29.91-.74.9s-.71-.35-.72-.92,0-1.08,0-1.61c0-.28-.09-.38-.37-.37-.58,0-1.17,0-1.75,0-.37,0-.47.09-.46.46C26.47,41.21,26.47,43.29,26.47,45.38ZM43.24,30.44a2,2,0,0,0,2-1.92,2,2,0,1,0-3.92,0A1.94,1.94,0,0,0,43.24,30.44Zm20.24,0a2,2,0,0,0,0-3.92,2,2,0,1,0,0,3.92Zm-10.13,0a2,2,0,1,0-1.94-2A2,2,0,0,0,53.35,30.44Zm14.86,27c1.14,0,2.28,0,3.42,0,.44,0,.59-.11.56-.56,0-.77.1-.67-.68-.67H64.92c-.78,0-.7-.15-.71.73,0,0,0,0,0,.05,0,.35.11.44.44.44C65.84,57.45,67,57.46,68.21,57.46ZM54.67,33.14c-.05-.34.18-.88-.09-1.14s-.81-.08-1.22-.08-.93-.18-1.19.06-.09.81-.09,1.22-.19.95.08,1.22.81.09,1.23.09C54.67,34.52,54.67,34.52,54.67,33.14ZM50.5,30.38a3.57,3.57,0,0,1,0-3.86,3.93,3.93,0,0,1-.61,0c-.45-.08-.54.13-.53.54,0,.83,0,1.66,0,2.49C49.39,30.57,49.39,30.57,50.5,30.38Zm5.71.06a4.17,4.17,0,0,1,.63,0c.39.05.54-.07.52-.5,0-.82,0-1.65,0-2.48,0-1,0-1-1-.94,0,0,0,0-.08.07A3.54,3.54,0,0,1,56.21,30.44Zm-8.9-2.57c-.63,0-.6,0-.64.84,0,.57.36.37.6.38.66,0,.66,0,.66-.6S47.93,27.87,47.31,27.87Zm12.75.51c.18-.45-.09-.54-.56-.52s-.76-.05-.7.58,0,.65.61.65S60.06,29.09,60.06,28.38Z" transform="translate(-25 -25.05)"/><path class="cls-1" d="M68.19,63.5a.66.66,0,0,1,.67.46,1,1,0,0,0,.46.57.78.78,0,0,1,.33,1.12c-.25.37-.64.41-1.11.12a.52.52,0,0,0-.59-.06.43.43,0,0,0-.18.52.47.47,0,0,0,.48.33A1.91,1.91,0,0,1,70,67.87a1.84,1.84,0,0,1-.39,1.91c-.3.34-.69.56-.9,1s-1,.36-1.17-.15A1.18,1.18,0,0,0,67,70a.74.74,0,0,1-.32-1,.71.71,0,0,1,1.11-.22c.25.16.47.25.7,0a.45.45,0,0,0-.26-.78c-.19-.05-.39,0-.58-.09a1.92,1.92,0,0,1-.59-3.42,1,1,0,0,0,.45-.58A.68.68,0,0,1,68.19,63.5Z" transform="translate(-25 -25.05)"/><path class="cls-1" d="M53.4,38.56c.64,0,1.27,0,1.9,0a.76.76,0,0,1,.83.71.75.75,0,0,1-.84.75H51.44a.74.74,0,1,1,0-1.46Q52.43,38.54,53.4,38.56Z" transform="translate(-25 -25.05)"/></svg>