<svg id="iconos" xmlns="http://www.w3.org/2000/svg" viewBox="0 0 41.73 50"><defs><style>.cls-1{fill:#c7cb4f;}</style></defs><path class="cls-1" d="M46,73.48l.16.08.08,0c.85.38,1.64.71,2.42,1a1.25,1.25,0,0,0,.26.07l.5.2A1.57,1.57,0,0,0,50,75a1.62,1.62,0,0,0,.61-.12l.47-.19.28-.08c1-.38,2-.8,2.94-1.25l.14-.07A32.36,32.36,0,0,0,68.62,61,15.53,15.53,0,0,0,70.86,53V34.19A1.59,1.59,0,0,0,70.35,33a1.63,1.63,0,0,0-1.08-.42h-.14c-.36,0-.74,0-1.12,0-8.19,0-16.9-7.2-17-7.27a1.62,1.62,0,0,0-2.06,0c-.12.11-8.83,7.27-17,7.27-.38,0-.76,0-1.12,0h-.14a1.63,1.63,0,0,0-1.08.42,1.59,1.59,0,0,0-.51,1.18V52.88a15.65,15.65,0,0,0,2.31,8.24A32.41,32.41,0,0,0,46,73.48ZM30.73,34.19c.42,0,.84.05,1.26.05,8.87,0,18-7.64,18-7.64s9.14,7.64,18,7.64c.42,0,.84,0,1.26-.05V53a13.9,13.9,0,0,1-2,7.24A30.77,30.77,0,0,1,53.69,71.88h0c-.91.43-1.86.84-2.87,1.22v0L50,73.4l-.79-.32v0c-.82-.31-1.6-.64-2.36-1l-.11,0h0c-7.66-3.51-11.8-8.31-13.93-11.79a14.13,14.13,0,0,1-2.08-7.41Z" transform="translate(-29.14 -25)"/><path class="cls-1" d="M44.63,60.6a1.63,1.63,0,0,0,1.09.43,1.6,1.6,0,0,0,1.13-.47L63.43,44a1.61,1.61,0,0,0,0-2.26l-2.28-2.28A1.61,1.61,0,0,0,60,39a1.59,1.59,0,0,0-1.13.47L45.61,52.72,41,48.41A1.65,1.65,0,0,0,39.9,48h0a1.62,1.62,0,0,0-1.11.51l-2.2,2.35a1.6,1.6,0,0,0,.07,2.26Zm-4.73-11L45.64,55,60,40.57l2.28,2.28L45.72,59.43l-8-7.5Z" transform="translate(-29.14 -25)"/></svg>