<?xml version="1.0" standalone="no"?>
<!DOCTYPE svg PUBLIC "-//W3C//DTD SVG 20010904//EN"
 "http://www.w3.org/TR/2001/REC-SVG-20010904/DTD/svg10.dtd">
<svg version="1.0" xmlns="http://www.w3.org/2000/svg"
 width="100.000000pt" height="98.000000pt" fill="#c7cb50" viewBox="0 0 100.000000 98.000000"
 preserveAspectRatio="xMidYMid meet">

<g transform="translate(0.000000,98.000000) scale(0.100000,-0.100000)"
fill="#c7cb50" stroke="none">
<path d="M356 909 c-168 -28 -316 -181 -347 -358 -33 -183 73 -382 246 -462
132 -62 303 -49 426 33 62 41 64 45 50 66 -6 11 -19 6 -59 -23 -80 -57 -151
-78 -252 -73 -64 3 -99 10 -142 30 -115 53 -203 167 -228 295 -50 253 189 498
445 455 162 -27 286 -141 326 -302 12 -46 22 -66 34 -69 16 -3 17 3 12 50 -4
31 -22 85 -42 126 -60 121 -174 207 -309 232 -67 12 -89 12 -160 0z"/>
<path d="M410 731 c0 -25 -7 -33 -44 -51 -76 -36 -98 -127 -43 -178 12 -11 52
-34 88 -50 55 -25 79 -45 79 -67 0 -2 -7 -11 -16 -19 -18 -18 -89 -21 -130 -6
-32 12 -39 7 -49 -37 -6 -31 -6 -31 49 -44 51 -11 55 -14 58 -43 3 -27 7 -31
36 -34 31 -3 32 -2 32 31 0 31 5 37 43 56 116 56 97 190 -34 237 -65 24 -93
49 -79 73 13 26 52 33 105 20 25 -6 48 -10 50 -7 2 2 6 20 7 39 3 33 2 34 -44
43 -44 9 -48 12 -48 38 0 24 -4 28 -30 28 -26 0 -30 -3 -30 -29z"/>
<path d="M790 385 l0 -75 -40 0 c-22 0 -40 -3 -40 -6 0 -13 136 -234 143 -231
4 1 38 54 76 117 l69 115 -41 5 -42 5 -3 73 -3 72 -59 0 -60 0 0 -75z"/>
</g>
</svg>
