<?xml version="1.0" encoding="UTF-8"?>
<svg xmlns="http://www.w3.org/2000/svg" viewBox="0 0 1188.42 974.34">
  <defs>
    <style>
      .cls-1 {
        fill: #31468c;
      }

      .cls-2 {
        fill: #c7cb50;
      }

      .cls-3 {
        fill: #536bb3;
      }
    </style>
  </defs>
  <g id="original">
    <g>
      <path class="cls-1" d="m170.7,672.74h-36.52v106.68h-8.24v-106.68h-36.52v-7.79h81.28v7.79Z"/>
      <path class="cls-1" d="m264.3,731.31h-32.22v48.1h-8.24v-114.46h42.17c20.53,0,35.59,13.93,35.59,33.3,0,16.82-11.64,29.62-28.4,32.46l29.01,48.7h-9.32l-28.58-48.1Zm-32.22-7.86h33.55c16.3,0,27.58-10.61,27.58-25.27s-11.37-25.36-27.58-25.36h-33.55v50.63Z"/>
      <path class="cls-1" d="m424.95,771.48v7.94h-64.41v-114.46h62.61v7.86h-54.37v43.25h50.12v7.71h-50.12v47.7h56.17Z"/>
      <path class="cls-1" d="m546.77,771.48v7.94h-64.41v-114.46h62.61v7.86h-54.37v43.25h50.12v7.71h-50.12v47.7h56.17Z"/>
      <path class="cls-1" d="m595.47,745.25h8.39c0,16.81,13.13,27.46,32.38,27.46,17.51,0,30.21-9.83,30.21-24.6,0-16.62-15.27-19.99-31.66-23.69-17.75-3.99-36.93-8.38-36.93-30.11,0-18.81,14.75-30.73,37.49-30.73s36.48,12.8,36.48,32.51h-8.16c0-15.08-11.63-24.57-28.47-24.57s-29.1,8.76-29.1,22.49c0,15.8,15.22,19.17,31.36,22.78,18.07,4.15,37.46,8.62,37.46,31.25,0,20.15-16.33,32.77-38.61,32.77-24.47,0-40.84-13.96-40.84-35.55Z"/>
      <path class="cls-1" d="m731.39,737.09v-72.13h8.32v71.61c0,21.39,14.64,36.38,35.22,36.38s35.15-14.99,35.15-36.38v-71.61h8.31v72.13c0,25.64-18.42,43.94-43.46,43.94s-43.54-18.3-43.54-43.94Z"/>
      <path class="cls-1" d="m923.93,731.31h-32.22v48.1h-8.24v-114.46h42.17c20.53,0,35.59,13.93,35.59,33.3,0,16.82-11.64,29.62-28.4,32.46l29.01,48.7h-9.32l-28.58-48.1Zm-32.22-7.86h33.55c16.3,0,27.58-10.61,27.58-25.27s-11.37-25.36-27.58-25.36h-33.55v50.63Z"/>
      <path class="cls-1" d="m1057.08,734.08v45.34h-8.47v-45.28l-43.1-69.18h9.1l38.3,61.29,38.59-61.29h9.1l-43.52,69.12Z"/>
    </g>
  </g>
  <g id="leaves">
    <g>
      <g>
        <path class="cls-1" d="m546.24,474.74c-5.41-5.23-10.8-10.48-16.21-15.71l-12.81-12.56-12.73-12.63c-2.27-2.25-4.56-4.48-6.86-6.7-2.48,1.43-4.59,3.32-6.24,5.66-1.7,2.42-2.76,5.16-3.25,8.09l17.58,10.17,40.51,23.69Z"/>
        <path class="cls-1" d="m539.26,458.64c-4.78-8.79-9.38-17.68-13.78-26.67l-3.29-6.83c-6.58-1.69-12.95-1.85-18.38-.47,1.57,1.77,3.14,3.54,4.73,5.29l12.05,13.28,11.97,13.36c4.83,5.47,9.68,10.92,14.52,16.38-2.6-4.79-5.21-9.57-7.83-14.35Z"/>
        <path class="cls-1" d="m503.91,454.04l-16.05-10.26c-.41,11.52,7.4,25.25,21.01,34.79,7.58,5.32,15.77,8.5,23.39,9.54,6.36-.35,12.42-1.94,17.86-4.84l-46.21-29.24Z"/>
        <path class="cls-1" d="m560.57,469.67c.36-1.98.51-4.12.48-6.36-1.65-10.28-9.05-21.49-20.67-29.65-2.87-2.02-5.83-3.72-8.81-5.13l.13.23c4.76,8.8,9.33,17.7,13.72,26.7,3.72,7.7,7.47,15.39,11.24,23.06,1.94-2.26,3.27-5.21,3.92-8.86Z"/>
      </g>
      <g>
        <path class="cls-1" d="m651.18,457.37c4.15-4.39,8.45-8.62,12.9-12.71,4.46-4.08,8.95-8.12,13.34-12.26l7.04-6.61c-5.8-2.37-13.04-2.67-20.64-.92l-5.99,11.13-19.23,35.34c.14-.17.28-.33.42-.5,3.95-4.59,8.01-9.07,12.15-13.47Z"/>
        <path class="cls-1" d="m654.88,434.31l4.99-8.36c-5.17,1.65-10.42,4.22-15.4,7.71-9.93,6.96-16.76,16.16-19.58,25.09-.04.58-.08,1.17-.1,1.74-.27,7.13,1.17,12.99,4.28,17.49l25.8-43.67Z"/>
        <path class="cls-1" d="m675.99,478.57c10.73-7.53,17.86-17.67,20.19-27.26-3.97,2.33-7.93,4.68-11.93,6.96-9.01,5.2-18.16,10.15-27.4,14.94-7.05,3.66-14.08,7.35-21.11,11.05,3.45,2.22,7.33,3.57,11.46,4.22,9.03,0,19.38-3.31,28.79-9.91Z"/>
        <path class="cls-1" d="m680.84,452.08c4.6-2.44,9.23-4.8,13.85-7.2.77-.39,1.54-.78,2.31-1.16-.15-4-1.29-7.73-3.53-10.93-1.22-1.74-2.71-3.21-4.4-4.45l-7.71,8.03c-4.19,4.35-8.28,8.79-12.41,13.21-4.13,4.4-8.42,8.66-12.85,12.76-3.73,3.45-7.55,6.82-11.42,10.13,2.97-1.72,5.94-3.45,8.9-5.18,8.98-5.25,18.05-10.36,27.25-15.21Z"/>
      </g>
      <g>
        <path class="cls-1" d="m610.99,187.02c-.73,3.88-1.46,7.75-2.21,11.63-1.98,10.21-4.13,20.38-6.49,30.51l-5.64,23.66c6-2.07,11.86-6.57,17.27-13.12,2.98-6.16,4.88-13.54,5.23-21.54.54-12.27-2.66-23.43-8.15-31.13Z"/>
        <path class="cls-1" d="m593.93,206.76c.41,5.77.62,11.55.6,17.33,0,2.73-.05,5.47-.12,8.2l.92-4.65c2.05-10.19,4.32-20.34,6.76-30.45,1.26-5.24,2.54-10.47,3.86-15.69-3.65-3.08-7.87-4.93-12.43-5.13-.54-.02-1.08-.02-1.62,0l.79,13.07c.34,5.77.81,11.54,1.23,17.31Z"/>
        <path class="cls-1" d="m587.47,252.75l-13.98-51.3-2.62-9.78c-3.73,6.62-6.13,14.94-6.53,24.06-.3,6.82.56,13.3,2.32,19.03,6.32,9.26,13.4,15.42,20.82,18Z"/>
        <path class="cls-1" d="m573.07,188.19l3.89,12.24,11.79,37.67c-.49-4.59-.89-9.18-1.21-13.78-.39-5.77-.57-11.55-.53-17.34.05-5.79.14-11.57.1-17.36l-.07-12.4c-5.31,1.64-10.14,5.52-13.97,10.96Z"/>
      </g>
      <g>
        <path class="cls-2" d="m673.88,307.69c-4.2,4.21-8.55,8.27-13.04,12.18-3.12,2.71-6.31,5.35-9.52,7.96l32.72-17.9,18.13-9.81c-.61-2.38-1.62-4.61-3.08-6.61-1.54-2.12-3.48-3.84-5.72-5.18l-6.87,6.74c-4.25,4.16-8.42,8.41-12.62,12.64Z"/>
        <path class="cls-2" d="m667.5,347.44c5.03-1.74,10.11-4.36,14.92-7.86,14.04-10.22,21.67-24.9,20.26-36.69l-16.87,10.14-47.49,28.27c8.73,7.68,19.12,8.52,29.18,6.14Z"/>
        <path class="cls-2" d="m629.68,329.33c.79,1.88,1.74,3.67,2.86,5.37l10.15-19.95c3.91-7.64,7.99-15.18,12.2-22.66-1.61.96-3.21,2-4.78,3.14-13.02,9.49-20.54,22.81-20.43,34.1Z"/>
        <path class="cls-2" d="m665.15,287.33c-.94,1.88-1.88,3.75-2.83,5.62-4.3,8.47-8.76,16.85-13.42,25.13l-5.78,10.21c.2-.22.39-.44.59-.65,4.02-4.41,8.15-8.7,12.37-12.9,4.22-4.2,8.58-8.24,13.09-12.12,4.52-3.88,9.06-7.72,13.52-11.66l5.55-4.89c-6.62-2.02-14.79-1.58-23.09,1.27Z"/>
      </g>
      <g>
        <path class="cls-2" d="m511.84,341.51c16.21,4.65,29.42,4.57,38.31-.25l-46.99-27.63-16.48-9.8c-2.65,12.86,7.63,28.74,25.16,37.68Z"/>
        <path class="cls-2" d="m504.88,310.57l38.26,20.71c-.24-.22-.49-.43-.74-.65-4.31-3.85-8.52-7.8-12.62-11.84-4.11-4.04-8.06-8.23-11.85-12.57-3.79-4.34-7.54-8.72-11.4-13l-4.42-4.93c-6.27,1.91-11.23,5.59-13.87,10.93-.32.65-.59,1.32-.84,2l17.47,9.35Z"/>
        <path class="cls-2" d="m510.61,289.38c4.07,4.08,8.23,8.07,12.36,12.09,4.12,4.03,8.09,8.2,11.9,12.52,1.98,2.24,3.93,4.52,5.85,6.81-.65-1.11-1.29-2.22-1.95-3.33-4.95-8.46-9.71-17.02-14.29-25.69l-2.11-4.06c-4.93-.97-9.72-1.19-14.11-.69l2.34,2.34Z"/>
        <path class="cls-2" d="m536.81,292.67c-1.66-.82-3.34-1.55-5.01-2.2,4.51,7.79,8.86,15.67,13.06,23.63,3.85,7.38,7.74,14.75,11.63,22.11.46-.53.91-1.08,1.32-1.67,2.6-3.66,4.12-8.11,4.64-13.07-2.33-10.74-11.78-21.94-25.64-28.8Z"/>
      </g>
      <path class="cls-3" d="m738.64,381.58c-8.48-10.21-22.52-13.29-40.6-8.89-14.89,3.62-31.35,12.15-45.17,23.41-19.5,15.87-34.25,42.84-35.07,64.12-.33,8.64,1.6,16.08,5.61,21.85l-26.67,20.79v-127.65l37.1-28.56c7.2,6.29,15.47,8.94,24.13,8.94,18.68,0,39.16-12.26,54.5-26.59,18.35-17.15,32.13-46.53,32.06-68.35-.03-9.61-2.82-17.25-8.08-22.09-8.79-8.11-22.94-9.63-40.92-4.4-15.32,4.45-31.95,13.51-45.63,24.85-17.28,14.32-28.72,34.74-29.85,53.27-.62,10.13,1.84,19.31,7.11,26.9l-30.41,23.42v-102.51c9.77-2.63,24.66-11.63,37.03-40.48,10-23.34,7.43-58-5.99-80.63-7.91-13.33-18.53-21-30.71-22.16-1.78-.17-8-.17-9.78,0-12.18,1.16-22.79,8.82-30.7,22.15-13.42,22.62-16,57.29-6,80.64,11.65,27.2,25.35,37.13,36.15,40.26v101.85l-24.49-21.48c.46-.55.89-1.1,1.27-1.64,12.46-17.53,5.52-48.03-16.49-72.53-18.49-20.58-50.51-36.12-72.83-35.36-9.33.31-16.63,3.51-21.12,9.24-7.91,10.09-9.72,24.57-5.22,41.87,6.78,26.07,26.93,52.72,45.9,60.67,16.64,6.98,29.59,9.56,39.65,9.56,9.36,0,16.2-2.24,21.19-5.24l32.15,28.2v127.48l-24.27-19.99c2.49-3.1,4.17-6.98,5-11.61,3.43-19.1-8.28-46.7-17.69-60.2-12.5-17.93-41.62-38.89-66.88-41.49-11.69-1.21-21.23,1.59-28.34,8.31-5.84,5.52-8.76,13.57-8.67,23.94.21,25,18.06,57.96,34.59,73.06,14.84,13.55,32.6,20.65,49.09,20.65,8.89,0,17.41-2.08,24.9-6.31l32.28,26.59v92.96h10v-92.88l33.8-26.35c6.67,4.83,14.48,6.82,22.65,6.82,18.96,0,39.77-10.62,52.19-20.7,16.83-13.67,36.55-44.18,39.06-69.64,1-10.16-.95-18.26-5.79-24.09Zm-30.96-57.7c-4.54,4.24-43.98,39.73-69.37,17.41l47.49-28.27,25.97-15.61c6.99-4.19,13.96-8.42,20.93-12.65-5.28,14.48-14.41,29.21-25.01,39.12Zm29.84-63.22c.02,6.88-1.56,14.73-4.33,22.71-7.51,4.03-15.02,8.06-22.51,12.12l-26.65,14.42-32.72,17.9c3.21-2.61,6.4-5.26,9.52-7.96,4.49-3.9,8.84-7.96,13.04-12.18,4.19-4.22,8.36-8.48,12.62-12.64l12.75-12.5,12.68-12.57c7.53-7.58,15.1-15.1,22.59-22.71,2.4,4.19,3,9.36,3.02,13.4Zm-5.82-16.97c.88.81,1.64,1.73,2.28,2.7-8.19,6.96-16.3,14.01-24.45,21.01l-13.46,11.73-13.39,11.8c-4.46,3.94-9,7.79-13.52,11.66-4.51,3.89-8.87,7.93-13.09,12.12-4.22,4.2-8.34,8.5-12.37,12.9-.2.22-.39.44-.59.65l5.78-10.21c4.66-8.28,9.12-16.66,13.42-25.13,4.29-8.48,8.52-16.98,12.57-25.59,3.4-7.2,6.72-14.44,9.85-21.78,18.84-8.32,37.47-10.64,46.96-1.88Zm-104.68,69.01c1.02-16.67,11.49-35.18,27.33-48.31,8.36-6.93,18.01-13.02,27.71-17.59-3.93,6.03-7.71,12.13-11.42,18.28-4.94,8.13-9.69,16.35-14.4,24.61-4.69,8.26-9.22,16.61-13.55,25.06l-10.15,19.95c-4.13-6.21-6.03-13.71-5.52-21.99Zm-85.21-41.95c19.53,21.72,26.4,49.15,15.99,63.79-.41.58-.86,1.13-1.32,1.67-3.9-7.36-7.78-14.72-11.63-22.11-4.57-8.67-9.32-17.24-14.25-25.71l-7.5-12.65c-2.56-4.18-5.06-8.4-7.68-12.55-4-6.43-8.08-12.83-12.32-19.13,14.33,5.98,28.79,15.63,38.72,26.68Zm-67.39-33.04c.44-.02.89-.02,1.35-.02,7.38,0,15.99,1.96,24.75,5.35,3.37,7.61,6.93,15.1,10.59,22.54,2.13,4.42,4.39,8.77,6.59,13.15l6.78,13.05c4.58,8.67,9.34,17.23,14.29,25.69.65,1.11,1.3,2.22,1.95,3.33-1.93-2.29-3.88-4.57-5.85-6.81-3.81-4.32-7.78-8.49-11.9-12.52-4.13-4.02-8.29-8.01-12.36-12.09l-12.22-12.22-12.3-12.15c-8.11-7.9-16.16-15.86-24.33-23.7,3.17-2.21,7.4-3.43,12.67-3.6Zm-19.81,42.36c-3.87-14.89-2.47-27.6,3.96-35.79.74-.94,1.6-1.78,2.57-2.52,7.4,8.61,14.94,17.11,22.4,25.66l11.46,12.94,11.54,12.87c3.85,4.28,7.61,8.66,11.4,13,3.8,4.34,7.75,8.53,11.85,12.57,4.11,4.04,8.31,7.99,12.62,11.84.24.22.49.43.74.65l-38.26-20.71-26.36-14.11c-7.53-4.04-15.08-8.05-22.64-12.06-.46-1.45-.88-2.89-1.26-4.34Zm41.83,55.98h0c-15.83-6.64-32.67-28.06-40.13-50.32,7.04,4.22,14.08,8.44,21.14,12.62l25.7,15.28,46.99,27.63c-11.57,6.27-30.4,4.56-53.7-5.21Zm47.58,78.67c8.81,12.63,19.46,38.76,16.55,54.96-.65,3.65-1.98,6.6-3.92,8.86-3.76-7.68-7.52-15.36-11.24-23.06-4.38-9-8.95-17.9-13.72-26.7l-7.24-13.15c-2.48-4.35-4.89-8.74-7.43-13.05-3.71-6.41-7.48-12.79-11.41-19.09,15.74,7.7,30.63,20.07,38.41,31.23Zm-61.85-38.53c6.62.68,13.67,2.85,20.63,5.98,3.13,7.64,6.44,15.17,9.85,22.66,2.04,4.58,4.21,9.09,6.32,13.63l6.51,13.53c4.4,8.99,9,17.87,13.78,26.67,2.62,4.78,5.23,9.56,7.83,14.35-4.84-5.46-9.69-10.91-14.52-16.38l-11.97-13.36-12.05-13.28c-4.02-4.42-7.95-8.93-11.91-13.42-3.97-4.47-8.09-8.8-12.37-12.98-4.28-4.18-8.65-8.27-13.13-12.25-3.61-3.19-7.28-6.32-11.09-9.31,5.51-4.81,12.95-6.77,22.14-5.83Zm-29.3,25.23c-.07-7.94,1.93-14.02,5.89-18.15,2.81,3.94,5.78,7.74,8.8,11.48,3.78,4.66,7.67,9.21,11.65,13.67,3.98,4.46,8.13,8.77,12.42,12.93,4.3,4.16,8.63,8.28,12.87,12.5l12.73,12.63,12.81,12.56c5.41,5.23,10.8,10.48,16.21,15.71l-40.51-23.69-25.98-15.02-22.9-13.18c-2.44-7.44-3.92-14.79-3.98-21.43Zm32.31,67.95c-10.47-9.56-21.83-27.49-27.89-45.2l21.34,13.71,25.28,16.17,46.21,29.24c-18.69,9.94-44.68,4.58-64.93-13.91Zm136.57-326.81c12.38,20.88,14.78,52.82,5.57,74.3-8.25,19.25-19.23,32.01-30.69,35.96l5.64-23.66c2.37-10.13,4.51-20.3,6.49-30.51,1.98-10.21,3.9-20.43,5.62-30.7,1.67-9.88,3.24-19.79,4.49-29.76,1.07,1.47,2.03,2.95,2.87,4.36Zm-29.58-18.86c1.78,0,3.55.03,4.22.1h0c9.79.94,16.93,7.09,21.83,13.52-3.09,9.82-5.84,19.71-8.48,29.62-2.7,10.05-5.2,20.15-7.64,30.26-2.44,10.11-4.71,20.26-6.76,30.45l-.92,4.65c.07-2.73.11-5.47.12-8.2.01-5.79-.19-11.56-.6-17.33-.43-5.77-.9-11.54-1.23-17.31l-1.04-17.32-1.15-17.32c-.76-10.35-1.45-20.7-2.26-31.04.81-.05,2.37-.07,3.92-.07Zm-29.57,18.85c4.59-7.74,12.57-17.16,24.62-18.65-.13,10.35-.13,20.69-.22,31.03v17.35s.09,17.35.09,17.35c.04,5.78-.05,11.57-.1,17.36-.03,5.79.14,11.56.53,17.34.31,4.6.71,9.19,1.21,13.78l-11.79-37.67-9.14-28.77c-2.57-8.11-5.17-16.21-7.79-24.3.81-1.66,1.66-3.27,2.58-4.82Zm-5.58,74.31c-8.34-19.49-7.15-47.57,2.38-68.2,2.07,7.88,4.16,15.76,6.27,23.63l7.81,29.16,13.98,51.3c-11.47-3.99-22.14-16.48-30.45-35.89Zm155.83,161.01c6.95,0,13.06,1.68,17.64,5.46-8.93,8.05-17.73,16.24-26.59,24.35l-13.28,12.33-13.21,12.4c-4.4,4.14-8.88,8.19-13.34,12.26-4.45,4.09-8.75,8.32-12.9,12.71-4.15,4.39-8.2,8.87-12.15,13.47-.14.17-.28.33-.42.5l19.23-35.34,13.67-25.41,14.55-26.46c9.35-3.95,18.65-6.26,26.8-6.26Zm-88.07,82.63c.75-19.45,14.41-44.25,32.49-58.96,8.42-6.85,18.02-12.73,27.61-16.92l-15.23,24.93-14.79,24.77-25.8,43.67c-3.11-4.5-4.56-10.35-4.28-17.49Zm76.17,9.39c-16.88,13.7-46.98,26.11-65.22,14.38,7.03-3.7,14.06-7.39,21.11-11.05,9.24-4.8,18.39-9.74,27.4-14.94,4.51-2.59,8.98-5.25,13.48-7.87,4.46-2.69,8.93-5.34,13.36-8.09,6.35-3.91,12.67-7.88,18.9-12-7.33,15.96-18.73,31.22-29.02,39.58Zm36.5-64.89c-.69,7.04-2.91,14.66-6.11,22.22-7.65,3.41-15.2,7-22.7,10.68-4.68,2.28-9.31,4.65-13.97,6.99-4.61,2.4-9.25,4.76-13.85,7.2-9.21,4.85-18.27,9.95-27.25,15.21-2.96,1.73-5.93,3.46-8.9,5.18,3.87-3.31,7.69-6.68,11.42-10.13,4.43-4.1,8.72-8.36,12.85-12.76,4.12-4.41,8.22-8.86,12.41-13.21l12.54-13.07,12.47-13.15c8.22-8.79,16.51-17.52,24.67-26.37.79.69,1.53,1.44,2.21,2.27,3.6,4.34,5.02,10.71,4.21,18.94Z"/>
    </g>
  </g>
</svg>