<?xml version="1.0" encoding="utf-8"?>
<!-- Generator: Adobe Illustrator 26.4.1, SVG Export Plug-In . SVG Version: 6.00 Build 0)  -->
<svg version="1.1" xmlns="http://www.w3.org/2000/svg" xmlns:xlink="http://www.w3.org/1999/xlink" x="0px" y="0px"
	 viewBox="0 0 370.52 238.64" style="enable-background:new 0 0 370.52 238.64;" xml:space="preserve">
<style type="text/css">
	.st0{fill:none;stroke:#549699;stroke-miterlimit:10;stroke-dasharray:1,2;}
	.st1{fill:none;stroke:#549699;stroke-miterlimit:10;stroke-dasharray:2,2;}
	.st2{fill:#549699;}
	.st3{fill:none;stroke:#31478D;stroke-miterlimit:10;}
	.st4{fill:none;stroke:#0085AC;stroke-miterlimit:10;}
	.st5{fill:#31478D;}
	.st6{fill:#536CB3;}
</style>
<g id="Dark_Background">
</g>
<g id="_x33_d_cube">
	<polyline class="st0" points="21.66,74.74 54.27,82.95 81.08,86.82 114.12,99 134.29,135.67 143.08,162.19 166.06,220.26 
		181.2,188.97 230.2,171.12 228.91,137.36 231.58,120.81 250.99,101.47 256.54,81.34 273.07,56.48 	"/>
	<polyline class="st0" points="77.71,62.15 82.96,88.59 60.4,138.45 77.71,164.93 77.71,195.42 	"/>
	<polyline class="st0" points="115.62,173.19 77.71,164.93 29.44,164.41 	"/>
	<polyline class="st0" points="364.54,78.54 361.09,102.27 295.18,96.82 329.64,161.42 285.87,164.52 255.85,149.66 212.31,140.39 
		182.51,113.72 161.64,120.6 142.33,117.92 134.74,100.69 	"/>
	<polyline class="st0" points="141.32,62.21 143.67,88.59 223.78,68.22 	"/>
	<polyline class="st0" points="199.87,45.72 199.87,116.91 226.12,208.38 	"/>
	<line class="st1" x1="182.72" y1="159.21" x2="182.72" y2="0"/>
	<polyline class="st1" points="225.17,118.74 186.63,105.32 186.63,0 	"/>
	<polyline class="st1" points="225.17,46.44 190.8,35.04 190.8,0 	"/>
	<polyline class="st1" points="3.64,79.61 140.42,46.44 174.79,35.04 174.79,0 	"/>
	<polyline class="st1" points="10.22,100.55 138.45,47.84 61.93,102.27 	"/>
	<path class="st1" d="M361.09,102.27L223.66,46.9c0,0,75.39,52.03,75.39,52.89"/>
	<line class="st1" x1="364.62" y1="79.61" x2="221.47" y2="45.38"/>
	<polyline class="st1" points="0.12,152.93 140.42,118.74 178.96,105.32 178.96,0 	"/>
	<polyline class="st1" points="8.12,175.22 123.5,124.07 63.58,175.22 	"/>
	<line class="st1" x1="139.37" y1="221.77" x2="182.72" y2="160.92"/>
	<polyline class="st1" points="214.45,224.63 182.72,159.21 182.72,237.77 	"/>
	<path class="st1" d="M356.86,173.49l-127.22-52.94c0,0,73.64,53.23,74.35,52.94"/>
	<line class="st1" x1="364.62" y1="151.5" x2="225.17" y2="118.74"/>
	<rect x="17.56" y="70.86" class="st2" width="8.37" height="8.37"/>
	<rect x="51.57" y="80.01" class="st2" width="6.81" height="6.81"/>
	<rect x="75.43" y="58.78" class="st2" width="6.87" height="6.87"/>
	<rect x="5.18" y="147.33" class="st2" width="6.03" height="6.03"/>
	<rect x="57.62" y="135.67" class="st2" width="5.57" height="5.57"/>
	<rect x="27.31" y="162.27" class="st2" width="4.28" height="4.28"/>
	<rect x="74.34" y="161.2" class="st2" width="6.74" height="6.74"/>
	<rect x="81.08" y="84.94" class="st2" width="3.76" height="3.76"/>
	<rect x="271.1" y="54.52" class="st2" width="3.94" height="3.94"/>
	<rect x="302.74" y="76.34" class="st2" width="5" height="5"/>
	<rect x="293.04" y="90.66" class="st2" width="10.82" height="10.82"/>
	<rect x="358.24" y="96.82" class="st2" width="8.2" height="8.2"/>
	<rect x="362.34" y="76.34" class="st2" width="4.41" height="4.41"/>
	<rect x="358.24" y="144.75" class="st2" width="12.28" height="12.28"/>
	<rect x="326.65" y="158.44" class="st2" width="5.97" height="5.97"/>
	<rect x="282.77" y="161.42" class="st2" width="6.19" height="6.19"/>
	<rect x="227.68" y="116.91" class="st2" width="7.8" height="7.8"/>
	<rect x="139.69" y="115.28" class="st2" width="5.27" height="5.27"/>
	<rect x="101.09" y="139.21" class="st2" width="3.84" height="3.84"/>
	<rect x="136.29" y="221.31" class="st2" width="8.55" height="8.55"/>
	<rect x="211.22" y="222.36" class="st2" width="4.62" height="4.62"/>
	<line class="st3" x1="182.93" y1="156.75" x2="182.93" y2="0"/>
	<polyline class="st3" points="199.87,116.91 184.49,103.69 184.49,0 	"/>
	<polyline class="st3" points="199.87,45.72 186.16,34.5 186.16,0 	"/>
	<polyline class="st3" points="111.49,78.37 166.06,45.72 179.77,34.5 179.77,0 	"/>
	<polyline class="st3" points="114.12,99 165.27,47.1 134.74,100.69 	"/>
	<path class="st3" d="M254.09,100.69l-54.82-54.51c0,0,30.07,51.23,30.07,52.07"/>
	<line class="st3" x1="255.49" y1="78.37" x2="198.39" y2="44.68"/>
	<polyline class="st3" points="110.09,150.56 166.06,116.91 181.43,103.69 181.43,0 	"/>
	<polyline class="st3" points="113.28,172.51 159.31,122.16 135.4,172.51 	"/>
	<line class="st3" x1="165.64" y1="218.34" x2="182.93" y2="158.44"/>
	<polyline class="st3" points="195.59,221.16 182.93,156.75 182.93,234.09 	"/>
	<path class="st4" d="M179.77,232.69"/>
	<path class="st3" d="M252.4,170.81l-50.75-52.12c0,0,29.38,52.41,29.66,52.12"/>
	<line class="st3" x1="255.49" y1="149.16" x2="199.87" y2="116.91"/>
	<polygon class="st5" points="138.98,65.86 134.29,64.51 134.29,58.78 138.98,59.91 	"/>
	<polygon class="st6" points="143.67,58.56 138.98,59.91 138.98,65.86 143.67,64.73 	"/>
	<polygon class="st2" points="134.29,58.78 138.98,57.2 143.67,58.56 138.98,59.91 	"/>
	<polygon class="st5" points="110.67,80.93 107.9,80.14 107.9,76.75 110.67,77.42 	"/>
	<polygon class="st6" points="113.44,76.62 110.67,77.42 110.67,80.93 113.44,80.26 	"/>
	<polygon class="st2" points="107.9,76.75 110.67,75.82 113.44,76.62 110.67,77.42 	"/>
	<polygon class="st5" points="114.78,102.63 110.09,101.28 110.09,95.55 114.78,96.68 	"/>
	<polygon class="st6" points="119.47,95.33 114.78,96.68 114.78,102.63 119.47,101.5 	"/>
	<polygon class="st2" points="110.09,95.55 114.78,93.98 119.47,95.33 114.78,96.68 	"/>
	<polygon class="st5" points="141.32,92.24 136.63,90.89 136.63,85.16 141.32,86.29 	"/>
	<polygon class="st6" points="146.01,84.94 141.32,86.29 141.32,92.24 146.01,91.11 	"/>
	<polygon class="st2" points="136.63,85.16 141.32,83.59 146.01,84.94 141.32,86.29 	"/>
	<polygon class="st5" points="135,139.21 130.31,137.86 130.31,132.13 135,133.26 	"/>
	<polygon class="st6" points="139.69,131.91 135,133.26 135,139.21 139.69,138.08 	"/>
	<polygon class="st2" points="130.31,132.13 135,130.56 139.69,131.91 135,133.26 	"/>
	<polygon class="st5" points="110.09,152.73 107.74,152.05 107.74,149.19 110.09,149.75 	"/>
	<polygon class="st6" points="112.43,149.08 110.09,149.75 110.09,152.73 112.43,152.16 	"/>
	<polygon class="st2" points="107.74,149.19 110.09,148.4 112.43,149.08 110.09,149.75 	"/>
	<polygon class="st5" points="113.28,176.84 108.59,175.49 108.59,169.75 113.28,170.88 	"/>
	<polygon class="st6" points="117.97,169.54 113.28,170.88 113.28,176.84 117.97,175.71 	"/>
	<polygon class="st2" points="108.59,169.75 113.28,168.18 117.97,169.54 113.28,170.88 	"/>
	<polygon class="st5" points="141.32,164.93 137.8,163.92 137.8,159.62 141.32,160.47 	"/>
	<polygon class="st6" points="144.84,159.46 141.32,160.47 141.32,164.93 144.84,164.08 	"/>
	<polygon class="st2" points="137.8,159.62 141.32,158.44 144.84,159.46 141.32,160.47 	"/>
	<polygon class="st5" points="151.57,141.52 148.34,140.59 148.34,136.65 151.57,137.42 	"/>
	<polygon class="st6" points="154.8,136.5 151.57,137.42 151.57,141.52 154.8,140.74 	"/>
	<polygon class="st2" points="148.34,136.65 151.57,135.56 154.8,136.5 151.57,137.42 	"/>
	<polygon class="st5" points="135,179.54 130.31,178.19 130.31,172.46 135,173.59 	"/>
	<polygon class="st6" points="139.69,172.24 135,173.59 135,179.54 139.69,178.41 	"/>
	<polygon class="st2" points="130.31,172.46 135,170.88 139.69,172.24 135,173.59 	"/>
	<polygon class="st5" points="199.87,121.23 195.18,119.89 195.18,114.15 199.87,115.28 	"/>
	<polygon class="st6" points="204.56,113.94 199.87,115.28 199.87,121.23 204.56,120.1 	"/>
	<polygon class="st2" points="195.18,114.15 199.87,112.58 204.56,113.94 199.87,115.28 	"/>
	<polygon class="st5" points="199.87,50.87 193.16,48.95 193.16,40.75 199.87,42.36 	"/>
	<polygon class="st6" points="206.57,40.44 199.87,42.36 199.87,50.87 206.57,49.26 	"/>
	<polygon class="st2" points="193.16,40.75 199.87,38.49 206.57,40.44 199.87,42.36 	"/>
	<polygon class="st5" points="253.33,105.01 248.64,103.67 248.64,97.93 253.33,99.06 	"/>
	<polygon class="st6" points="258.03,97.72 253.33,99.06 253.33,105.01 258.03,103.89 	"/>
	<polygon class="st2" points="248.64,97.93 253.33,96.36 258.03,97.72 253.33,99.06 	"/>
	<polygon class="st5" points="223.78,74.17 219.09,72.82 219.09,67.09 223.78,68.22 	"/>
	<polygon class="st6" points="228.47,66.87 223.78,68.22 223.78,74.17 228.47,73.04 	"/>
	<polygon class="st2" points="219.09,67.09 223.78,65.52 228.47,66.87 223.78,68.22 	"/>
	<polygon class="st5" points="228.47,100.91 225.24,99.98 225.24,96.04 228.47,96.82 	"/>
	<polygon class="st6" points="231.69,95.89 228.47,96.82 228.47,100.91 231.69,100.13 	"/>
	<polygon class="st2" points="225.24,96.04 228.47,94.96 231.69,95.89 228.47,96.82 	"/>
	<polygon class="st5" points="256.54,81.34 253.33,80.41 253.33,76.49 256.54,77.26 	"/>
	<polygon class="st6" points="259.75,76.34 256.54,77.26 256.54,81.34 259.75,80.56 	"/>
	<polygon class="st2" points="253.33,76.49 256.54,75.41 259.75,76.34 256.54,77.26 	"/>
	<polygon class="st5" points="228.91,137.36 225.39,136.35 225.39,132.05 228.91,132.9 	"/>
	<polygon class="st6" points="232.43,131.89 228.91,132.9 228.91,137.36 232.43,136.51 	"/>
	<polygon class="st2" points="225.39,132.05 228.91,130.87 232.43,131.89 228.91,132.9 	"/>
	<polygon class="st5" points="252.4,175.96 244.98,173.83 244.98,164.76 252.4,166.55 	"/>
	<polygon class="st6" points="259.82,164.42 252.4,166.55 252.4,175.96 259.82,174.17 	"/>
	<polygon class="st2" points="244.98,164.76 252.4,162.27 259.82,164.42 252.4,166.55 	"/>
	<polygon class="st5" points="215.83,145.7 212.31,144.69 212.31,140.39 215.83,141.24 	"/>
	<polygon class="st6" points="219.35,140.23 215.83,141.24 215.83,145.7 219.35,144.85 	"/>
	<polygon class="st2" points="212.31,140.39 215.83,139.21 219.35,140.23 215.83,141.24 	"/>
	<polygon class="st5" points="254.09,152.4 250.57,151.39 250.57,147.09 254.09,147.94 	"/>
	<polygon class="st6" points="257.61,146.93 254.09,147.94 254.09,152.4 257.61,151.55 	"/>
	<polygon class="st2" points="250.57,147.09 254.09,145.91 257.61,146.93 254.09,147.94 	"/>
	<polygon class="st5" points="231.96,173.78 228.44,172.77 228.44,168.47 231.96,169.31 	"/>
	<polygon class="st6" points="235.48,168.3 231.96,169.31 231.96,173.78 235.48,172.93 	"/>
	<polygon class="st2" points="228.44,168.47 231.96,167.29 235.48,168.3 231.96,169.31 	"/>
	<polygon class="st5" points="165.27,225.19 157.85,223.06 157.85,213.99 165.27,215.78 	"/>
	<polygon class="st6" points="172.69,213.65 165.27,215.78 165.27,225.19 172.69,223.4 	"/>
	<polygon class="st2" points="157.85,213.99 165.27,211.5 172.69,213.65 165.27,215.78 	"/>
	<polygon class="st5" points="182.93,161.2 177.89,159.76 177.89,153.6 182.93,154.81 	"/>
	<polygon class="st6" points="187.97,153.36 182.93,154.81 182.93,161.2 187.97,159.99 	"/>
	<polygon class="st2" points="177.89,153.6 182.93,151.91 187.97,153.36 182.93,154.81 	"/>
	<polygon class="st5" points="182.51,120.1 179.05,119.1 179.05,114.88 182.51,115.71 	"/>
	<polygon class="st6" points="185.97,114.72 182.51,115.71 182.51,120.1 185.97,119.26 	"/>
	<polygon class="st2" points="179.05,114.88 182.51,113.72 185.97,114.72 182.51,115.71 	"/>
	<polygon class="st5" points="159.91,123.28 156.45,122.29 156.45,118.07 159.91,118.9 	"/>
	<polygon class="st6" points="163.37,117.91 159.91,118.9 159.91,123.28 163.37,122.45 	"/>
	<polygon class="st2" points="156.45,118.07 159.91,116.91 163.37,117.91 159.91,118.9 	"/>
	<polygon class="st5" points="135,103.45 131.55,102.46 131.55,98.24 135,99.07 	"/>
	<polygon class="st6" points="138.46,98.08 135,99.07 135,103.45 138.46,102.62 	"/>
	<polygon class="st2" points="131.55,98.24 135,97.08 138.46,98.08 135,99.07 	"/>
	<polygon class="st5" points="182.93,191.58 179.47,190.59 179.47,186.36 182.93,187.19 	"/>
	<polygon class="st6" points="186.39,186.2 182.93,187.19 182.93,191.58 186.39,190.75 	"/>
	<polygon class="st2" points="179.47,186.36 182.93,185.2 186.39,186.2 182.93,187.19 	"/>
	<polygon class="st5" points="194.18,212.21 189.26,210.8 189.26,204.78 194.18,205.97 	"/>
	<polygon class="st6" points="199.11,204.56 194.18,205.97 194.18,212.21 199.11,211.03 	"/>
	<polygon class="st2" points="189.26,204.78 194.18,203.13 199.11,204.56 194.18,205.97 	"/>
	<polygon class="st5" points="182.93,238.64 179.29,237.6 179.29,233.15 182.93,234.03 	"/>
	<polygon class="st6" points="186.57,232.99 182.93,234.03 182.93,238.64 186.57,237.77 	"/>
	<polygon class="st2" points="179.29,233.15 182.93,231.93 186.57,232.99 182.93,234.03 	"/>
	<polygon class="st5" points="195.59,226.97 191.95,225.93 191.95,221.48 195.59,222.36 	"/>
	<polygon class="st6" points="199.23,221.31 195.59,222.36 195.59,226.97 199.23,226.1 	"/>
	<polygon class="st2" points="191.95,221.48 195.59,220.26 199.23,221.31 195.59,222.36 	"/>
</g>
</svg>
