<?xml version="1.0" encoding="utf-8"?>
<!-- Generator: Adobe Illustrator 27.2.0, SVG Export Plug-In . SVG Version: 6.00 Build 0)  -->
<svg version="1.1" id="Layer_1" xmlns="http://www.w3.org/2000/svg" xmlns:xlink="http://www.w3.org/1999/xlink" x="0px" y="0px"
	 viewBox="0 0 117.44 116.35" style="enable-background:new 0 0 117.44 116.35;" xml:space="preserve">
<style type="text/css">
	.st0{opacity:0.02;enable-background:new    ;}
	.st1{fill-rule:evenodd;clip-rule:evenodd;fill:#c7cb50;}
	.st2{fill:#c7cb50;}
</style>
<g>
	<g>
		<g>
			<path class="st2" d="M67.42,73.26c-3.12,0-6.18-0.98-8.7-2.79c-2.52,1.8-5.58,2.79-8.7,2.79c-8.26,0-14.98-6.72-14.98-14.98
				c0-5.96,3.44-11.24,8.82-13.66c0.93-7.4,7.31-13.1,14.86-13.1s13.94,5.7,14.86,13.1c5.38,2.42,8.82,7.7,8.82,13.66
				C82.4,66.54,75.68,73.26,67.42,73.26z M58.72,67.41l0.76,0.62c2.23,1.82,5.05,2.83,7.94,2.83c6.94,0,12.58-5.64,12.58-12.58
				c0-5.21-3.13-9.81-7.98-11.71l-0.7-0.28l-0.06-0.75c-0.49-6.52-6-11.62-12.54-11.62c-6.55,0-12.06,5.1-12.54,11.62l-0.06,0.75
				l-0.7,0.28c-4.85,1.9-7.98,6.5-7.98,11.71c0,6.94,5.64,12.58,12.58,12.58c2.89,0,5.71-1,7.94-2.83L58.72,67.41z"/>
		</g>
		<g>
			<rect x="57.52" y="48.12" class="st2" width="2.4" height="38.7"/>
		</g>
		<g>
			
				<rect x="53.55" y="57.33" transform="matrix(0.4972 -0.8677 0.8677 0.4972 -26.1818 78.6324)" class="st2" width="2.4" height="9.15"/>
		</g>
		<g>
			
				<rect x="58.11" y="53.41" transform="matrix(0.8671 -0.4981 0.4981 0.8671 -18.8704 38.4794)" class="st2" width="9.16" height="2.4"/>
		</g>
	</g>
</g>
</svg>
