<?xml version="1.0" encoding="utf-8"?>
<!-- Generator: Adobe Illustrator 27.2.0, SVG Export Plug-In . SVG Version: 6.00 Build 0)  -->
<svg version="1.1" id="Layer_1" xmlns="http://www.w3.org/2000/svg" xmlns:xlink="http://www.w3.org/1999/xlink" x="0px" y="0px"
	 viewBox="0 0 117.44 116.35" style="enable-background:new 0 0 117.44 116.35;" xml:space="preserve">
<style type="text/css">
	.st0{opacity:0.05;enable-background:new;}
	.st1{fill-rule:evenodd;clip-rule:evenodd;fill:#fff;}
	.st2{fill:#c7cb50;}
	.st3{fill-rule:evenodd;clip-rule:evenodd;fill:#c7cb50;}
</style>
<g>
	<g>
		<path class="st2" d="M36.46,92.03h-6.98c-1.32,0-2.4-1.08-2.4-2.4V70.7c0-1.32,1.08-2.4,2.4-2.4h6.98c1.32,0,2.4,1.08,2.4,2.4
			v18.93C38.86,90.95,37.78,92.03,36.46,92.03z M29.48,70.7l0,18.93h6.98V70.7H29.48z M29.48,69.5l0,1.2c0,0,0,0,0,0V69.5z"/>
	</g>
	<g>
		<path class="st2" d="M75.04,82.64H58.91v-2.4H72.3c-0.47-1.68-1.81-4.33-5.58-4.33c-4.2,0-6.53-0.07-8.23-0.12
			c-0.91-0.03-1.62-0.05-2.32-0.05c-1.1,0-2.11-0.58-3.29-1.26c-1.55-0.89-3.48-1.99-6.12-1.99c-4.4,0-8.37,2.73-8.41,2.75
			l-1.37-1.97c0.19-0.13,4.62-3.19,9.79-3.19c3.28,0,5.61,1.33,7.31,2.31c0.85,0.48,1.64,0.94,2.1,0.94c0.72,0,1.46,0.02,2.4,0.05
			c1.68,0.05,3.99,0.12,8.15,0.12c6.02,0,8.01,5.13,8.22,7.84L75.04,82.64z"/>
	</g>
	<g>
		<path class="st2" d="M63.31,92.88c-1.51,0-3.26-0.23-5.32-0.78c-2.73-0.73-5.27-1.44-7.44-2.05c-2.7-0.76-4.84-1.36-6.01-1.61
			c-2.39-0.51-4.42,0.01-6.06,1.54l-1.64-1.75c2.21-2.07,5.05-2.81,8.2-2.14c1.24,0.27,3.41,0.87,6.16,1.64
			c2.16,0.61,4.69,1.32,7.41,2.04c5.76,1.53,8.39,0.32,11-1.3c2.28-1.41,14.99-9.54,19.15-12.21c-1.05-0.78-2.78-1.63-4.62-0.77
			c-3.77,1.75-10.27,4.94-10.34,4.97l-1.05-2.16c0.07-0.03,6.59-3.22,10.38-4.99c4.59-2.14,8.35,2.15,8.51,2.34l0.9,1.05l-1.16,0.75
			c-0.18,0.11-17.76,11.37-20.5,13.07C68.9,91.74,66.69,92.88,63.31,92.88z"/>
	</g>
	<g>
		<path class="st2" d="M60.18,70.57c-9.78,0-17.73-7.95-17.73-17.73s7.95-17.73,17.73-17.73s17.73,7.95,17.73,17.73
			S69.96,70.57,60.18,70.57z M60.18,37.51c-8.45,0-15.33,6.88-15.33,15.33c0,8.45,6.88,15.33,15.33,15.33
			c8.45,0,15.33-6.88,15.33-15.33C75.51,44.39,68.63,37.51,60.18,37.51z"/>
	</g>
	<g>
		<path class="st3" d="M63.33,57.12c0-0.69-0.25-1.29-0.75-1.79s-1.32-0.94-2.46-1.33c-1.58-0.48-2.77-1.12-3.58-1.91
			c-0.8-0.8-1.21-1.86-1.21-3.19c0-1.29,0.37-2.34,1.11-3.15s1.76-1.3,3.05-1.46V41.7h1.85v2.6c1.31,0.19,2.33,0.75,3.05,1.69
			s1.08,2.19,1.08,3.76h-2.3c0-1.06-0.24-1.92-0.74-2.58c-0.49-0.66-1.18-0.98-2.05-0.98c-0.92,0-1.61,0.24-2.07,0.72
			s-0.68,1.14-0.68,1.97c0,0.76,0.24,1.37,0.71,1.84c0.47,0.47,1.32,0.91,2.56,1.33c1.6,0.52,2.79,1.16,3.56,1.93
			c0.78,0.77,1.16,1.82,1.16,3.14c0,1.34-0.4,2.41-1.21,3.2c-0.8,0.79-1.91,1.26-3.32,1.41v2.25h-1.84v-2.24
			c-1.34-0.14-2.45-0.63-3.3-1.48c-0.86-0.84-1.28-2.08-1.24-3.7l0.02-0.06h2.23c0,1.2,0.3,2.06,0.91,2.57
			c0.6,0.51,1.35,0.77,2.23,0.77c1.01,0,1.79-0.24,2.36-0.72C63.05,58.64,63.33,57.98,63.33,57.12z"/>
	</g>
	<g>
		<g>
			<rect x="49.69" y="25.85" class="st2" width="2.4" height="6.55"/>
		</g>
		<g>
			<rect x="58.98" y="19.81" class="st2" width="2.4" height="12.59"/>
		</g>
		<g>
			<rect x="68.27" y="25.85" class="st2" width="2.4" height="6.55"/>
		</g>
	</g>
</g>
</svg>
