<?xml version="1.0" encoding="utf-8"?>
<!-- Generator: Adobe Illustrator 27.2.0, SVG Export Plug-In . SVG Version: 6.00 Build 0)  -->
<svg version="1.1" id="Layer_1" xmlns="http://www.w3.org/2000/svg" xmlns:xlink="http://www.w3.org/1999/xlink" x="0px" y="0px"
	 viewBox="0 0 117.44 116.35" style="enable-background:new 0 0 117.44 116.35;" xml:space="preserve">
<style type="text/css">
	.st0{opacity:0.05;enable-background:new;}
	.st1{fill-rule:evenodd;clip-rule:evenodd;fill:#c7cb50;}
	.st2{fill:#c7cb50;}
</style>
<g>
	<g>
		<g>
			<path class="st2" d="M55.02,80.61c-5.05,0-8.82-1.01-9.17-1.11l0.64-2.31c0.18,0.05,17.82,4.74,27.7-7.02
				c8.66-10.32,6.46-24.59,5.69-28.32c-3.43,0.18-15.46,1.37-24.39,9.28C45.01,60.39,43.9,73.37,43.89,73.5l-2.39-0.18
				c0.04-0.57,1.21-14.09,12.4-23.99c11.16-9.88,26.31-9.93,26.94-9.91l0.92,0l0.24,0.88c0.2,0.75,4.83,18.55-5.96,31.4
				C69.93,78.97,61.44,80.61,55.02,80.61z"/>
		</g>
		<g>
			<path class="st2" d="M37.76,84.29l-0.92-2.22c0.04-0.02,3.9-1.63,8.83-4.82c15.52-10.01,19.92-20.43,19.96-20.54l2.22,0.91
				c-0.19,0.45-4.74,11.23-20.88,21.64C41.85,82.58,37.92,84.22,37.76,84.29z"/>
		</g>
		<g>
			<path class="st2" d="M47.11,62.35l-2.36-0.44c1.47-7.86-0.73-17.09-0.76-17.19l2.33-0.57C46.42,44.55,48.68,53.97,47.11,62.35z"
				/>
		</g>
		<g>
			<path class="st2" d="M43.39,68.34c-0.33-0.19-8.2-4.73-7.58-18.12c0.63-13.36,7.83-17.11,8.13-17.27l0.61-0.3l0.57,0.36
				c6.49,4.12,9.81,9.38,10.76,17.07l-2.38,0.29c-0.84-6.75-3.55-11.25-9.03-14.92c-1.55,1.1-5.79,5-6.26,14.88
				c-0.55,11.84,6.07,15.76,6.35,15.92L43.39,68.34z"/>
		</g>
	</g>
</g>
</svg>
