<?xml version="1.0" encoding="utf-8"?>
<!-- Generator: Adobe Illustrator 27.2.0, SVG Export Plug-In . SVG Version: 6.00 Build 0)  -->
<svg version="1.1" id="Layer_1" xmlns="http://www.w3.org/2000/svg" xmlns:xlink="http://www.w3.org/1999/xlink" x="0px" y="0px"
	 viewBox="0 0 117.44 116.35" style="enable-background:new 0 0 117.44 116.35;" xml:space="preserve">
<style type="text/css">
	.st0{opacity:0.02;enable-background:new    ;}
	.st1{fill-rule:evenodd;clip-rule:evenodd;fill:#c7cb50;}
	.st2{fill:#c7cb50;}
	.st3{fill-rule:evenodd;clip-rule:evenodd;fill:#c7cb50;}
</style>
<g>
	<g>
		<g>
			<path class="st2" d="M58.72,88.65c-16.33,0-29.61-13.28-29.61-29.61s13.28-29.61,29.61-29.61c16.33,0,29.61,13.28,29.61,29.61
				S75.05,88.65,58.72,88.65z M58.72,31.83c-15,0-27.21,12.21-27.21,27.21s12.21,27.21,27.21,27.21c15,0,27.21-12.21,27.21-27.21
				S73.72,31.83,58.72,31.83z"/>
		</g>
		<g>
			<path class="st3" d="M35.59,59.04c0-0.81,0.65-1.46,1.46-1.46c0.81,0,1.46,0.65,1.46,1.46s-0.65,1.46-1.46,1.46
				S35.59,59.84,35.59,59.04L35.59,59.04z M42.37,75.4c-0.57-0.57-0.57-1.5,0-2.07s1.5-0.57,2.07,0s0.57,1.5,0,2.07
				C43.86,75.97,42.94,75.97,42.37,75.4L42.37,75.4z M73.02,44.74c-0.57-0.57-0.57-1.5,0-2.07s1.5-0.57,2.07,0s0.57,1.5,0,2.07
				S73.59,45.31,73.02,44.74L73.02,44.74z M58.73,35.9c0.81,0,1.46,0.65,1.46,1.46c0,0.81-0.65,1.46-1.46,1.46
				c-0.81,0-1.46-0.65-1.46-1.46C57.27,36.55,57.92,35.9,58.73,35.9L58.73,35.9z M58.73,79.25c0.81,0,1.46,0.65,1.46,1.46
				s-0.65,1.46-1.46,1.46c-0.81,0-1.46-0.65-1.46-1.46C57.27,79.91,57.92,79.25,58.73,79.25L58.73,79.25z M78.95,59.04
				c0-0.81,0.65-1.46,1.46-1.46s1.46,0.65,1.46,1.46s-0.65,1.46-1.46,1.46S78.95,59.84,78.95,59.04L78.95,59.04z M42.37,42.68
				c0.57-0.57,1.5-0.57,2.07,0s0.57,1.5,0,2.07s-1.5,0.57-2.07,0C41.8,44.17,41.8,43.25,42.37,42.68z"/>
		</g>
		<g>
			<polygon class="st2" points="72.58,74.58 57.4,59.54 57.4,45.6 59.8,45.6 59.8,58.54 74.26,72.88 			"/>
		</g>
	</g>
</g>
</svg>
