<?xml version="1.0"?><svg fill="#31468c" xmlns="http://www.w3.org/2000/svg"  viewBox="0 0 64 64" width="64px" height="64px">    <path d="M 5 8 C 3.346 8 2 9.346 2 11 L 2 51 C 2 52.654 3.346 54 5 54 L 59 54 C 60.654 54 62 52.654 62 51 L 62 11 C 62 9.346 60.654 8 59 8 L 5 8 z M 5 10 L 59 10 C 59.552 10 60 10.448 60 11 L 60 51 C 60 51.552 59.552 52 59 52 L 5 52 C 4.448 52 4 51.552 4 51 L 4 11 C 4 10.448 4.448 10 5 10 z M 12.789062 12 C 12.039062 12 11.355906 12.425375 11.003906 13.109375 C 10.150906 14.766375 8.767375 16.150906 7.109375 17.003906 C 6.425375 17.355906 6 18.039062 6 18.789062 L 6 43.210938 C 6 43.960938 6.425375 44.644094 7.109375 44.996094 C 8.766375 45.849094 10.150906 47.232625 11.003906 48.890625 C 11.355906 49.574625 12.039062 50 12.789062 50 L 51.210938 50 C 51.960938 50 52.644094 49.574625 52.996094 48.890625 C 53.849094 47.233625 55.232625 45.849094 56.890625 44.996094 C 57.574625 44.644094 58 43.960938 58 43.210938 L 58 18.789062 C 58 18.039062 57.574625 17.355906 56.890625 17.003906 C 55.233625 16.150906 53.849094 14.767375 52.996094 13.109375 C 52.644094 12.425375 51.960938 12 51.210938 12 L 12.789062 12 z M 12.789062 14 L 51.210938 14 L 51.21875 14.023438 C 52.26175 16.049437 53.949 17.738062 56 18.789062 L 55.994141 24.001953 C 55.444141 24.004953 55 24.449 55 25 L 55 27 C 55 27.549 55.442234 27.993047 55.990234 27.998047 L 55.976562 43.21875 C 53.950563 44.26175 52.261937 45.949 51.210938 48 L 12.78125 47.976562 C 11.73825 45.949562 10.051 44.261937 8 43.210938 L 8.015625 27.996094 C 8.561625 27.987094 9 27.547 9 27 L 9 25 C 9 24.454 8.5625312 24.014906 8.0195312 24.003906 L 8.0234375 18.78125 C 10.049437 17.73825 11.738062 16.051 12.789062 14 z M 32 16 C 31.447 16 31 16.447 31 17 L 31 18 C 28.794 18 27 19.794 27 22 L 27 23 C 27 25.206 28.794 27 31 27 L 33 27 C 34.103 27 35 27.897 35 29 L 35 30 C 35 31.103 34.103 32 33 32 L 33 29 C 33 28.447 32.553 28 32 28 C 31.447 28 31 28.447 31 29 L 31 32 C 29.897 32 29 31.103 29 30 C 29 29.447 28.553 29 28 29 C 27.447 29 27 29.447 27 30 C 27 32.206 28.794 34 31 34 L 31 35 C 31 35.553 31.447 36 32 36 C 32.553 36 33 35.553 33 35 L 33 34 C 35.206 34 37 32.206 37 30 L 37 29 C 37 26.794 35.206 25 33 25 L 33 22 C 33 21.447 32.553 21 32 21 C 31.447 21 31 21.447 31 22 L 31 25 C 29.897 25 29 24.103 29 23 L 29 22 C 29 20.897 29.897 20 31 20 L 33 20 C 34.103 20 35 20.897 35 22 C 35 22.553 35.447 23 36 23 C 36.553 23 37 22.553 37 22 C 37 19.794 35.206 18 33 18 L 33 17 C 33 16.447 32.553 16 32 16 z M 13 24 C 12.447 24 12 24.447 12 25 L 12 27 C 12 27.553 12.447 28 13 28 C 13.553 28 14 27.553 14 27 L 14 25 C 14 24.447 13.553 24 13 24 z M 18 24 C 17.447 24 17 24.447 17 25 L 17 27 C 17 27.553 17.447 28 18 28 C 18.553 28 19 27.553 19 27 L 19 25 C 19 24.447 18.553 24 18 24 z M 23 24 C 22.447 24 22 24.447 22 25 L 22 27 C 22 27.553 22.447 28 23 28 C 23.553 28 24 27.553 24 27 L 24 25 C 24 24.447 23.553 24 23 24 z M 41 24 C 40.447 24 40 24.447 40 25 L 40 27 C 40 27.553 40.447 28 41 28 C 41.553 28 42 27.553 42 27 L 42 25 C 42 24.447 41.553 24 41 24 z M 46 24 C 45.447 24 45 24.447 45 25 L 45 27 C 45 27.553 45.447 28 46 28 C 46.553 28 47 27.553 47 27 L 47 25 C 47 24.447 46.553 24 46 24 z M 51 24 C 50.447 24 50 24.447 50 25 L 50 27 C 50 27.553 50.447 28 51 28 C 51.553 28 52 27.553 52 27 L 52 25 C 52 24.447 51.553 24 51 24 z M 13 38 C 12.447 38 12 38.447 12 39 C 12 39.553 12.447 40 13 40 L 51 40 C 51.553 40 52 39.553 52 39 C 52 38.447 51.553 38 51 38 L 13 38 z M 19 42 C 18.447 42 18 42.447 18 43 C 18 43.553 18.447 44 19 44 L 37 44 C 37.553 44 38 43.553 38 43 C 38 42.447 37.553 42 37 42 L 19 42 z M 41 42 C 40.447 42 40 42.447 40 43 C 40 43.553 40.447 44 41 44 L 45 44 C 45.553 44 46 43.553 46 43 C 46 42.447 45.553 42 45 42 L 41 42 z"/></svg>