<svg
    viewBox="0 0 300 35"
    fill="none"
    xmlns="http://www.w3.org/2000/svg"
  >
    <svg
      stroke-linecap="round"
      display="block"
      stroke-width="2"
      viewBox="0 0 300 35"
      class="primary--text"
    >
      <defs>
        <linearGradient
          id="598"
          x1="0"
          y1="1"
          x2="0"
          y2="0"
        >
          <stop
            offset="0"
            stop-color="rgba(246,122,94, 0.1)"
          /><stop
            offset="1"
            stop-color="rgba(246,122,94, 1)"
          /></linearGradient></defs><path
        id="598"
        d="M0 37 L0 34.99999L10.714285714285714 33.62204724409449L19.437407506251326 32.799341619270436S21.428571428571427
        32.61154855643045 23.40517066003536 32.30649859629901L30.166257911393206 31.263055209475272S32.14285714285714
        30.95800524934383 34.13235468866599 31.162698960093717L40.867645311334 31.855673743318356S42.857142857142854
        32.06036745406824 44.79003310409502 31.546621122463634L51.6385383244764 29.72634475680146S53.57142857142857
        29.212598425196852 55.571134587278124 29.17830775335901L62.28600826986472 29.063162062913957S64.28571428571428
        29.028871391076116 66.26480187664751 28.740405955687248L75 27.46719160104987L83.76581408040047
        25.437940152516212S85.71428571428571 24.986876640419947 87.69337330521894 25.275342075808815L94.44948383763818
        26.260090995057325S96.42857142857142 26.548556430446194 98.35729465482349 26.01938092410092L105.21413391660506
        24.13809939085971S107.14285714285714 23.608923884514436 109.13235468866598 23.40423017376455L115.867645311334
        22.71125539053991S117.85714285714285 22.506561679790025 119.76817956259868 21.916698381728068L126.66039186597273
        19.789338363678755S128.57142857142856 19.1994750656168 130.57135506323556 19.182327839352837L137.28578779390728
        19.124758774820393S139.28571428571428 19.10761154855643 141.27521183152314 18.902917837806545L150
        18.00524934383202L160.7142857142857 17.27034120734908L169.43121262824044 16.821911371355608S171.42857142857142
        16.719160104986877 173.36146167552357 16.20541377338227L180.20996689590498 14.385137407720094S182.14285714285714
        13.871391076115486 183.8834890891628 12.886403549544621L191.11651091083718 8.7933864767021S192.85714285714283
        7.8083989501312345 194.7284115895987 8.514340400205569L201.7001598389727 11.14445225071307S203.57142857142856
        11.850393700787404 205.50837939757037 11.352175378052761L212.34876345957247 9.59270651171102S214.28571428571428
        9.094488188976378 216.05795969390795 8.167586784760998L223.2277545918063 4.417715052509345S224.99999999999997
        3.4908136482939653 226.98769100370737 3.269263487425793L233.7265947105783 2.518138087377362S235.7142857142857
        2.29658792650919 237.60109992608085 2.9598617237964113L244.54175721677626 5.3997183286970305S246.42857142857142
        6.062992125984252 248.29984016102728 5.357050675909916L255.27158841040125 2.7269388254024225S257.1428571428571
        2.0209973753280863 259.1402159431881 1.918246108959353L265.85978405681186 1.5725675393346124S267.85714285714283
        1.469816272965879 269.8564815750459 1.4183897127678478L276.5720898535255 1.2456522819828066S278.57142857142856
        1.1942257217847754 280.5591195751359 0.9726755609166031L287.2980232820069 0.2215501608681722S289.2857142857143
        0 291.2857142857134 0.0000018666666666658524L300 0.00001L300 37 Z"
        fill="url(#598)"
        stroke="none"
        style="transform-origin: center bottom; transition: transform 2000ms ease 0s; transform: scaleY(1);"
      /></svg>
    <svg
      stroke-linecap="round"
      display="block"
      stroke-width="2"
      viewBox="0 0 300 35"
      class="absolute-line primary--text"
    ><defs><linearGradient
      id="599"
      x1="0"
      y1="1"
      x2="0"
      y2="0"
    ><stop
      offset="0"
      stop-color="rgba(246,122,94, 1)"
    /></linearGradient></defs><path
      id="599"
      d="M0 34.99999L10.714285714285714 33.62204724409449L19.437407506251326 32.799341619270436S21.428571428571427
      32.61154855643045 23.40517066003536 32.30649859629901L30.166257911393206 31.263055209475272S32.14285714285714
      30.95800524934383 34.13235468866599 31.162698960093717L40.867645311334 31.855673743318356S42.857142857142854
      32.06036745406824 44.79003310409502 31.546621122463634L51.6385383244764 29.72634475680146S53.57142857142857
      29.212598425196852 55.571134587278124 29.17830775335901L62.28600826986472 29.063162062913957S64.28571428571428
      29.028871391076116 66.26480187664751 28.740405955687248L75 27.46719160104987L83.76581408040047
      25.437940152516212S85.71428571428571 24.986876640419947 87.69337330521894 25.275342075808815L94.44948383763818
      26.260090995057325S96.42857142857142 26.548556430446194 98.35729465482349 26.01938092410092L105.21413391660506
      24.13809939085971S107.14285714285714 23.608923884514436 109.13235468866598 23.40423017376455L115.867645311334
      22.71125539053991S117.85714285714285 22.506561679790025 119.76817956259868 21.916698381728068L126.66039186597273
      19.789338363678755S128.57142857142856 19.1994750656168 130.57135506323556 19.182327839352837L137.28578779390728
      19.124758774820393S139.28571428571428 19.10761154855643 141.27521183152314 18.902917837806545L150
      18.00524934383202L160.7142857142857 17.27034120734908L169.43121262824044 16.821911371355608S171.42857142857142
      16.719160104986877 173.36146167552357 16.20541377338227L180.20996689590498 14.385137407720094S182.14285714285714
      13.871391076115486 183.8834890891628 12.886403549544621L191.11651091083718 8.7933864767021S192.85714285714283
      7.8083989501312345 194.7284115895987 8.514340400205569L201.7001598389727 11.14445225071307S203.57142857142856
      11.850393700787404 205.50837939757037 11.352175378052761L212.34876345957247 9.59270651171102S214.28571428571428
      9.094488188976378 216.05795969390795 8.167586784760998L223.2277545918063 4.417715052509345S224.99999999999997
      3.4908136482939653 226.98769100370737 3.269263487425793L233.7265947105783 2.518138087377362S235.7142857142857
      2.29658792650919 237.60109992608085 2.9598617237964113L244.54175721677626 5.3997183286970305S246.42857142857142
      6.062992125984252 248.29984016102728 5.357050675909916L255.27158841040125 2.7269388254024225S257.1428571428571
      2.0209973753280863 259.1402159431881 1.918246108959353L265.85978405681186 1.5725675393346124S267.85714285714283
      1.469816272965879 269.8564815750459 1.4183897127678478L276.5720898535255 1.2456522819828066S278.57142857142856
      1.1942257217847754 280.5591195751359 0.9726755609166031L287.2980232820069 0.2215501608681722S289.2857142857143
      0 291.2857142857134 0.0000018666666666658524L300 0.00001"
      fill="none"
      stroke="url(#599)"
      style="transition: stroke-dashoffset 2000ms ease 0s; stroke-dasharray: 307.135, 307.135; stroke-dashoffset: 0;"
    /></svg>
  </svg>