<svg width="30" height="30" viewBox="0 0 30 30" fill="none" xmlns="http://www.w3.org/2000/svg">
<path d="M29.5 0H0.5C0.224 0 0 0.2235 0 0.5V29.5C0 29.7765 0.224 30 0.5 30H29.5C29.776 30 30 29.7765 30 29.5V0.5C30 0.2235 29.776 0 29.5 0ZM29 29H1V1H29V29Z" fill="#9D9C9C"/>
<path d="M27.5 4.5C26.397 4.5 25.5 3.603 25.5 2.5C25.5 2.2235 25.276 2 25 2H5C4.724 2 4.5 2.2235 4.5 2.5C4.5 3.603 3.603 4.5 2.5 4.5C2.224 4.5 2 4.7235 2 5V25C2 25.2765 2.224 25.5 2.5 25.5C3.603 25.5 4.5 26.397 4.5 27.5C4.5 27.7765 4.724 28 5 28H25C25.276 28 25.5 27.7765 25.5 27.5C25.5 26.397 26.397 25.5 27.5 25.5C27.776 25.5 28 25.2765 28 25V5C28 4.7235 27.776 4.5 27.5 4.5ZM27.0005 24.5415C25.746 24.753 24.7535 25.7455 24.542 27H5.4585C5.2475 25.7455 4.2545 24.753 3 24.5415V5.4585C4.2545 5.247 5.247 4.2545 5.4585 3H24.542C24.753 4.2545 25.746 5.247 27.0005 5.4585V24.5415Z" fill="#9D9C9C"/>
<path d="M16.3 17.6L14.548 16.286C14.6285 16.117 14.801 16 15 16C15.2755 16 15.5 16.224 15.5 16.5H16.5C16.5 15.849 16.0805 15.299 15.5 15.092V14.5H14.5V15.092C13.9195 15.299 13.5 15.849 13.5 16.5C13.5 16.657 13.574 16.8055 13.7 16.9L15.452 18.214C15.3715 18.383 15.199 18.5 15 18.5C14.7245 18.5 14.5 18.276 14.5 18H13.5C13.5 18.651 13.9195 19.201 14.5 19.408V20H15.5V19.408C16.0805 19.201 16.5 18.651 16.5 18C16.5 17.843 16.426 17.6945 16.3 17.6Z" fill="#9D9C9C"/>
<path d="M17.5 12V9.5H18C18.2105 9.5 18.3985 9.368 18.47 9.1705C18.5415 8.9725 18.4815 8.7505 18.32 8.616L15.32 6.116C15.1345 5.9615 14.8655 5.9615 14.68 6.116L11.68 8.616C11.5185 8.751 11.4585 8.9725 11.53 9.1705C11.6015 9.368 11.7895 9.5 12 9.5H12.5V12H11.5V13H18.5V12H17.5ZM14.5 12H13.5V9.5H14.5V12ZM16.5 12H15.5V9.5H16.5V12ZM13.381 8.5L15 7.151L16.619 8.5H13.381Z" fill="#9D9C9C"/>
<path d="M19.5 17H17.5V18H19.5V17Z" fill="#9D9C9C"/>
<path d="M12.5 17H10.5V18H12.5V17Z" fill="#9D9C9C"/>
<path d="M21.5 21H8.5C8.224 21 8 21.2235 8 21.5V23.5C8 23.7765 8.224 24 8.5 24H21.5C21.776 24 22 23.7765 22 23.5V21.5C22 21.2235 21.776 21 21.5 21ZM21 23H9V22H21V23Z" fill="#9D9C9C"/>
</svg>
