<svg
    viewBox="0 0 300 25"
    fill="none"
    xmlns="http://www.w3.org/2000/svg"
  >
    <svg
      stroke-linecap="round"
      display="block"
      stroke-width="2"
      viewBox="0 0 300 25"
      class="primary--text"
    >
      <defs><linearGradient
        id="606"
        x1="0"
        y1="1"
        x2="0"
        y2="0"
      >
        <stop
          offset="0"
          stop-color="rgba(237,52,65, 0.1)"
        /><stop
          offset="1"
          stop-color="rgba(237,52,65, 1)"
        /></linearGradient></defs><path
        id="606"
        d="M0 27 L0 24.99999L8.735219488396625 23.726111977480347S10.714285714285714 23.4375 12.707377230775473
        23.27140904029252L21.428571428571427 22.544642857142858L32.14285714285714 21.651785714285715L42.857142857142854
        20.75892857142857L53.57142857142857 19.419642857142858L64.28571428571428 17.857142857142858L73.01544424657267
        16.76592661203556S75 16.517857142857142 76.97906596212657 16.229243356713685L85.71428571428571
        14.955357142857142L96.42857142857142 13.392857142857142L107.14285714285714 11.607142857142856L117.85714285714285
        10.044642857142856L128.57142857142856 9.375L139.28571428571428 8.705357142857142L150
        8.25892857142857L160.7142857142857 7.366071428571427L169.44401567514407 6.274855183464129S171.42857142857142
        6.026785714285712 173.40763739069797 5.738171928142255L180.16379118073058 4.7528995004291685S182.14285714285714
        4.464285714285712 184.12741289628448 4.216216245107295L192.85714285714283 3.125L201.5753234144628
        2.5801137151675033S203.57142857142856 2.4553571428571423 205.57099468488477 2.4136995154934713L214.28571428571428
        2.2321428571428577L223.00043388654376 2.0505861987922414S224.99999999999997 2.0089285714285694 226.99956611345618
        1.9672709440648983L235.7142857142857 1.7857142857142847L246.42857142857142 1.5625L255.1428571428571
        1.5625S257.1428571428571 1.5625 259.14242325631335 1.5208423726363283L267.85714285714283
        1.3392857142857117L276.57142857142856 1.3392857142857117S278.57142857142856 1.3392857142857117
        280.5645200879183 1.173194754578232L287.2926227692245 0.6125195311360492S289.2857142857143 0.4464285714285694
        291.2839805094738 0.3631693438203991L300 0.00001L300 27 Z"
        fill="url(#606)"
        stroke="none"
        style="transform-origin: center bottom; transition: transform 2000ms ease 0s; transform: scaleY(1);"
      /></svg>
    <svg
      stroke-linecap="round"
      display="block"
      stroke-width="2"
      viewBox="0 0 300 25"
      class="absolute-line primary--text"
    ><defs><linearGradient
      id="607"
      x1="0"
      y1="1"
      x2="0"
      y2="0"
    ><stop
      offset="0"
      stop-color="rgba(237,52,65, 1)"
    /></linearGradient></defs><path
      id="607"
      d="M0 24.99999L8.735219488396625 23.726111977480347S10.714285714285714 23.4375 12.707377230775473
      23.27140904029252L21.428571428571427 22.544642857142858L32.14285714285714 21.651785714285715L42.857142857142854
      20.75892857142857L53.57142857142857 19.419642857142858L64.28571428571428 17.857142857142858L73.01544424657267
      16.76592661203556S75 16.517857142857142 76.97906596212657 16.229243356713685L85.71428571428571
      14.955357142857142L96.42857142857142 13.392857142857142L107.14285714285714 11.607142857142856L117.85714285714285
      10.044642857142856L128.57142857142856 9.375L139.28571428571428 8.705357142857142L150 8.25892857142857L160.7142857142857
      7.366071428571427L169.44401567514407 6.274855183464129S171.42857142857142 6.026785714285712 173.40763739069797
      5.738171928142255L180.16379118073058 4.7528995004291685S182.14285714285714 4.464285714285712 184.12741289628448
      4.216216245107295L192.85714285714283 3.125L201.5753234144628 2.5801137151675033S203.57142857142856
      2.4553571428571423 205.57099468488477 2.4136995154934713L214.28571428571428 2.2321428571428577L223.00043388654376
      2.0505861987922414S224.99999999999997 2.0089285714285694 226.99956611345618 1.9672709440648983L235.7142857142857
      1.7857142857142847L246.42857142857142 1.5625L255.1428571428571 1.5625S257.1428571428571 1.5625 259.14242325631335
      1.5208423726363283L267.85714285714283 1.3392857142857117L276.57142857142856 1.3392857142857117S278.57142857142856
      1.3392857142857117 280.5645200879183 1.173194754578232L287.2926227692245 0.6125195311360492S289.2857142857143
      0.4464285714285694 291.2839805094738 0.3631693438203991L300 0.00001"
      fill="none"
      stroke="url(#607)"
      style="transition: stroke-dashoffset 2000ms ease 0s; stroke-dasharray: 301.434, 301.434; stroke-dashoffset: 0;"
    /></svg>
  </svg>