<svg xmlns="http://www.w3.org/2000/svg" fill="#31468c" width="128" height="128" viewBox="0 0 128 128">
  <title>MONEY</title>
  <g>
    <path d="M64,43.068A20.932,20.932,0,1,0,84.932,64,20.956,20.956,0,0,0,64,43.068Zm0,38.364A17.432,17.432,0,1,1,81.432,64,17.452,17.452,0,0,1,64,81.432Z"/>
    <path d="M65.477,62.311H62.523a2.651,2.651,0,0,1,0-5.3H68.1a1.75,1.75,0,0,0,0-3.5H65.75V52.153a1.75,1.75,0,1,0-3.5,0v1.371a6.146,6.146,0,0,0,.273,12.287h2.954a2.65,2.65,0,1,1,0,5.3H59.9a1.75,1.75,0,0,0,0,3.5H62.25v1.236a1.75,1.75,0,0,0,3.5,0V74.6a6.146,6.146,0,0,0-.273-12.286Z"/>
    <path d="M114.7,28.34H13.3a7.758,7.758,0,0,0-7.75,7.75V91.91a7.758,7.758,0,0,0,7.75,7.75H114.7a7.758,7.758,0,0,0,7.75-7.75V36.09A7.758,7.758,0,0,0,114.7,28.34ZM23.523,92.66h80.953a16.93,16.93,0,0,0-.747,3.5H24.27A16.865,16.865,0,0,0,23.523,92.66Zm82.562-3.5H21.915A17.154,17.154,0,0,0,16.05,83.3V44.7a17.154,17.154,0,0,0,5.865-5.859h84.17A17.146,17.146,0,0,0,111.95,44.7V83.3A17.146,17.146,0,0,0,106.085,89.16ZM9.05,80.949v-33.9a16.928,16.928,0,0,0,3.5-.746v35.39A16.928,16.928,0,0,0,9.05,80.949ZM104.476,35.34H23.523a16.865,16.865,0,0,0,.747-3.5h79.459A16.93,16.93,0,0,0,104.476,35.34ZM115.45,46.305a16.928,16.928,0,0,0,3.5.746v33.9a16.928,16.928,0,0,0-3.5.746ZM114.7,31.84a4.255,4.255,0,0,1,4.25,4.25v7.438a13.585,13.585,0,0,1-11.7-11.688ZM9.05,36.09a4.255,4.255,0,0,1,4.25-4.25h7.447A13.583,13.583,0,0,1,9.05,43.528ZM13.3,96.16a4.255,4.255,0,0,1-4.25-4.25V84.472a13.583,13.583,0,0,1,11.7,11.688Zm105.65-4.25a4.255,4.255,0,0,1-4.25,4.25h-7.448a13.585,13.585,0,0,1,11.7-11.688Z"/>
    <path d="M26.769,57.945A6.132,6.132,0,1,0,32.9,64.077,6.139,6.139,0,0,0,26.769,57.945Zm0,8.764A2.632,2.632,0,1,1,29.4,64.077,2.634,2.634,0,0,1,26.769,66.709Z"/>
    <path d="M101.231,57.945a6.132,6.132,0,1,0,6.132,6.132A6.139,6.139,0,0,0,101.231,57.945Zm0,8.764a2.632,2.632,0,1,1,2.632-2.632A2.634,2.634,0,0,1,101.231,66.709Z"/>
  </g>
</svg>
