<svg width="24" height="30" viewBox="0 0 24 30" fill="none" xmlns="http://www.w3.org/2000/svg">
<path d="M0 4.82823L0 28.4964C0 29.3255 0.718798 29.9999 1.6024 29.9999H14.2282C15.1118 29.9999 15.8306 29.3255 15.8306 28.4964V27.5893C15.8306 27.3535 15.6269 27.1624 15.3756 27.1624C15.1243 27.1624 14.9205 27.3535 14.9205 27.5893V28.4964C14.9205 28.8546 14.61 29.146 14.2282 29.146H1.6024C1.22065 29.146 0.910082 28.8545 0.910082 28.4964L0.910082 4.82823C0.910082 4.47004 1.22065 4.17872 1.6024 4.17872H6.02517C6.27646 4.17872 6.48018 3.98758 6.48018 3.75174C6.48018 3.5159 6.27646 3.32483 6.02517 3.32483H1.6024C0.718798 3.32483 0 3.99924 0 4.82823Z" fill="#9D9C9C"/>
<path d="M3.43233 5.01196C3.11265 5.69287 2.53493 6.22953 1.80564 6.52291C1.49539 6.64778 1.29492 6.93436 1.29492 7.25299L1.29492 26.0721C1.29492 26.3907 1.49539 26.6773 1.8057 26.8022C2.53493 27.0955 3.11259 27.6321 3.43233 28.3132C3.56691 28.5998 3.87098 28.7849 4.20702 28.7849H11.6231C11.9591 28.7849 12.2632 28.5998 12.3978 28.3132C12.4756 28.1473 12.5707 27.9872 12.6805 27.8373C12.7346 27.7634 12.7605 27.6793 12.7605 27.596C12.7605 27.46 12.6915 27.3265 12.5631 27.2437C12.3559 27.1102 12.0726 27.1595 11.9303 27.3539C11.7969 27.5361 11.6802 27.7301 11.5829 27.9311H4.24712C3.83676 27.082 3.11409 26.4108 2.20494 26.0341L2.20494 7.29108C3.11409 6.91426 3.83676 6.24301 4.24712 5.39404H6.02862C6.27992 5.39404 6.48363 5.20291 6.48363 4.96713C6.48363 4.73135 6.27992 4.54021 6.02862 4.54021H4.20702C3.87092 4.54021 3.56685 4.72537 3.43233 5.01196Z" fill="#9D9C9C"/>
<path d="M5.8571 12.2677C3.99984 13.0339 2.7998 14.7588 2.7998 16.662C2.7998 18.5637 3.99847 20.2879 5.85367 21.0548C6.08367 21.1499 6.3522 21.0521 6.45356 20.8363C6.55492 20.6203 6.45056 20.3685 6.22062 20.2734C4.69541 19.6429 3.70995 18.2254 3.70995 16.662C3.70995 15.0974 4.69653 13.6794 6.22343 13.0494C6.39386 12.979 6.4954 12.8225 6.4954 12.6583C6.4954 12.6009 6.48297 12.5426 6.45681 12.4867C6.3557 12.2708 6.08723 12.1727 5.8571 12.2677Z" fill="#9D9C9C"/>
<path d="M7.35289 1.50328L7.35289 16.376H6.19188C6.23391 15.8243 6.50269 15.6193 6.50269 15.4302C6.50269 15.1937 6.18351 15.0834 6.02389 15.0834C5.61228 15.0834 5.43586 15.8401 5.41906 16.376H5.19224C5.09145 16.376 4.99902 16.4943 4.99902 16.6124C4.99902 16.7464 5.09145 16.841 5.19224 16.841H5.43586C5.51986 17.5898 5.93989 18.3386 6.99836 18.3386C7.12744 18.3386 7.24485 18.3267 7.35289 18.3055V25.1715C7.35289 26.0005 8.07168 26.6749 8.95529 26.6749H21.5812C22.4647 26.6749 23.1836 26.0005 23.1836 25.1715V1.50334C23.1836 0.674292 22.4648 -0.00012207 21.5812 -0.00012207H8.95535C8.07181 -0.000181198 7.35289 0.674232 7.35289 1.50328ZM6.20874 16.7937H7.35289V17.4113C7.24085 17.4986 7.10065 17.5504 6.91436 17.5504C6.47759 17.5504 6.26757 17.2351 6.20874 16.7937ZM22.2735 1.50328V25.1715C22.2735 25.5297 21.9629 25.821 21.5812 25.821H8.95535C8.57359 25.821 8.26303 25.5297 8.26303 25.1715L8.26303 1.50334C8.26303 1.14515 8.57359 0.853765 8.95535 0.853765H21.5812V0.853706C21.9629 0.853706 22.2735 1.14515 22.2735 1.50328Z" fill="#9D9C9C"/>
<path d="M10.7888 1.687C10.469 2.36798 9.89137 2.90464 9.16208 3.19802C8.85183 3.32288 8.65137 3.60946 8.65137 3.9281L8.65137 22.7472C8.65137 23.0658 8.85183 23.3524 9.16214 23.4773C9.89137 23.7706 10.469 24.3072 10.7888 24.9882C10.9234 25.2748 11.2274 25.46 11.5635 25.46H18.9795C19.3156 25.46 19.6196 25.2748 19.7542 24.9882C20.074 24.3072 20.6516 23.7706 21.3809 23.4773C21.6912 23.3524 21.8916 23.0658 21.8916 22.7472V3.9281C21.8916 3.60946 21.6912 3.32288 21.3808 3.19796C20.6516 2.90464 20.074 2.36804 19.7542 1.687C19.6196 1.40042 19.3156 1.21526 18.9795 1.21526H11.5635C11.2274 1.21526 10.9234 1.40042 10.7888 1.687ZM18.9394 2.06915C19.3498 2.91823 20.0725 3.58948 20.9816 3.96618V22.7092C20.0725 23.0859 19.3498 23.7572 18.9394 24.6062H11.6036C11.1932 23.7572 10.4705 23.0859 9.56139 22.7092L9.56139 3.96618C10.4705 3.58948 11.1932 2.91817 11.6036 2.06915H18.9394Z" fill="#9D9C9C"/>
<path d="M10.1533 13.3374C10.1533 15.9832 12.4474 18.1356 15.2673 18.1356C18.0871 18.1356 20.3812 15.9832 20.3812 13.3374C20.3812 10.6916 18.0871 8.53919 15.2673 8.53919C12.4474 8.53919 10.1533 10.6916 10.1533 13.3374ZM19.4712 13.3374C19.4712 15.5124 17.5854 17.2817 15.2673 17.2817C12.9493 17.2817 11.0635 15.5124 11.0635 13.3374C11.0635 11.1625 12.9493 9.39308 15.2673 9.39308C17.5854 9.39308 19.4712 11.1626 19.4712 13.3374Z" fill="#9D9C9C"/>
<path d="M14.7214 13.0614H13.0161C13.0581 12.5097 13.3269 12.3048 13.3269 12.1156C13.3269 11.8791 13.0077 11.7688 12.8481 11.7688C12.4365 11.7688 12.2601 12.5255 12.2433 13.0614H12.0165C11.9157 13.0614 11.8232 13.1797 11.8232 13.2979C11.8232 13.4319 11.9156 13.5264 12.0165 13.5264H12.2601C12.3441 14.2752 12.7641 15.024 13.8226 15.024C14.8978 15.024 15.2003 14.2358 15.4691 13.5264H17.4432C17.376 14.3304 16.7879 14.5432 16.7879 14.8033C16.7879 15.0004 17.0652 15.1659 17.2668 15.1659C17.6784 15.1659 18.2413 14.5038 18.2581 13.5265H18.5185C18.6193 13.5265 18.7117 13.4319 18.7117 13.2979C18.7117 13.1797 18.6194 13.0615 18.5185 13.0615H18.2329C18.1069 12.2102 17.5357 11.627 16.5024 11.627C15.3598 11.6269 14.9902 12.3757 14.7214 13.0614ZM14.5618 13.4792C14.3938 13.8969 14.2174 14.2358 13.7386 14.2358C13.3017 14.2358 13.0917 13.9206 13.033 13.4792H14.5618ZM17.4264 13.1087H15.6539C15.8303 12.7225 16.0655 12.4152 16.5947 12.4152C17.0737 12.4151 17.3424 12.6831 17.4264 13.1087Z" fill="#9D9C9C"/>
</svg>
