<svg width="32" height="30" viewBox="0 0 32 30" fill="none" xmlns="http://www.w3.org/2000/svg">
<path d="M30.2395 26.5526H29.8454V18.8622C29.8454 18.6051 29.637 18.3965 29.3797 18.3965C29.1225 18.3965 28.914 18.6051 28.914 18.8622V26.5527H19.0347V13.893H28.5335C28.7433 13.893 28.9141 14.0638 28.9141 14.2736V16.6682C28.9141 16.9254 29.1225 17.1339 29.3798 17.1339C29.6371 17.1339 29.8455 16.9254 29.8455 16.6682V14.2736C29.8455 13.5501 29.2569 12.9616 28.5335 12.9616H19.0347V4.49865C19.0347 3.82103 18.5075 3.24871 17.8331 3.19165V2.25745C17.8331 1.57715 17.3018 1.0026 16.6236 0.949448L4.56251 0.0041363C3.80093 -0.0560323 3.14802 0.547951 3.14802 1.31214V2.05794C2.45735 2.11693 1.94645 2.69465 1.94645 3.36501V26.5525H1.55234C0.696379 26.5525 0 27.2489 0 28.1049C0 28.9608 0.696379 29.6572 1.55234 29.6572H30.2395C31.0955 29.6572 31.7919 28.9608 31.7919 28.1049C31.7919 27.2489 31.0955 26.5526 30.2395 26.5526ZM4.07942 1.3122C4.07942 1.08916 4.26924 0.915297 4.4898 0.932745L16.5508 1.87799C16.7476 1.89346 16.9017 2.06011 16.9017 2.25745V3.11825L4.07936 2.11333V1.3122H4.07942ZM2.87785 3.36507C2.87785 3.14023 3.07015 2.96774 3.28816 2.98562L17.7524 4.1192C17.9491 4.13466 18.1032 4.30132 18.1032 4.49865V26.5526H16.8019V19.885C16.8019 19.4611 16.4571 19.1163 16.0333 19.1163H11.7066C11.2828 19.1163 10.938 19.4611 10.938 19.885V22.906C10.938 23.1632 11.1465 23.3717 11.4037 23.3717C11.6609 23.3717 11.8694 23.1632 11.8694 22.906V20.0477H15.8705V26.5526H11.8694V25.0832C11.8694 24.826 11.6609 24.6175 11.4037 24.6175C11.1465 24.6175 10.938 24.826 10.938 25.0832V26.5526H2.87785V3.36507ZM30.2395 28.7259H1.55234C1.20995 28.7259 0.931403 28.4473 0.931403 28.1049C0.931403 27.7625 1.20995 27.484 1.55234 27.484H30.2395C30.5819 27.484 30.8605 27.7625 30.8605 28.1049C30.8605 28.4473 30.5819 28.7259 30.2395 28.7259Z" fill="#9D9C9C"/>
<path d="M4.71231 9.05034H6.59734C7.0405 9.05034 7.40102 8.68983 7.40102 8.24673V6.79641C7.40102 6.35331 7.0405 5.9928 6.59734 5.9928H4.71231C4.26921 5.9928 3.90869 6.35331 3.90869 6.79641V8.24673C3.90869 8.68983 4.26921 9.05034 4.71231 9.05034ZM4.84009 6.92414H6.46968V8.11894H4.84009V6.92414Z" fill="#9D9C9C"/>
<path d="M9.41299 9.05034H11.298C11.7411 9.05034 12.1016 8.68983 12.1016 8.24673V6.79641C12.1016 6.35331 11.7411 5.9928 11.298 5.9928H9.41299C8.96989 5.9928 8.60938 6.35331 8.60938 6.79641V8.24673C8.60931 8.68983 8.96983 9.05034 9.41299 9.05034ZM9.54072 6.92414H11.1702V8.11894H9.54072V6.92414Z" fill="#9D9C9C"/>
<path d="M14.1132 9.05034H15.9982C16.4414 9.05034 16.8018 8.68983 16.8018 8.24673V6.79641C16.8018 6.35331 16.4413 5.9928 15.9982 5.9928H14.1132C13.6701 5.9928 13.3096 6.35331 13.3096 6.79641V8.24673C13.3095 8.68983 13.67 9.05034 14.1132 9.05034ZM14.2409 6.92414H15.8704V8.11894H14.2409V6.92414Z" fill="#9D9C9C"/>
<path d="M4.71231 13.2378H6.59734C7.0405 13.2378 7.40102 12.8773 7.40102 12.4342V10.9838C7.40102 10.5407 7.0405 10.1802 6.59734 10.1802H4.71231C4.26921 10.1802 3.90869 10.5407 3.90869 10.9838V12.4341C3.90869 12.8773 4.26921 13.2378 4.71231 13.2378ZM4.84009 11.1116H6.46968V12.3064H4.84009V11.1116Z" fill="#9D9C9C"/>
<path d="M9.41299 13.2378H11.298C11.7411 13.2378 12.1016 12.8773 12.1016 12.4342V10.9838C12.1016 10.5407 11.7411 10.1802 11.298 10.1802H9.41299C8.96989 10.1802 8.60938 10.5407 8.60938 10.9838V12.4341C8.60931 12.8773 8.96983 13.2378 9.41299 13.2378ZM9.54072 11.1116H11.1702V12.3064H9.54072V11.1116Z" fill="#9D9C9C"/>
<path d="M14.1132 13.2378H15.9982C16.4414 13.2378 16.8018 12.8773 16.8018 12.4342V10.9838C16.8018 10.5407 16.4413 10.1802 15.9982 10.1802H14.1132C13.6701 10.1802 13.3096 10.5407 13.3096 10.9838V12.4341C13.3095 12.8773 13.67 13.2378 14.1132 13.2378ZM14.2409 11.1116H15.8704V12.3064H14.2409V11.1116Z" fill="#9D9C9C"/>
<path d="M4.71231 17.4252H6.59734C7.0405 17.4252 7.40102 17.0647 7.40102 16.6216V15.1713C7.40102 14.7282 7.0405 14.3677 6.59734 14.3677H4.71231C4.26921 14.3677 3.90869 14.7282 3.90869 15.1713V16.6216C3.90869 17.0647 4.26921 17.4252 4.71231 17.4252ZM4.84009 15.299H6.46968V16.4938H4.84009V15.299Z" fill="#9D9C9C"/>
<path d="M8.97478 19.1165H4.80284C4.30982 19.1165 3.90869 19.5176 3.90869 20.0106V21.2799C3.90869 21.7729 4.30982 22.1741 4.80284 22.1741H8.97478C9.4678 22.1741 9.86892 21.7729 9.86892 21.2799V20.0106C9.86892 19.5176 9.4678 19.1165 8.97478 19.1165ZM8.93752 21.2427H4.84009V20.0479H8.93752V21.2427Z" fill="#9D9C9C"/>
<path d="M9.41299 17.4252H11.298C11.7411 17.4252 12.1016 17.0647 12.1016 16.6216V15.1713C12.1016 14.7282 11.7411 14.3677 11.298 14.3677H9.41299C8.96989 14.3677 8.60938 14.7282 8.60938 15.1713V16.6216C8.60931 17.0647 8.96983 17.4252 9.41299 17.4252ZM9.54072 15.299H11.1702V16.4938H9.54072V15.299Z" fill="#9D9C9C"/>
<path d="M14.1132 17.4252H15.9982C16.4414 17.4252 16.8018 17.0647 16.8018 16.6216V15.1713C16.8018 14.7282 16.4413 14.3677 15.9982 14.3677H14.1132C13.6701 14.3677 13.3096 14.7282 13.3096 15.1713V16.6216C13.3095 17.0647 13.67 17.4252 14.1132 17.4252ZM14.2409 15.299H15.8704V16.4938H14.2409V15.299Z" fill="#9D9C9C"/>
<path d="M23.6308 17.0203C23.6308 16.5479 23.2465 16.1636 22.7741 16.1636H20.8723C20.4 16.1636 20.0156 16.5479 20.0156 17.0203V18.5287C20.0156 19.0011 20.3999 19.3854 20.8723 19.3854H22.7741C23.2465 19.3854 23.6308 19.0011 23.6308 18.5287V17.0203ZM22.6994 18.454H20.947V17.095H22.6994V18.454Z" fill="#9D9C9C"/>
<path d="M22.7741 20.4615H20.8723C20.4 20.4615 20.0156 20.8458 20.0156 21.3183V22.8267C20.0156 23.299 20.3999 23.6834 20.8723 23.6834H22.7741C23.2465 23.6834 23.6308 23.2991 23.6308 22.8267V21.3183C23.6308 20.8458 23.2465 20.4615 22.7741 20.4615ZM22.6994 22.752H20.947V21.3929H22.6994V22.752Z" fill="#9D9C9C"/>
<path d="M27.9618 17.0203C27.9618 16.5479 27.5775 16.1636 27.1051 16.1636H25.2034C24.731 16.1636 24.3467 16.5479 24.3467 17.0203V18.5287C24.3467 19.0011 24.731 19.3854 25.2034 19.3854H27.1051C27.5775 19.3854 27.9618 19.0011 27.9618 18.5287V17.0203ZM27.0304 18.454H25.2781V17.095H27.0304V18.454Z" fill="#9D9C9C"/>
<path d="M27.1051 20.4615H25.2034C24.731 20.4615 24.3467 20.8458 24.3467 21.3183V22.8267C24.3467 23.299 24.731 23.6834 25.2034 23.6834H27.1051C27.5775 23.6834 27.9618 23.2991 27.9618 22.8267V21.3183C27.9618 20.8458 27.5775 20.4615 27.1051 20.4615ZM27.0304 22.752H25.2781V21.3929H27.0304V22.752Z" fill="#9D9C9C"/>
</svg>
