<svg
    viewBox="0 0 300 40"
    fill="none"
    xmlns="http://www.w3.org/2000/svg"
  >
    <svg
      stroke-linecap="round"
      display="block"
      stroke-width="2"
      viewBox="0 0 300 40"
      class="primary--text"
    >
      <defs>
        <linearGradient
          id="594"
          x1="0"
          y1="1"
          x2="0"
          y2="0"
        >
          <stop
            offset="0"
            stop-color="rgba(233,134,73, 0.1)"
          /><stop
            offset="1"
            stop-color="rgba(233,134,73, 1)"
          /></linearGradient></defs><path
        id="594"
        d="M0 42 L0 39.476429790575914L10.714285714285714 39.79057591623037L19.428953374935073
        39.96091496998128S21.428571428571427 40 23.428475921462123 39.98045468558431L32.14285714285714
        39.89528795811518L42.857142857142854 39.63350785340314L53.57142857142857 39.21465968586387L64.28571428571428
        38.638743455497384L75 37.80104712041885L85.71428571428571 36.70157068062827L96.42857142857142
        35.75916230366492L107.14285714285714 34.712041884816756L117.85714285714285 33.97905759162304L128.57142857142856
        33.24607329842932L137.29519779903845 32.39348852225802S139.28571428571428 32.19895287958115 141.2586693845217
        31.871159990564628L148.02704490119257 30.746641056555788S150 30.418848167539267 151.93145915015592
        29.899747453535753L160.7142857142857 27.539267015706805L171.42857142857142 24.659685863874344L180.2261948521762
        22.037287817187263S182.14285714285714 21.465968586387433 184.12307281969044 21.746585537450024L190.87692718030954
        22.703676242654687S192.85714285714283 22.984293193717278 194.74949744231375 23.631590748156196L201.67907398625763
        26.001917105246946S203.57142857142856 26.649214659685864 205.524760415947 26.21968619125773L214.28571428571428
        24.29319371727749L223.07092367477614 21.889143399293367S224.99999999999997 21.361256544502616 226.94925146773667
        20.913575055577397L235.7142857142857 18.900523560209425L244.49476377361006 16.583580658691375S246.42857142857142
        16.073298429319372 248.33472857120512 15.467852356091916L255.2367000002234 13.275603141290285S257.1428571428571
        12.670157068062828 259.002484251527 11.934095238662595L265.99751574847295 9.165381201127984S267.85714285714283
        8.42931937172775 269.7886020072988 7.910218657724239L278.57142857142856 5.549738219895289L289.2857142857143
        2.7748691099476446L300 0.00001L300 42 Z"
        fill="url(#594)"
        stroke="none"
        style="transform-origin: center bottom; transition: transform 2000ms ease 0s; transform: scaleY(1);"
      /></svg>
    <svg
      stroke-linecap="round"
      display="block"
      stroke-width="2"
      viewBox="0 0 300 40"
      class="absolute-line primary--text"
    ><defs><linearGradient
      id="595"
      x1="0"
      y1="1"
      x2="0"
      y2="0"
    ><stop
      offset="0"
      stop-color="rgba(233,134,73, 1)"
    /></linearGradient></defs><path
      id="595"
      d="M0 39.476429790575914L10.714285714285714 39.79057591623037L19.428953374935073 39.96091496998128S21.428571428571427
      40 23.428475921462123 39.98045468558431L32.14285714285714 39.89528795811518L42.857142857142854
      39.63350785340314L53.57142857142857 39.21465968586387L64.28571428571428 38.638743455497384L75
      37.80104712041885L85.71428571428571 36.70157068062827L96.42857142857142 35.75916230366492L107.14285714285714
      34.712041884816756L117.85714285714285 33.97905759162304L128.57142857142856 33.24607329842932L137.29519779903845
      32.39348852225802S139.28571428571428 32.19895287958115 141.2586693845217 31.871159990564628L148.02704490119257
      30.746641056555788S150 30.418848167539267 151.93145915015592 29.899747453535753L160.7142857142857
      27.539267015706805L171.42857142857142 24.659685863874344L180.2261948521762 22.037287817187263S182.14285714285714
      21.465968586387433 184.12307281969044 21.746585537450024L190.87692718030954 22.703676242654687S192.85714285714283
      22.984293193717278 194.74949744231375 23.631590748156196L201.67907398625763 26.001917105246946S203.57142857142856
      26.649214659685864 205.524760415947 26.21968619125773L214.28571428571428 24.29319371727749L223.07092367477614
      21.889143399293367S224.99999999999997 21.361256544502616 226.94925146773667 20.913575055577397L235.7142857142857
      18.900523560209425L244.49476377361006 16.583580658691375S246.42857142857142 16.073298429319372 248.33472857120512
      15.467852356091916L255.2367000002234 13.275603141290285S257.1428571428571 12.670157068062828 259.002484251527
      11.934095238662595L265.99751574847295 9.165381201127984S267.85714285714283 8.42931937172775 269.7886020072988
      7.910218657724239L278.57142857142856 5.549738219895289L289.2857142857143 2.7748691099476446L300 0.00001"
      fill="none"
      stroke="url(#595)"
      style="transition: stroke-dashoffset 2000ms ease 0s; stroke-dasharray: 305.924, 305.924; stroke-dashoffset: 0;"
    /></svg>
  </svg>