<svg xmlns="http://www.w3.org/2000/svg" width="128" height="128" fill="#31468c" viewBox="0 0 128 128">
  <title>ENTERPRISE</title>
  <g>
    <path d="M20.985,89.25a1.751,1.751,0,0,0,1.75-1.75V82.3a1.75,1.75,0,0,0-3.5,0v5.2A1.751,1.751,0,0,0,20.985,89.25Z"/>
    <path d="M20.985,75.492a1.751,1.751,0,0,0,1.75-1.75v-5.2a1.75,1.75,0,0,0-3.5,0v5.2A1.751,1.751,0,0,0,20.985,75.492Z"/>
    <path d="M20.985,61.734a1.751,1.751,0,0,0,1.75-1.75v-5.2a1.75,1.75,0,0,0-3.5,0v5.2A1.751,1.751,0,0,0,20.985,61.734Z"/>
    <path d="M31.672,89.25a1.75,1.75,0,0,0,1.75-1.75V82.3a1.75,1.75,0,1,0-3.5,0v5.2A1.751,1.751,0,0,0,31.672,89.25Z"/>
    <path d="M31.672,75.492a1.75,1.75,0,0,0,1.75-1.75v-5.2a1.75,1.75,0,1,0-3.5,0v5.2A1.751,1.751,0,0,0,31.672,75.492Z"/>
    <path d="M31.672,61.734a1.75,1.75,0,0,0,1.75-1.75v-5.2a1.75,1.75,0,1,0-3.5,0v5.2A1.751,1.751,0,0,0,31.672,61.734Z"/>
    <path d="M96.328,89.25a1.751,1.751,0,0,0,1.75-1.75V82.3a1.75,1.75,0,0,0-3.5,0v5.2A1.75,1.75,0,0,0,96.328,89.25Z"/>
    <path d="M96.328,75.492a1.751,1.751,0,0,0,1.75-1.75v-5.2a1.75,1.75,0,0,0-3.5,0v5.2A1.75,1.75,0,0,0,96.328,75.492Z"/>
    <path d="M96.328,61.734a1.751,1.751,0,0,0,1.75-1.75v-5.2a1.75,1.75,0,0,0-3.5,0v5.2A1.75,1.75,0,0,0,96.328,61.734Z"/>
    <path d="M107.015,89.25a1.751,1.751,0,0,0,1.75-1.75V82.3a1.75,1.75,0,0,0-3.5,0v5.2A1.751,1.751,0,0,0,107.015,89.25Z"/>
    <path d="M107.015,75.492a1.751,1.751,0,0,0,1.75-1.75v-5.2a1.75,1.75,0,0,0-3.5,0v5.2A1.751,1.751,0,0,0,107.015,75.492Z"/>
    <path d="M107.015,61.734a1.751,1.751,0,0,0,1.75-1.75v-5.2a1.75,1.75,0,0,0-3.5,0v5.2A1.751,1.751,0,0,0,107.015,61.734Z"/>
    <path d="M50.074,82.735h9.518a1.751,1.751,0,0,0,1.75-1.75V68.753A1.751,1.751,0,0,0,59.592,67H50.074a1.751,1.751,0,0,0-1.75,1.75V80.985A1.751,1.751,0,0,0,50.074,82.735ZM51.824,70.5h6.018v8.732H51.824Z"/>
    <path d="M50.074,60.568h9.518a1.75,1.75,0,0,0,1.75-1.75V46.586a1.751,1.751,0,0,0-1.75-1.75H50.074a1.751,1.751,0,0,0-1.75,1.75V58.818A1.75,1.75,0,0,0,50.074,60.568Zm1.75-12.232h6.018v8.732H51.824Z"/>
    <path d="M50.074,38.4h9.518a1.751,1.751,0,0,0,1.75-1.75V24.42a1.751,1.751,0,0,0-1.75-1.75H50.074a1.751,1.751,0,0,0-1.75,1.75V36.652A1.751,1.751,0,0,0,50.074,38.4Zm1.75-12.232h6.018V34.9H51.824Z"/>
    <path d="M68.408,82.735h9.518a1.751,1.751,0,0,0,1.75-1.75V68.753A1.751,1.751,0,0,0,77.926,67H68.408a1.751,1.751,0,0,0-1.75,1.75V80.985A1.751,1.751,0,0,0,68.408,82.735ZM70.158,70.5h6.018v8.732H70.158Z"/>
    <path d="M68.408,60.568h9.518a1.75,1.75,0,0,0,1.75-1.75V46.586a1.751,1.751,0,0,0-1.75-1.75H68.408a1.751,1.751,0,0,0-1.75,1.75V58.818A1.75,1.75,0,0,0,68.408,60.568Zm1.75-12.232h6.018v8.732H70.158Z"/>
    <path d="M68.408,38.4h9.518a1.751,1.751,0,0,0,1.75-1.75V24.42a1.751,1.751,0,0,0-1.75-1.75H68.408a1.751,1.751,0,0,0-1.75,1.75V36.652A1.751,1.751,0,0,0,68.408,38.4Zm1.75-12.232h6.018V34.9H70.158Z"/>
    <path d="M120.7,108.985h-3.742V46.449a1.75,1.75,0,0,0-1.75-1.75H89.888V17.162a4.756,4.756,0,0,0-4.75-4.75H42.862a4.756,4.756,0,0,0-4.75,4.75V44.7H12.8a1.75,1.75,0,0,0-1.75,1.75v62.536H7.3a1.75,1.75,0,0,0-1.75,1.75v7a1.75,1.75,0,0,0,1.75,1.75H120.7a1.751,1.751,0,0,0,1.75-1.75v-7A1.751,1.751,0,0,0,120.7,108.985ZM113.455,48.2v60.786h-6.421V98.994a1.751,1.751,0,0,0-1.75-1.75H98.059a1.75,1.75,0,0,0-1.75,1.75v9.991H89.888V48.2Zm-9.921,60.786H99.809v-8.241h3.725ZM41.612,17.162a1.251,1.251,0,0,1,1.25-1.25H85.138a1.251,1.251,0,0,1,1.25,1.25v91.823H79.714V94.52a6.272,6.272,0,0,0-6.265-6.266h-18.9a6.273,6.273,0,0,0-6.266,6.266v14.465H41.612Zm10.173,91.823V94.52a2.769,2.769,0,0,1,2.766-2.766h7.7v17.231ZM65.75,91.754h7.7a2.769,2.769,0,0,1,2.765,2.766v14.465H65.75ZM14.545,48.2H38.112v60.786H31.691V98.994a1.75,1.75,0,0,0-1.75-1.75H22.716a1.751,1.751,0,0,0-1.75,1.75v9.991H14.545Zm13.646,60.786H24.466v-8.241h3.725Zm90.756,7H9.053v-3.5H118.947Z"/>
  </g>
</svg>
