<svg
    viewBox="0 0 300 70"
    fill="none"
    xmlns="http://www.w3.org/2000/svg"
  >
    <svg
      stroke-linecap="round"
      display="block"
      stroke-width="2"
      viewBox="0 0 300 70"
      class="primary--text"
    >
      <defs>
        <linearGradient
          id="459"
          x1="0"
          y1="1"
          x2="0"
          y2="0"
        >
          <stop
            offset="0"
            stop-color="rgba(144, 190, 109, 0.1)"
          /><stop
            offset="1"
            stop-color="rgba(144, 190, 109, 1)"
          /></linearGradient></defs><path
        id="459"
        d="M0 72 L0 69.99999L10.714285714285714 69.66789667896678L21.428571428571427 69.40959409594096L32.14285714285714
        69.04059040590406L42.857142857142854 68.63468634686348L53.57142857142857 68.11808118081181L64.28571428571428
        67.60147601476015L75 67.0479704797048L85.71428571428571 66.56826568265683L96.42857142857142
        66.08856088560886L107.14285714285714 65.5350553505535L117.85714285714285 65.38745387453875L128.57142857142856
        64.79704797047971L137.2919595771305 64.10627036067994S139.28571428571428 63.94833948339483 141.25199865439131
        63.582654124792164L148.03371563132296 62.32140491579824S150 61.95571955719557 151.87452781065042
        61.25847821655511L158.83975790363527 58.66772104543751S160.7142857142857 57.97047970479705 162.62462030217816
        57.3783464746016L171.42857142857142 54.64944649446495L180.21813869871033 52.167177558150186S182.14285714285714
        51.62361623616236 184.0437016606337 51.001691707590936L190.95629833936627 48.74000570938323S192.85714285714283
        48.11808118081181 194.83456731505768 47.81842719161733L203.57142857142856 46.49446494464945L212.33259690829797
        44.56334395330013S214.28571428571428 44.132841328413285 216.1295651177734 43.35810646466002L223.15614916794084
        40.40573117371636S224.99999999999997 39.630996309963095 226.72074807048946 38.61167002368051L233.9935376437962
        34.303459127611S235.7142857142857 33.284132841328415 237.28465426382814 32.04560846990575L244.85820287902897
        26.072472710906055S246.42857142857142 24.833948339483392 248.16226883572486 23.836805771728216L257.1428571428571
        18.671586715867157L266.0902758988063 13.926043090325612S267.85714285714283 12.988929889298895 269.7122018970426
        12.241430084291334L278.57142857142856 8.671586715867157L287.4133021291413 5.352349557424429S289.2857142857143
        4.649446494464939 291.1204142627984 3.8532831983457005L300 0.00001L300 72 Z"
        fill="url(#459)"
        stroke="none"
        style="transform-origin: center bottom; transition: transform 2000ms ease 0s; transform: scaleY(1);"
      /></svg>
    <svg
      stroke-linecap="round"
      display="block"
      stroke-width="2"
      viewBox="0 0 300 70"
      class="absolute-line primary--text"
    ><defs><linearGradient
      id="460"
      x1="0"
      y1="1"
      x2="0"
      y2="0"
    ><stop
      offset="0"
      stop-color="rgba(144, 190, 109, 1)"
    /></linearGradient></defs><path
      id="460"
      d="M0 69.99999L10.714285714285714 69.66789667896678L21.428571428571427 69.40959409594096L32.14285714285714
      69.04059040590406L42.857142857142854 68.63468634686348L53.57142857142857 68.11808118081181L64.28571428571428
      67.60147601476015L75 67.0479704797048L85.71428571428571 66.56826568265683L96.42857142857142
      66.08856088560886L107.14285714285714 65.5350553505535L117.85714285714285 65.38745387453875L128.57142857142856
      64.79704797047971L137.2919595771305 64.10627036067994S139.28571428571428 63.94833948339483 141.25199865439131
      63.582654124792164L148.03371563132296 62.32140491579824S150 61.95571955719557 151.87452781065042
      61.25847821655511L158.83975790363527 58.66772104543751S160.7142857142857 57.97047970479705 162.62462030217816
      57.3783464746016L171.42857142857142 54.64944649446495L180.21813869871033 52.167177558150186S182.14285714285714
      51.62361623616236 184.0437016606337 51.001691707590936L190.95629833936627 48.74000570938323S192.85714285714283
      48.11808118081181 194.83456731505768 47.81842719161733L203.57142857142856 46.49446494464945L212.33259690829797
      44.56334395330013S214.28571428571428 44.132841328413285 216.1295651177734 43.35810646466002L223.15614916794084
      40.40573117371636S224.99999999999997 39.630996309963095 226.72074807048946 38.61167002368051L233.9935376437962
      34.303459127611S235.7142857142857 33.284132841328415 237.28465426382814 32.04560846990575L244.85820287902897
      26.072472710906055S246.42857142857142 24.833948339483392 248.16226883572486 23.836805771728216L257.1428571428571
      18.671586715867157L266.0902758988063 13.926043090325612S267.85714285714283 12.988929889298895 269.7122018970426
      12.241430084291334L278.57142857142856 8.671586715867157L287.4133021291413 5.352349557424429S289.2857142857143
      4.649446494464939 291.1204142627984 3.8532831983457005L300 0.00001"
      fill="none"
      stroke="url(#460)"
      style="transition: stroke-dashoffset 2000ms ease 0s; stroke-dasharray: 314.014, 314.014; stroke-dashoffset: 0;"
    /></svg>
  </svg>