<svg width="30" height="30" viewBox="0 0 30 30" fill="none" xmlns="http://www.w3.org/2000/svg">
<path d="M19.3945 7.32422C19.6372 7.32422 19.834 7.12747 19.834 6.88477C19.834 6.64206 19.6372 6.44531 19.3945 6.44531C19.1518 6.44531 18.9551 6.64206 18.9551 6.88477C18.9551 7.12747 19.1518 7.32422 19.3945 7.32422Z" fill="#9D9C9C"/>
<path d="M7.7207 6.15234C9.41693 6.15234 10.7969 4.77234 10.7969 3.07617C10.7969 1.38 9.41693 0 7.7207 0C6.02447 0 4.64453 1.38 4.64453 3.07617C4.64453 4.77234 6.02447 6.15234 7.7207 6.15234ZM7.7207 0.878906C8.9323 0.878906 9.91797 1.86457 9.91797 3.07617C9.91797 4.28777 8.9323 5.27344 7.7207 5.27344C6.5091 5.27344 5.52344 4.28777 5.52344 3.07617C5.52344 1.86457 6.5091 0.878906 7.7207 0.878906Z" fill="#9D9C9C"/>
<path d="M29.9774 8.50359L29.0985 5.86688C29.0617 5.75631 28.9824 5.66496 28.8782 5.61281L25.3625 3.855C25.3015 3.82453 25.2343 3.80859 25.166 3.80859H19.395C19.3275 3.80854 19.26 3.82395 19.198 3.855L15.6824 5.61281C15.5781 5.66496 15.4989 5.75631 15.462 5.86688L14.5831 8.50359C14.5682 8.54842 14.5605 8.59535 14.5605 8.64258V14.0889C11.5014 12.853 7.16074 11.543 0.439453 11.543C0.196758 11.543 0 11.7397 0 11.9824V29.5605C0 29.8033 0.196758 30 0.439453 30H29.5605C29.8032 30 30 29.8033 30 29.5605V8.64258C30 8.59541 29.9924 8.54842 29.9774 8.50359ZM3.5175 25.9321C3.53848 26.1601 3.73002 26.3313 3.95455 26.3313C3.96803 26.3313 3.98162 26.3307 3.99533 26.3295C9.11631 25.8582 12.2044 24.367 15.1908 22.925C18.812 21.1764 22.237 19.523 29.1211 19.4555V20.3346C22.486 20.4023 19.1682 22.0038 15.6604 23.6977C12.0009 25.4648 8.21877 27.2907 0.878906 27.3609V26.4821C1.33125 26.4775 1.77926 26.466 2.21584 26.4476C2.4583 26.4373 2.64656 26.2325 2.63631 25.99C2.62605 25.7474 2.4218 25.5585 2.17869 25.5694C1.75436 25.5874 1.31877 25.5987 0.878906 25.6032V24.724C7.51406 24.6562 10.8319 23.0548 14.3396 21.3609C17.9991 19.5938 21.7812 17.7679 29.1211 17.6977V18.5766C22.0299 18.647 18.3598 20.4187 14.8086 22.1335C11.7584 23.6064 8.87736 24.9975 3.91477 25.4542C3.67312 25.4764 3.49523 25.6904 3.5175 25.9321ZM0.878906 28.2399C8.41951 28.1698 12.2939 26.2993 16.0429 24.489C19.4571 22.8404 22.6866 21.2814 29.1211 21.2135V22.0924C22.8936 22.1575 19.8898 23.6074 16.4246 25.2807C12.7656 27.0476 8.62687 29.0458 0.878906 29.1188V28.2399ZM10.4429 16.3828C7.56234 15.5279 4.42711 15.0949 0.878906 15.0619V14.1829C4.45336 14.2153 7.61607 14.6435 10.5318 15.4915C10.8904 15.5958 11.2462 15.7069 11.6048 15.8262C11.5956 15.8306 11.5863 15.8351 11.5771 15.8395C11.1885 16.0272 10.8127 16.2086 10.4429 16.3828ZM9.19307 16.9479C8.7208 17.1501 8.24613 17.3378 7.75465 17.5083C5.65992 17.0687 3.40506 16.8422 0.878906 16.8188V15.9408C3.93275 15.9697 6.66938 16.3001 9.19307 16.9479ZM5.82486 18.0583C4.45811 18.3646 2.88094 18.5482 0.878906 18.5715V17.6977C2.65348 17.7144 4.28854 17.8336 5.82486 18.0583ZM11.9595 16.6309C15.7782 14.7868 20.5153 12.4994 29.1211 12.4239V13.3039C25.4619 13.3365 22.2189 13.7762 19.2227 14.6476C16.49 15.4423 14.3324 16.4843 12.4287 17.4036C9.12563 18.9987 6.49857 20.2667 0.878906 20.3293V19.4505C6.24369 19.3905 8.65535 18.2264 11.9595 16.6309ZM20.2734 12.5448C19.6608 12.6898 19.076 12.8467 18.5156 13.0126V9.08203H20.2734V12.5448ZM24.2285 9.08203H29.1211V11.5449C27.3354 11.5602 25.7131 11.6685 24.2285 11.8471V9.08203ZM12.8109 18.1951C14.6836 17.2908 16.8061 16.2658 19.4682 15.4915C22.3839 14.6435 25.5466 14.2153 29.1211 14.1829V15.0608C21.1723 15.1337 16.9373 17.1785 13.1931 18.9866C9.82559 20.6127 6.90603 22.0219 0.878906 22.0872V21.2084C6.69902 21.1459 9.40623 19.8391 12.8109 18.1951ZM13.5754 19.778C17.2344 18.011 21.3731 16.0128 29.1211 15.9398V16.8187C21.5805 16.8888 17.7061 18.7593 13.9572 20.5696C10.5431 22.2182 7.3135 23.7771 0.878906 23.8451V22.9662C7.10654 22.9011 10.1104 21.4512 13.5754 19.778ZM28.3223 6.31758L28.9508 8.20312H24.1058L23.327 5.86688C23.2902 5.75631 23.2109 5.66496 23.1067 5.61281L21.2561 4.6875H25.0622L28.3223 6.31758ZM16.2383 6.31758L19.3945 4.73936L22.5508 6.31758L23.3496 8.71389V11.9633C22.5801 12.0741 21.8489 12.2038 21.1523 12.3492V8.64258C21.1523 8.39982 20.9556 8.20312 20.7129 8.20312H18.0762C17.8335 8.20312 17.6367 8.39982 17.6367 8.64258V13.2861C16.8589 13.5403 16.1295 13.8105 15.4395 14.0886V8.71389L16.2383 6.31758ZM13.8689 14.7598C13.4774 14.9358 13.098 15.1123 12.7286 15.2872C12.0669 15.0465 11.4265 14.8364 10.7773 14.6476C7.78107 13.7762 4.53809 13.3366 0.878906 13.304V12.4239C6.944 12.4769 10.9759 13.6263 13.8689 14.7598ZM16.8071 26.0719C20.1745 24.4458 23.0941 23.0366 29.1211 22.9713V23.8502C23.301 23.9126 20.5938 25.2194 17.1891 26.8635C15.6755 27.5944 13.9618 28.4215 11.9319 29.121H8.774C12.1044 28.3429 14.5453 27.1642 16.8071 26.0719ZM18.0404 28.4277C17.5728 28.6536 17.0896 28.8867 16.5888 29.1211H14.3854C15.5512 28.6304 16.6017 28.1232 17.5712 27.655C20.8744 26.06 23.5015 24.7919 29.1211 24.7293V25.6082C23.7563 25.668 21.3446 26.8321 18.0404 28.4277ZM29.1211 26.487V27.366C25.2819 27.4107 23.087 28.0476 20.6913 29.1211H18.6258C21.7218 27.6271 24.0666 26.546 29.1211 26.487ZM23.0952 29.1211C24.7325 28.5854 26.5378 28.2763 29.1211 28.2451V29.1211H23.0952Z" fill="#9D9C9C"/>
</svg>
