<svg
    viewBox="0 0 300 30"
    fill="none"
    xmlns="http://www.w3.org/2000/svg"
  >
    <svg
      stroke-linecap="round"
      display="block"
      stroke-width="2"
      viewBox="0 0 300 30"
      class="primary--text"
    >
      <defs>
        <linearGradient
          id="602"
          x1="0"
          y1="1"
          x2="0"
          y2="0"
        >
          <stop
            offset="0"
            stop-color="rgba(239,98,108, 0.1)"
          /><stop
            offset="1"
            stop-color="rgba(239,98,108, 1)"
          /></linearGradient></defs><path
        id="602"
        d="M0 32 L0 27.629417792915532L10.714285714285714 28.283378746594007L19.430025046491668
        28.6158592660787S21.428571428571427 28.69209809264305 23.415601847905887 28.464699516043467L30.15582672352268
        27.693338631095497S32.14285714285714 27.465940054495913 34.142624350833756 27.49645421352771L42.857142857142854
        27.629427792915532L53.57142857142857 27.547683923705723L62.28716790363452 27.88016444319042S64.28571428571428
        27.95640326975477 66.26282986984508 28.25808848150225L73.0228844158692 29.289595442203474S75 29.591280653950953
        76.99994179437257 29.606539065461153L85.71428571428571 29.673024523160763L96.42857142857142
        29.673024523160763L105.14378782352412 29.938992979900465S107.14285714285714 30 109.14262435083376
        29.969485840968204L115.85737564916623 29.867026420612177S117.85714285714285 29.83651226158038
        119.83854604519924 29.564406755645663L128.57142857142856 28.365122615803816L137.3043110976579
        27.165838475961966S139.28571428571428 26.893732970027248 141.2836220792313 26.802275610542L148.00209220648298
        26.49472711425364S150 26.40326975476839 151.97711558413081 26.101584543020913L158.73717013015488
        25.070077582319687S160.7142857142857 24.768392370572208 162.6605901653935 24.308067503116735L169.4822669774636
        22.69465729252359S171.42857142857142 22.234332425068118 173.28761348960788 21.496794212297246L180.28381508182068
        18.72118943892891S182.14285714285714 17.983651226158038 184.13452749436385 17.801307564548704L190.86547250563612
        17.18506845724966S192.85714285714283 17.002724795640326 194.69121940282133 16.205126385040085L201.73735202575006
        13.140922661281438S203.57142857142856 12.3433242506812 205.25530443114718 11.264175470828828L212.60183842599565
        6.555988016909591S214.28571428571428 5.47683923705722 216.20661456161878 4.919935178865834L223.07909972409547
        2.927476265275854S224.99999999999997 2.370572207084468 226.95277392119306 1.9385143258831632L233.7615117930926
        0.4320578812013046S235.7142857142857 0 237.167147766223 1.3744787586720117L244.97570937663411
        8.761761023344338S246.42857142857142 10.13623978201635 248.42711781065117 10.212478608580701L255.14431076077736
        10.468720301501046S257.1428571428571 10.544959128065397 259.085790759381 11.019310223543703L265.91420924061896
        12.686411847300986S267.85714285714283 13.160762942779293 269.82704408315493 12.81509090202949L276.60152734541646
        11.62632599170348S278.57142857142856 11.280653950953678 280.48433391028465 10.696879024654272L287.3728089468582
        8.594674108860712S289.2857142857143 8.010899182561307 291.28426059674035 8.087139871725052L300 8.419628528610353L300 32 Z"
        fill="url(#602)"
        stroke="none"
        style="transform-origin: center bottom; transition: transform 2000ms ease 0s; transform: scaleY(1);"
      /></svg>
    <svg
      stroke-linecap="round"
      display="block"
      stroke-width="2"
      viewBox="0 0 300 30"
      class="absolute-line primary--text"
    ><defs><linearGradient
      id="603"
      x1="0"
      y1="1"
      x2="0"
      y2="0"
    ><stop
      offset="0"
      stop-color="rgba(239,98,108, 1)"
    /></linearGradient></defs><path
      id="603"
      d="M0 27.629417792915532L10.714285714285714 28.283378746594007L19.430025046491668 28.6158592660787S21.428571428571427
      28.69209809264305 23.415601847905887 28.464699516043467L30.15582672352268 27.693338631095497S32.14285714285714
      27.465940054495913 34.142624350833756 27.49645421352771L42.857142857142854 27.629427792915532L53.57142857142857
      27.547683923705723L62.28716790363452 27.88016444319042S64.28571428571428 27.95640326975477 66.26282986984508
      28.25808848150225L73.0228844158692 29.289595442203474S75 29.591280653950953 76.99994179437257
      29.606539065461153L85.71428571428571 29.673024523160763L96.42857142857142 29.673024523160763L105.14378782352412
      29.938992979900465S107.14285714285714 30 109.14262435083376 29.969485840968204L115.85737564916623
      29.867026420612177S117.85714285714285 29.83651226158038 119.83854604519924 29.564406755645663L128.57142857142856
      28.365122615803816L137.3043110976579 27.165838475961966S139.28571428571428 26.893732970027248 141.2836220792313
      26.802275610542L148.00209220648298 26.49472711425364S150 26.40326975476839 151.97711558413081
      26.101584543020913L158.73717013015488 25.070077582319687S160.7142857142857 24.768392370572208 162.6605901653935
      24.308067503116735L169.4822669774636 22.69465729252359S171.42857142857142 22.234332425068118 173.28761348960788
      21.496794212297246L180.28381508182068 18.72118943892891S182.14285714285714 17.983651226158038 184.13452749436385
      17.801307564548704L190.86547250563612 17.18506845724966S192.85714285714283 17.002724795640326 194.69121940282133
      16.205126385040085L201.73735202575006 13.140922661281438S203.57142857142856 12.3433242506812 205.25530443114718
      11.264175470828828L212.60183842599565 6.555988016909591S214.28571428571428 5.47683923705722 216.20661456161878
      4.919935178865834L223.07909972409547 2.927476265275854S224.99999999999997 2.370572207084468 226.95277392119306
      1.9385143258831632L233.7615117930926 0.4320578812013046S235.7142857142857 0 237.167147766223
      1.3744787586720117L244.97570937663411 8.761761023344338S246.42857142857142 10.13623978201635 248.42711781065117
      10.212478608580701L255.14431076077736 10.468720301501046S257.1428571428571 10.544959128065397 259.085790759381
      11.019310223543703L265.91420924061896 12.686411847300986S267.85714285714283 13.160762942779293 269.82704408315493
      12.81509090202949L276.60152734541646 11.62632599170348S278.57142857142856 11.280653950953678 280.48433391028465
      10.696879024654272L287.3728089468582 8.594674108860712S289.2857142857143 8.010899182561307 291.28426059674035
      8.087139871725052L300 8.419628528610353"
      fill="none"
      stroke="url(#603)"
      style="transition: stroke-dashoffset 2000ms ease 0s; stroke-dasharray: 309.622, 309.622; stroke-dashoffset: 0;"
    /></svg>
  </svg>