<svg width="34" height="30" viewBox="0 0 34 30" fill="none" xmlns="http://www.w3.org/2000/svg">
<path d="M22.991 8.95932L21.8078 2.43672C21.6309 1.46133 20.8928 0.753418 20.0527 0.753418H19.4664C19.1876 0.753418 18.9614 1.02199 18.9614 1.35319C18.9614 1.6844 19.1876 1.95297 19.4664 1.95297H20.0527C20.4202 1.95297 20.7432 2.26272 20.8206 2.68936L21.8721 8.4859H12.1263L13.1778 2.68936C13.2553 2.26264 13.5781 1.95297 13.9457 1.95297H17.7832C18.0621 1.95297 18.2882 1.6844 18.2882 1.35319C18.2882 1.02199 18.0621 0.753418 17.7832 0.753418H13.9457C13.1057 0.753418 12.3676 1.46141 12.1907 2.43672L11.0075 8.95932C10.9753 9.13647 11.0123 9.32144 11.1083 9.46247C11.2041 9.60342 11.3484 9.68545 11.501 9.68545H22.4974C22.65 9.68545 22.7944 9.6035 22.8903 9.46247C22.9861 9.32144 23.0231 9.13655 22.991 8.95932Z" fill="#9D9C9C"/>
<path d="M33.9879 28.767L32.8047 22.2443C32.6278 21.269 31.8896 20.561 31.0497 20.561H24.9426C24.1026 20.561 23.3645 21.269 23.1876 22.2444L22.4979 26.0462L21.8082 22.2444C21.6313 21.269 20.8932 20.561 20.0532 20.561H13.9461C13.1061 20.561 12.368 21.269 12.1911 22.2444L11.5014 26.0462L10.8117 22.2444C10.6348 21.269 9.89674 20.561 9.05672 20.561H2.94959C2.10956 20.561 1.37147 21.269 1.19457 22.2444L0.0113658 28.767C-0.0208406 28.9442 0.0162134 29.1291 0.112169 29.2702C0.208057 29.4111 0.352355 29.4932 0.505021 29.4932H3.30937C3.5882 29.4932 3.81431 29.2246 3.81431 28.8934C3.81431 28.5622 3.58827 28.2936 3.30937 28.2936H1.13029L2.18175 22.4971C2.25917 22.0704 2.5821 21.7607 2.94959 21.7607H9.05666C9.42414 21.7607 9.74707 22.0704 9.8245 22.4971L10.876 28.2937H4.99267C4.71384 28.2937 4.48773 28.5622 4.48773 28.8935C4.48773 29.2247 4.71377 29.4932 4.99267 29.4932H11.5014H22.4978H33.4942C33.6468 29.4932 33.7912 29.4113 33.8871 29.2702C33.983 29.1291 34.02 28.9442 33.9879 28.767ZM12.1267 28.2935L13.1782 22.497C13.2556 22.0703 13.5785 21.7605 13.9461 21.7605H20.0531C20.4206 21.7605 20.7435 22.0703 20.821 22.497L21.8725 28.2935H12.1267ZM23.1232 28.2935L24.1747 22.497C24.2521 22.0703 24.575 21.7605 24.9425 21.7605H31.0496C31.4171 21.7605 31.74 22.0703 31.8174 22.497L32.869 28.2935H23.1232Z" fill="#9D9C9C"/>
<path d="M28.4895 18.8632L27.3063 12.3406C27.1294 11.3652 26.3913 10.6573 25.5512 10.6573H19.4442C18.6041 10.6573 17.8661 11.3653 17.6892 12.3406L16.9995 16.1423L16.3099 12.3405C16.133 11.3652 15.3948 10.6572 14.5548 10.6572H8.44777C7.60774 10.6572 6.86965 11.3652 6.69275 12.3405L5.50941 18.8632C5.47721 19.0404 5.51426 19.2253 5.61022 19.3664C5.7061 19.5073 5.8504 19.5893 6.00307 19.5893H16.9995H27.9959C28.1485 19.5893 28.2929 19.5074 28.3888 19.3664C28.4846 19.2253 28.5217 19.0404 28.4895 18.8632ZM6.6284 18.3898L7.67993 12.5932C7.75735 12.1665 8.08022 11.8569 8.44777 11.8569H14.5548C14.9223 11.8569 15.2452 12.1666 15.3227 12.5932L16.3742 18.3898H6.6284ZM17.6248 18.3898L18.6763 12.5933C18.7537 12.1666 19.0766 11.8569 19.4441 11.8569H25.5512C25.9187 11.8569 26.2416 12.1666 26.319 12.5932L27.3705 18.3898H17.6248Z" fill="#9D9C9C"/>
</svg>
