<svg fill="#31468c" xmlns="http://www.w3.org/2000/svg" width="128" height="128" viewBox="0 0 128 128">
  <title>GROWTH</title>
  <g>
    <path d="M117.335,8.648,89.823,11.494a1.751,1.751,0,0,0-1.1,2.935l6.168,6.6L64.018,49.874l-6.807-7.286A7.881,7.881,0,0,0,46.083,42.5L11.167,75.352a7.664,7.664,0,0,0,10.463,11.2l.005-.006L50.663,59.2l6.8,7.281a7.881,7.881,0,0,0,11.124.1l36.768-34.346,6.168,6.6a1.751,1.751,0,0,0,3-.9l4.712-27.254A1.751,1.751,0,0,0,117.335,8.648Zm-5.656,25.227-4.96-5.309a1.751,1.751,0,0,0-2.473-.085L66.2,64.022a4.384,4.384,0,0,1-6.178.073l-8-8.566a1.747,1.747,0,0,0-2.478-.079L19.239,84a4.164,4.164,0,1,1-5.679-6.092L48.476,45.05a4.382,4.382,0,0,1,6.178-.073l8,8.565a1.748,1.748,0,0,0,2.473.085L98.561,22.4a1.75,1.75,0,0,0,.084-2.474l-4.96-5.31L115.4,12.367Z"/>
    <path d="M22.073,92.03l-4,3.556a4.752,4.752,0,0,0-1.594,3.55v15.475a4.756,4.756,0,0,0,4.75,4.75h4a4.756,4.756,0,0,0,4.75-4.75V95.58A4.75,4.75,0,0,0,22.073,92.03Zm4.406,22.581a1.251,1.251,0,0,1-1.25,1.25h-4a1.251,1.251,0,0,1-1.25-1.25V99.136A1.255,1.255,0,0,1,20.4,98.2l4-3.555a1.249,1.249,0,0,1,2.081.934Z"/>
    <path d="M42.3,75.282l-4,3.854a4.774,4.774,0,0,0-1.454,3.421v32.054a4.756,4.756,0,0,0,4.75,4.75h4a4.756,4.756,0,0,0,4.75-4.75V78.7A4.749,4.749,0,0,0,42.3,75.282Zm4.546,39.329a1.251,1.251,0,0,1-1.25,1.25h-4a1.25,1.25,0,0,1-1.25-1.25V82.557a1.256,1.256,0,0,1,.383-.9l4-3.854a1.248,1.248,0,0,1,2.117.9Z"/>
    <path d="M65.08,78.905a4.75,4.75,0,0,0-7.873,3.579v32.127a4.755,4.755,0,0,0,4.75,4.75h4a4.756,4.756,0,0,0,4.75-4.75V85.975A4.749,4.749,0,0,0,69.08,82.4Zm2.127,35.706a1.251,1.251,0,0,1-1.25,1.25h-4a1.25,1.25,0,0,1-1.25-1.25V82.484a1.249,1.249,0,0,1,2.071-.942l4,3.492a1.249,1.249,0,0,1,.429.941Z"/>
    <path d="M82.818,65.611l-4,4.365a4.741,4.741,0,0,0-1.247,3.209v41.426a4.756,4.756,0,0,0,4.75,4.75h4a4.756,4.756,0,0,0,4.75-4.75V68.82A4.752,4.752,0,0,0,82.818,65.611Zm4.752,49a1.251,1.251,0,0,1-1.25,1.25h-4a1.25,1.25,0,0,1-1.25-1.25V73.185a1.25,1.25,0,0,1,.328-.845l4-4.363a1.248,1.248,0,0,1,2.172.843Z"/>
    <path d="M103.012,47.689l-4,4.871a4.763,4.763,0,0,0-1.079,3.015v59.036a4.755,4.755,0,0,0,4.75,4.75h4a4.756,4.756,0,0,0,4.75-4.75V50.7A4.751,4.751,0,0,0,103.012,47.689Zm4.922,66.922a1.251,1.251,0,0,1-1.25,1.25h-4a1.25,1.25,0,0,1-1.25-1.25V55.575a1.251,1.251,0,0,1,.283-.793l4-4.873a1.251,1.251,0,0,1,2.217.793Z"/>
  </g>
</svg>
