<svg width="31" height="31" viewBox="0 0 31 31" fill="none" xmlns="http://www.w3.org/2000/svg">
<path d="M23.6947 11.1139V10.1462C24.4951 10.1462 25.1464 9.49488 25.1464 8.69456C25.1464 7.89424 24.4951 7.24295 23.6947 7.24295H22.727C22.4599 7.24295 22.2431 7.02617 22.2431 6.75908C22.2431 6.49198 22.4599 6.27521 22.727 6.27521H24.1786V6.75908H25.1464V5.30746H23.6947V4.33972H22.727V5.30746C21.9267 5.30746 21.2754 5.95875 21.2754 6.75908C21.2754 7.5594 21.9267 8.21069 22.727 8.21069H23.6947C23.9618 8.21069 24.1786 8.42746 24.1786 8.69456C24.1786 8.96166 23.9618 9.17843 23.6947 9.17843H22.2431V8.69456H21.2754V10.1462H22.727V11.1139H23.6947Z" fill="#9D9C9C"/>
<path d="M28.5338 7.72676C28.5338 4.79208 26.1459 2.40417 23.2113 2.40417C20.2766 2.40417 17.8887 4.79208 17.8887 7.72676C17.8887 10.6614 20.2766 13.0493 23.2113 13.0493C26.1459 13.0493 28.5338 10.6614 28.5338 7.72676ZM18.8564 7.72676C18.8564 5.3253 20.8098 3.37192 23.2113 3.37192C25.6127 3.37192 27.5661 5.3253 27.5661 7.72676C27.5661 10.1282 25.6127 12.0816 23.2113 12.0816C20.8098 12.0816 18.8564 10.1282 18.8564 7.72676Z" fill="#9D9C9C"/>
<path d="M30.4688 7.72681C30.4688 3.72472 27.2128 0.46875 23.2107 0.46875C19.2086 0.46875 15.9526 3.72472 15.9526 7.72681C15.9526 10.8081 17.8857 13.4404 20.6007 14.4913L19.6233 15.4688H15.7329L12.3458 19.3397H6.54762L0.59746 25.7854L1.30827 26.442L6.97101 20.3075H12.7857L16.1728 16.4365H20.0244L21.6497 14.8112C22.0929 14.9089 22.5512 14.9631 23.0205 14.9752L20.591 17.4042H16.1946L13.2913 21.2752H7.50714L0.46875 29.3191V30.4688H28.5333V12.6449C29.7304 11.35 30.4688 9.62504 30.4688 7.72681ZM16.9204 7.72681C16.9204 4.25843 19.7423 1.43649 23.2107 1.43649C26.6791 1.43649 29.501 4.25843 29.501 7.72681C29.501 11.1952 26.6791 14.0171 23.2107 14.0171C19.7423 14.0171 16.9204 11.1952 16.9204 7.72681ZM24.6623 14.8387V29.501H22.7268V16.6368L24.5002 14.8634C24.5539 14.8538 24.6091 14.8494 24.6623 14.8387ZM20.9917 18.372L21.7591 17.6046V29.501H19.8236V18.372H20.9917ZM7.24294 29.501H5.30746V25.2589L7.24294 23.0471V29.501ZM8.21069 22.2429H10.1462V29.501H8.21069V22.2429ZM11.1139 22.2429H13.0494V29.501H11.1139V22.2429ZM14.0171 21.9202L15.9526 19.3397V29.501H14.0171V21.9202ZM16.9204 18.372H18.8558V29.501H16.9204V18.372ZM4.33972 26.365V29.501H1.59569L4.33972 26.365ZM25.63 29.501V14.5615C26.3312 14.3123 26.982 13.9596 27.5655 13.5197V29.501H25.63Z" fill="#9D9C9C"/>
</svg>
