<svg
    viewBox="0 0 300 50"
    fill="none"
    xmlns="http://www.w3.org/2000/svg"
  >
    <svg
      stroke-linecap="round"
      display="block"
      stroke-width="2"
      viewBox="0 0 300 50"
      class="primary--text"
    >
      <defs>
        <linearGradient
          id="590"
          x1="0"
          y1="1"
          x2="0"
          y2="0"
        >
          <stop
            offset="0"
            stop-color="rgba(235,146,92, 0.1)"
          />
          <stop
            offset="1"
            stop-color="rgba(235,146,92, 1)"
          />
        </linearGradient></defs><path
        id="590"
        d="M0 52 L0 49.99999L8.726069023451805 49.0485575966027S10.714285714285714 48.83177570093458
        12.712966080224644 48.75913415077065L21.428571428571427 48.442367601246104L30.145441171235856
        47.998830096167644S32.14285714285714 47.89719626168224 34.14280430729944 47.88265874335296L40.85719569270054
        47.833852160073825S42.857142857142854 47.81931464174455 44.81413455203335 47.40678160533461L53.57142857142857
        45.5607476635514L62.31669506819272 44.003309237596S64.28571428571428 43.65264797507788 66.19463896676395
        43.055985120461116L75 40.30373831775701L83.83239881323094 37.125725660659896S85.71428571428571
        36.44859813084112 87.60688279162274 35.80200992892639L94.53597435123439 33.4347501956842S96.42857142857142
        32.78816199376947 98.39759064609298 33.13882325628759L107.14285714285714 34.69626168224299L115.90015116225234
        36.542295624026195S117.85714285714285 36.954828660436135 119.74550066979903 37.613694937749194L126.68307075877237
        40.034280140132424S128.57142857142856 40.69314641744548 130.45978638408474 40.034280140132424L137.3973564730581
        37.613694937749194S139.28571428571428 36.954828660436135 141.25715813742653 36.61806592564209L148.02855614828775
        35.46137332669436S150 35.124610591900314 151.9924345230592 34.9508156802316L158.7218511912265
        34.36382606431669S160.7142857142857 34.190031152647975 162.63846053801356 33.64454857022045L169.50439660484355
        31.69813055750541S171.42857142857142 31.152647975077883 173.4143397379055 30.914479501839995L180.15708883352306
        30.105769719343808S182.14285714285714 29.86760124610592 183.6883377640881 31.137045868529274L191.31166223591188
        37.398779676642064S192.85714285714283 38.66822429906542 194.73242887993385 37.97302480775038L201.69614254863754
        35.391461173558035S203.57142857142856 34.69626168224299 205.5045466099971 34.1833731476072L212.35259624714573
        32.366471089152924S214.28571428571428 31.853582554517136 216.2838148396138 31.76643798207292L223.00189944610045
        31.473437407335183S224.99999999999997 31.386292834890966 226.89884025674348 30.75827557448307L233.81544545754218
        28.470696388133756S235.7142857142857 27.84267912772586 237.29021040323315 26.611232265386334L244.85264673962396
        20.7018518467632S246.42857142857142 19.470404984423677 248.2618024031443 18.670864995513394L255.30962616828424
        15.597047777072277S257.1428571428571 14.797507788161994 259.1402731144784 14.695873953676593L265.8597268855215
        14.353970283083537S267.85714285714283 14.252336448598136 269.6903738317157 13.452796459687855L276.7381975968557
        10.37897924124673S278.57142857142856 9.57943925233645 280.0623970130499 8.246392701727954L287.7947458440929
        1.333046550608495S289.2857142857143 0 291.2412592854721 0.41933727943285304L300 2.297517788161994L300 52 Z"
        fill="url(#590)"
        stroke="none"
        style="transform-origin: center bottom; transition: transform 2000ms ease 0s; transform: scaleY(1);"
      /></svg>
    <svg
      stroke-linecap="round"
      display="block"
      stroke-width="2"
      viewBox="0 0 300 50"
      class="absolute-line primary--text"
    ><defs><linearGradient
      id="591"
      x1="0"
      y1="1"
      x2="0"
      y2="0"
    ><stop
      offset="0"
      stop-color="rgba(235,146,92, 1)"
    /></linearGradient></defs><path
      id="591"
      d="M0 49.99999L8.726069023451805 49.0485575966027S10.714285714285714 48.83177570093458
      12.712966080224644 48.75913415077065L21.428571428571427 48.442367601246104L30.145441171235856
      47.998830096167644S32.14285714285714 47.89719626168224 34.14280430729944 47.88265874335296L40.85719569270054
      47.833852160073825S42.857142857142854 47.81931464174455 44.81413455203335 47.40678160533461L53.57142857142857
      45.5607476635514L62.31669506819272 44.003309237596S64.28571428571428 43.65264797507788 66.19463896676395
      43.055985120461116L75 40.30373831775701L83.83239881323094 37.125725660659896S85.71428571428571 36.44859813084112
      87.60688279162274 35.80200992892639L94.53597435123439 33.4347501956842S96.42857142857142 32.78816199376947
      98.39759064609298 33.13882325628759L107.14285714285714 34.69626168224299L115.90015116225234 36.542295624026195S117.85714285714285
      36.954828660436135 119.74550066979903 37.613694937749194L126.68307075877237 40.034280140132424S128.57142857142856
      40.69314641744548 130.45978638408474 40.034280140132424L137.3973564730581 37.613694937749194S139.28571428571428
      36.954828660436135 141.25715813742653 36.61806592564209L148.02855614828775 35.46137332669436S150 35.124610591900314
      151.9924345230592 34.9508156802316L158.7218511912265 34.36382606431669S160.7142857142857 34.190031152647975
      162.63846053801356 33.64454857022045L169.50439660484355 31.69813055750541S171.42857142857142 31.152647975077883
      173.4143397379055 30.914479501839995L180.15708883352306 30.105769719343808S182.14285714285714 29.86760124610592
      183.6883377640881 31.137045868529274L191.31166223591188 37.398779676642064S192.85714285714283 38.66822429906542
      194.73242887993385 37.97302480775038L201.69614254863754 35.391461173558035S203.57142857142856 34.69626168224299
      205.5045466099971 34.1833731476072L212.35259624714573 32.366471089152924S214.28571428571428 31.853582554517136
      216.2838148396138 31.76643798207292L223.00189944610045 31.473437407335183S224.99999999999997 31.386292834890966
      226.89884025674348 30.75827557448307L233.81544545754218 28.470696388133756S235.7142857142857 27.84267912772586
      237.29021040323315 26.611232265386334L244.85264673962396 20.7018518467632S246.42857142857142 19.470404984423677
      248.2618024031443 18.670864995513394L255.30962616828424 15.597047777072277S257.1428571428571 14.797507788161994
      259.1402731144784 14.695873953676593L265.8597268855215 14.353970283083537S267.85714285714283 14.252336448598136
      269.6903738317157 13.452796459687855L276.7381975968557 10.37897924124673S278.57142857142856 9.57943925233645
      280.0623970130499 8.246392701727954L287.7947458440929 1.333046550608495S289.2857142857143 0 291.2412592854721
      0.41933727943285304L300 2.297517788161994"
      fill="none"
      stroke="url(#591)"
      style="transition: stroke-dashoffset 2000ms ease 0s; stroke-dasharray: 316.718, 316.718; stroke-dashoffset: 0;"
    /></svg>
  </svg>